M48
;Layer_Color=9474304
;FILE_FORMAT=2:4
INCH,LZ
;TYPE=PLATED
T6F00S00C0.0354
%
G90
G05
T06
G00X023189Y00356
M15
G01X023071
M16
G00X026189Y00356
M15
G01X026071
M16
G00X029189Y00356
M15
G01X029071
M16
G00X030689Y007182
M15
G01X030571
M16
G00X027689Y007182
M15
G01X027571
M16
G00X024689Y007182
M15
G01X024571
M16
G00X021689Y007182
M15
G01X021571
M16
G00X018689Y007182
M15
G01X018571
M16
G00X015689Y007182
M15
G01X015571
M16
G00X012689Y007182
M15
G01X012571
M16
G00X009689Y007182
M15
G01X009571
M16
G00X006689Y007182
M15
G01X006571
M16
G00X008189Y00356
M15
G01X008071
M16
G00X011189Y00356
M15
G01X011071
M16
G00X014189Y00356
M15
G01X014071
M16
G00X017189Y00356
M15
G01X017071
M16
G00X020189Y00356
M15
G01X020071
M16
G00X005189Y00356
M15
G01X005071
M16
G00X002189Y00356
M15
G01X002071
M16
G00X003689Y007182
M15
G01X003571
M16
G00X002156Y030298
M15
G01X002274
M16
G00X005156Y030298
M15
G01X005274
M16
G00X003656Y03392
M15
G01X003774
M16
G00X006656Y03392
M15
G01X006774
M16
G00X009656Y03392
M15
G01X009774
M16
G00X012656Y03392
M15
G01X012774
M16
G00X015656Y03392
M15
G01X015774
M16
G00X018656Y03392
M15
G01X018774
M16
G00X020156Y030298
M15
G01X020274
M16
G00X017156Y030298
M15
G01X017274
M16
G00X014156Y030298
M15
G01X014274
M16
G00X011156Y030298
M15
G01X011274
M16
G00X008156Y030298
M15
G01X008274
M16
G00X023156Y030298
M15
G01X023274
M16
G00X026156Y030298
M15
G01X026274
M16
G00X029156Y030298
M15
G01X029274
M16
G00X030656Y03392
M15
G01X030774
M16
G00X027656Y03392
M15
G01X027774
M16
G00X024656Y03392
M15
G01X024774
M16
G00X021656Y03392
M15
G01X021774
M16
M17
M30
