G04*
G04 #@! TF.GenerationSoftware,Altium Limited,Altium Designer,19.0.4 (130)*
G04*
G04 Layer_Color=2752767*
%FSTAX24Y24*%
%MOIN*%
G70*
G01*
G75*
%ADD75C,0.0020*%
%ADD76C,0.0027*%
D75*
X030635Y03384D02*
Y034D01*
X030795D01*
Y03384D01*
X030635D01*
X029135Y030218D02*
Y030378D01*
X029295D01*
Y030218D01*
X029135D01*
X027635Y03384D02*
Y034D01*
X027795D01*
Y03384D01*
X027635D01*
X026135Y030218D02*
Y030378D01*
X026295D01*
Y030218D01*
X026135D01*
X024635Y03384D02*
Y034D01*
X024795D01*
Y03384D01*
X024635D01*
X023135Y030218D02*
Y030378D01*
X023295D01*
Y030218D01*
X023135D01*
X021635Y03384D02*
Y034D01*
X021795D01*
Y03384D01*
X021635D01*
X020135Y030218D02*
Y030378D01*
X020295D01*
Y030218D01*
X020135D01*
X018635Y03384D02*
Y034D01*
X018795D01*
Y03384D01*
X018635D01*
X017135Y030218D02*
Y030378D01*
X017295D01*
Y030218D01*
X017135D01*
X015635Y03384D02*
Y034D01*
X015795D01*
Y03384D01*
X015635D01*
X014135Y030218D02*
Y030378D01*
X014295D01*
Y030218D01*
X014135D01*
X012635Y03384D02*
Y034D01*
X012795D01*
Y03384D01*
X012635D01*
X011135Y030218D02*
Y030378D01*
X011295D01*
Y030218D01*
X011135D01*
X009635Y03384D02*
Y034D01*
X009795D01*
Y03384D01*
X009635D01*
X008135Y030218D02*
Y030378D01*
X008295D01*
Y030218D01*
X008135D01*
X006635Y03384D02*
Y034D01*
X006795D01*
Y03384D01*
X006635D01*
X005135Y030218D02*
Y030378D01*
X005295D01*
Y030218D01*
X005135D01*
X003635Y03384D02*
Y034D01*
X003795D01*
Y03384D01*
X003635D01*
X002135Y030218D02*
Y030378D01*
X002295D01*
Y030218D01*
X002135D01*
X019534Y00926D02*
X019454Y00942D01*
X019614D01*
X019534Y00926D01*
X018747D02*
X018667Y00942D01*
X018827D01*
X018747Y00926D01*
X01796D02*
X01788Y00942D01*
X01804D01*
X01796Y00926D01*
X017172D02*
X017092Y00942D01*
X017252D01*
X017172Y00926D01*
X016385D02*
X016305Y00942D01*
X016465D01*
X016385Y00926D01*
X015597D02*
X015517Y00942D01*
X015677D01*
X015597Y00926D01*
X01481D02*
X01473Y00942D01*
X01489D01*
X01481Y00926D01*
X014023D02*
X013943Y00942D01*
X014103D01*
X014023Y00926D01*
X013235D02*
X013155Y00942D01*
X013315D01*
X013235Y00926D01*
X012448D02*
X012368Y00942D01*
X012528D01*
X012448Y00926D01*
X01166D02*
X01158Y00942D01*
X01174D01*
X01166Y00926D01*
X010873D02*
X010793Y00942D01*
X010953D01*
X010873Y00926D01*
X010857Y02086D02*
X010777Y02102D01*
X010937D01*
X010857Y02086D01*
X011644D02*
X011564Y02102D01*
X011724D01*
X011644Y02086D01*
X012431D02*
X012351Y02102D01*
X012511D01*
X012431Y02086D01*
X013219D02*
X013139Y02102D01*
X013299D01*
X013219Y02086D01*
X014006D02*
X013926Y02102D01*
X014086D01*
X014006Y02086D01*
X014794D02*
X014714Y02102D01*
X014874D01*
X014794Y02086D01*
X015581D02*
X015501Y02102D01*
X015661D01*
X015581Y02086D01*
X016368D02*
X016288Y02102D01*
X016448D01*
X016368Y02086D01*
X017156D02*
X017076Y02102D01*
X017236D01*
X017156Y02086D01*
X017943D02*
X017863Y02102D01*
X018023D01*
X017943Y02086D01*
X018731D02*
X018651Y02102D01*
X018811D01*
X018731Y02086D01*
X019518D02*
X019438Y02102D01*
X019598D01*
X019518Y02086D01*
X03055Y007102D02*
Y007262D01*
X03071D01*
Y007102D01*
X03055D01*
X02905Y00348D02*
Y00364D01*
X02921D01*
Y00348D01*
X02905D01*
X02755Y007102D02*
Y007262D01*
X02771D01*
Y007102D01*
X02755D01*
X02605Y00348D02*
Y00364D01*
X02621D01*
Y00348D01*
X02605D01*
X02455Y007102D02*
Y007262D01*
X02471D01*
Y007102D01*
X02455D01*
X02305Y00348D02*
Y00364D01*
X02321D01*
Y00348D01*
X02305D01*
X02155Y007102D02*
Y007262D01*
X02171D01*
Y007102D01*
X02155D01*
X02005Y00348D02*
Y00364D01*
X02021D01*
Y00348D01*
X02005D01*
X01855Y007102D02*
Y007262D01*
X01871D01*
Y007102D01*
X01855D01*
X01705Y00348D02*
Y00364D01*
X01721D01*
Y00348D01*
X01705D01*
X01555Y007102D02*
Y007262D01*
X01571D01*
Y007102D01*
X01555D01*
X01405Y00348D02*
Y00364D01*
X01421D01*
Y00348D01*
X01405D01*
X01255Y007102D02*
Y007262D01*
X01271D01*
Y007102D01*
X01255D01*
X01105Y00348D02*
Y00364D01*
X01121D01*
Y00348D01*
X01105D01*
X00955Y007102D02*
Y007262D01*
X00971D01*
Y007102D01*
X00955D01*
X00805Y00348D02*
Y00364D01*
X00821D01*
Y00348D01*
X00805D01*
X00655Y007102D02*
Y007262D01*
X00671D01*
Y007102D01*
X00655D01*
X00505Y00348D02*
Y00364D01*
X00521D01*
Y00348D01*
X00505D01*
X00355Y007102D02*
Y007262D01*
X00371D01*
Y007102D01*
X00355D01*
X00205Y00348D02*
Y00364D01*
X00221D01*
Y00348D01*
X00205D01*
X02131Y0128D02*
X02135Y01284D01*
X02139D01*
X02135Y01288D01*
X02139Y01292D01*
X02135D01*
X02131Y01296D01*
X02127Y01292D01*
X02123D01*
X02127Y01288D01*
X02123Y01284D01*
X02127D01*
X02131Y0128D01*
X00985Y00583D02*
X00989Y00587D01*
X00993D01*
X00989Y00591D01*
X00993Y00595D01*
X00989D01*
X00985Y00599D01*
X00981Y00595D01*
X00977D01*
X00981Y00591D01*
X00977Y00587D01*
X00981D01*
X00985Y00583D01*
X009309D02*
X009349Y00587D01*
X009389D01*
X009349Y00591D01*
X009389Y00595D01*
X009349D01*
X009309Y00599D01*
X009269Y00595D01*
X009229D01*
X009269Y00591D01*
X009229Y00587D01*
X009269D01*
X009309Y00583D01*
X010391D02*
X010431Y00587D01*
X010471D01*
X010431Y00591D01*
X010471Y00595D01*
X010431D01*
X010391Y00599D01*
X010351Y00595D01*
X010311D01*
X010351Y00591D01*
X010311Y00587D01*
X010351D01*
X010391Y00583D01*
X026417Y004785D02*
X026457Y004825D01*
X026497D01*
X026457Y004865D01*
X026497Y004905D01*
X026457D01*
X026417Y004945D01*
X026377Y004905D01*
X026337D01*
X026377Y004865D01*
X026337Y004825D01*
X026377D01*
X026417Y004785D01*
X025335D02*
X025375Y004825D01*
X025415D01*
X025375Y004865D01*
X025415Y004905D01*
X025375D01*
X025335Y004945D01*
X025295Y004905D01*
X025255D01*
X025295Y004865D01*
X025255Y004825D01*
X025295D01*
X025335Y004785D01*
X025876D02*
X025916Y004825D01*
X025956D01*
X025916Y004865D01*
X025956Y004905D01*
X025916D01*
X025876Y004945D01*
X025836Y004905D01*
X025796D01*
X025836Y004865D01*
X025796Y004825D01*
X025836D01*
X025876Y004785D01*
X025397Y009075D02*
X025437Y009115D01*
X025477D01*
X025437Y009155D01*
X025477Y009195D01*
X025437D01*
X025397Y009235D01*
X025357Y009195D01*
X025317D01*
X025357Y009155D01*
X025317Y009115D01*
X025357D01*
X025397Y009075D01*
X009879Y01736D02*
X009919Y0174D01*
X009959D01*
X009919Y01744D01*
X009959Y01748D01*
X009919D01*
X009879Y01752D01*
X009839Y01748D01*
X009799D01*
X009839Y01744D01*
X009799Y0174D01*
X009839D01*
X009879Y01736D01*
X004922Y017675D02*
X004962Y017715D01*
X005002D01*
X004962Y017755D01*
X005002Y017795D01*
X004962D01*
X004922Y017835D01*
X004882Y017795D01*
X004842D01*
X004882Y017755D01*
X004842Y017715D01*
X004882D01*
X004922Y017675D01*
X003937Y018463D02*
X003977Y018503D01*
X004017D01*
X003977Y018543D01*
X004017Y018583D01*
X003977D01*
X003937Y018623D01*
X003897Y018583D01*
X003857D01*
X003897Y018543D01*
X003857Y018503D01*
X003897D01*
X003937Y018463D01*
X004057Y01256D02*
X004097Y0126D01*
X004137D01*
X004097Y01264D01*
X004137Y01268D01*
X004097D01*
X004057Y01272D01*
X004017Y01268D01*
X003977D01*
X004017Y01264D01*
X003977Y0126D01*
X004017D01*
X004057Y01256D01*
X001307Y014655D02*
X001347Y014695D01*
X001387D01*
X001347Y014735D01*
X001387Y014775D01*
X001347D01*
X001307Y014815D01*
X001267Y014775D01*
X001227D01*
X001267Y014735D01*
X001227Y014695D01*
X001267D01*
X001307Y014655D01*
X00775Y011819D02*
X00779Y011859D01*
X00783D01*
X00779Y011899D01*
X00783Y011939D01*
X00779D01*
X00775Y011979D01*
X00771Y011939D01*
X00767D01*
X00771Y011899D01*
X00767Y011859D01*
X00771D01*
X00775Y011819D01*
X00864Y009905D02*
X00868Y009945D01*
X00872D01*
X00868Y009985D01*
X00872Y010025D01*
X00868D01*
X00864Y010065D01*
X0086Y010025D01*
X00856D01*
X0086Y009985D01*
X00856Y009945D01*
X0086D01*
X00864Y009905D01*
X024127Y019535D02*
X024167Y019575D01*
X024207D01*
X024167Y019615D01*
X024207Y019655D01*
X024167D01*
X024127Y019695D01*
X024087Y019655D01*
X024047D01*
X024087Y019615D01*
X024047Y019575D01*
X024087D01*
X024127Y019535D01*
X018477Y019315D02*
X018517Y019355D01*
X018557D01*
X018517Y019395D01*
X018557Y019435D01*
X018517D01*
X018477Y019475D01*
X018437Y019435D01*
X018397D01*
X018437Y019395D01*
X018397Y019355D01*
X018437D01*
X018477Y019315D01*
X02498Y01452D02*
X02502Y01456D01*
X02506D01*
X02502Y0146D01*
X02506Y01464D01*
X02502D01*
X02498Y01468D01*
X02494Y01464D01*
X0249D01*
X02494Y0146D01*
X0249Y01456D01*
X02494D01*
X02498Y01452D01*
X020357Y016915D02*
X020397Y016955D01*
X020437D01*
X020397Y016995D01*
X020437Y017035D01*
X020397D01*
X020357Y017075D01*
X020317Y017035D01*
X020277D01*
X020317Y016995D01*
X020277Y016955D01*
X020317D01*
X020357Y016915D01*
X027737Y02483D02*
X027777Y02487D01*
X027817D01*
X027777Y02491D01*
X027817Y02495D01*
X027777D01*
X027737Y02499D01*
X027697Y02495D01*
X027657D01*
X027697Y02491D01*
X027657Y02487D01*
X027697D01*
X027737Y02483D01*
X026107Y02483D02*
X026147Y02487D01*
X026187D01*
X026147Y02491D01*
X026187Y02495D01*
X026147D01*
X026107Y02499D01*
X026067Y02495D01*
X026027D01*
X026067Y02491D01*
X026027Y02487D01*
X026067D01*
X026107Y02483D01*
X024443Y02483D02*
X024483Y02487D01*
X024523D01*
X024483Y02491D01*
X024523Y02495D01*
X024483D01*
X024443Y02499D01*
X024403Y02495D01*
X024363D01*
X024403Y02491D01*
X024363Y02487D01*
X024403D01*
X024443Y02483D01*
X02278Y02483D02*
X02282Y02487D01*
X02286D01*
X02282Y02491D01*
X02286Y02495D01*
X02282D01*
X02278Y02499D01*
X02274Y02495D01*
X0227D01*
X02274Y02491D01*
X0227Y02487D01*
X02274D01*
X02278Y02483D01*
X021117D02*
X021157Y02487D01*
X021197D01*
X021157Y02491D01*
X021197Y02495D01*
X021157D01*
X021117Y02499D01*
X021077Y02495D01*
X021037D01*
X021077Y02491D01*
X021037Y02487D01*
X021077D01*
X021117Y02483D01*
X019453D02*
X019493Y02487D01*
X019533D01*
X019493Y02491D01*
X019533Y02495D01*
X019493D01*
X019453Y02499D01*
X019413Y02495D01*
X019373D01*
X019413Y02491D01*
X019373Y02487D01*
X019413D01*
X019453Y02483D01*
X01779D02*
X01783Y02487D01*
X01787D01*
X01783Y02491D01*
X01787Y02495D01*
X01783D01*
X01779Y02499D01*
X01775Y02495D01*
X01771D01*
X01775Y02491D01*
X01771Y02487D01*
X01775D01*
X01779Y02483D01*
X016127Y02483D02*
X016167Y02487D01*
X016207D01*
X016167Y02491D01*
X016207Y02495D01*
X016167D01*
X016127Y02499D01*
X016087Y02495D01*
X016047D01*
X016087Y02491D01*
X016047Y02487D01*
X016087D01*
X016127Y02483D01*
X014413Y02483D02*
X014453Y02487D01*
X014493D01*
X014453Y02491D01*
X014493Y02495D01*
X014453D01*
X014413Y02499D01*
X014373Y02495D01*
X014333D01*
X014373Y02491D01*
X014333Y02487D01*
X014373D01*
X014413Y02483D01*
X0128Y02483D02*
X01284Y02487D01*
X01288D01*
X01284Y02491D01*
X01288Y02495D01*
X01284D01*
X0128Y02499D01*
X01276Y02495D01*
X01272D01*
X01276Y02491D01*
X01272Y02487D01*
X01276D01*
X0128Y02483D01*
X011137Y02483D02*
X011177Y02487D01*
X011217D01*
X011177Y02491D01*
X011217Y02495D01*
X011177D01*
X011137Y02499D01*
X011097Y02495D01*
X011057D01*
X011097Y02491D01*
X011057Y02487D01*
X011097D01*
X011137Y02483D01*
X009473Y02483D02*
X009513Y02487D01*
X009553D01*
X009513Y02491D01*
X009553Y02495D01*
X009513D01*
X009473Y02499D01*
X009433Y02495D01*
X009393D01*
X009433Y02491D01*
X009393Y02487D01*
X009433D01*
X009473Y02483D01*
X009473Y02483D02*
X009513Y02487D01*
X009553D01*
X009513Y02491D01*
X009553Y02495D01*
X009513D01*
X009473Y02499D01*
X009433Y02495D01*
X009393D01*
X009433Y02491D01*
X009393Y02487D01*
X009433D01*
X009473Y02483D01*
X00781Y02483D02*
X00785Y02487D01*
X00789D01*
X00785Y02491D01*
X00789Y02495D01*
X00785D01*
X00781Y02499D01*
X00777Y02495D01*
X00773D01*
X00777Y02491D01*
X00773Y02487D01*
X00777D01*
X00781Y02483D01*
X006147D02*
X006187Y02487D01*
X006227D01*
X006187Y02491D01*
X006227Y02495D01*
X006187D01*
X006147Y02499D01*
X006107Y02495D01*
X006067D01*
X006107Y02491D01*
X006067Y02487D01*
X006107D01*
X006147Y02483D01*
X004483D02*
X004523Y02487D01*
X004563D01*
X004523Y02491D01*
X004563Y02495D01*
X004523D01*
X004483Y02499D01*
X004443Y02495D01*
X004403D01*
X004443Y02491D01*
X004403Y02487D01*
X004443D01*
X004483Y02483D01*
X001157D02*
X001197Y02487D01*
X001237D01*
X001197Y02491D01*
X001237Y02495D01*
X001197D01*
X001157Y02499D01*
X001117Y02495D01*
X001077D01*
X001117Y02491D01*
X001077Y02487D01*
X001117D01*
X001157Y02483D01*
X00282D02*
X00286Y02487D01*
X0029D01*
X00286Y02491D01*
X0029Y02495D01*
X00286D01*
X00282Y02499D01*
X00278Y02495D01*
X00274D01*
X00278Y02491D01*
X00274Y02487D01*
X00278D01*
X00282Y02483D01*
X00289Y01283D02*
X00293Y01287D01*
X00297D01*
X00293Y01291D01*
X00297Y01295D01*
X00293D01*
X00289Y01299D01*
X00285Y01295D01*
X00281D01*
X00285Y01291D01*
X00281Y01287D01*
X00285D01*
X00289Y01283D01*
X00535Y01265D02*
X00539Y01269D01*
X00543D01*
X00539Y01273D01*
X00543Y01277D01*
X00539D01*
X00535Y01281D01*
X00531Y01277D01*
X00527D01*
X00531Y01273D01*
X00527Y01269D01*
X00531D01*
X00535Y01265D01*
X00598Y0129D02*
X00602Y01294D01*
X00606D01*
X00602Y01298D01*
X00606Y01302D01*
X00602D01*
X00598Y01306D01*
X00594Y01302D01*
X0059D01*
X00594Y01298D01*
X0059Y01294D01*
X00594D01*
X00598Y0129D01*
X0049D02*
X00494Y01294D01*
X00498D01*
X00494Y01298D01*
X00498Y01302D01*
X00494D01*
X0049Y01306D01*
X00486Y01302D01*
X00482D01*
X00486Y01298D01*
X00482Y01294D01*
X00486D01*
X0049Y0129D01*
X00669Y01186D02*
X00673Y0119D01*
X00677D01*
X00673Y01194D01*
X00677Y01198D01*
X00673D01*
X00669Y01202D01*
X00665Y01198D01*
X00661D01*
X00665Y01194D01*
X00661Y0119D01*
X00665D01*
X00669Y01186D01*
X00988Y01261D02*
X00992Y01265D01*
X00996D01*
X00992Y01269D01*
X00996Y01273D01*
X00992D01*
X00988Y01277D01*
X00984Y01273D01*
X0098D01*
X00984Y01269D01*
X0098Y01265D01*
X00984D01*
X00988Y01261D01*
X005193Y01597D02*
X005233Y01601D01*
X005273D01*
X005233Y01605D01*
X005273Y01609D01*
X005233D01*
X005193Y01613D01*
X005153Y01609D01*
X005113D01*
X005153Y01605D01*
X005113Y01601D01*
X005153D01*
X005193Y01597D01*
X004693D02*
X004733Y01601D01*
X004773D01*
X004733Y01605D01*
X004773Y01609D01*
X004733D01*
X004693Y01613D01*
X004653Y01609D01*
X004613D01*
X004653Y01605D01*
X004613Y01601D01*
X004653D01*
X004693Y01597D01*
X004193D02*
X004233Y01601D01*
X004273D01*
X004233Y01605D01*
X004273Y01609D01*
X004233D01*
X004193Y01613D01*
X004153Y01609D01*
X004113D01*
X004153Y01605D01*
X004113Y01601D01*
X004153D01*
X004193Y01597D01*
X003693D02*
X003733Y01601D01*
X003773D01*
X003733Y01605D01*
X003773Y01609D01*
X003733D01*
X003693Y01613D01*
X003653Y01609D01*
X003613D01*
X003653Y01605D01*
X003613Y01601D01*
X003653D01*
X003693Y01597D01*
X003193D02*
X003233Y01601D01*
X003273D01*
X003233Y01605D01*
X003273Y01609D01*
X003233D01*
X003193Y01613D01*
X003153Y01609D01*
X003113D01*
X003153Y01605D01*
X003113Y01601D01*
X003153D01*
X003193Y01597D01*
X002693D02*
X002733Y01601D01*
X002773D01*
X002733Y01605D01*
X002773Y01609D01*
X002733D01*
X002693Y01613D01*
X002653Y01609D01*
X002613D01*
X002653Y01605D01*
X002613Y01601D01*
X002653D01*
X002693Y01597D01*
X002193D02*
X002233Y01601D01*
X002273D01*
X002233Y01605D01*
X002273Y01609D01*
X002233D01*
X002193Y01613D01*
X002153Y01609D01*
X002113D01*
X002153Y01605D01*
X002113Y01601D01*
X002153D01*
X002193Y01597D01*
X00568Y015989D02*
X00572Y016029D01*
X00576D01*
X00572Y016069D01*
X00576Y016109D01*
X00572D01*
X00568Y016149D01*
X00564Y016109D01*
X0056D01*
X00564Y016069D01*
X0056Y016029D01*
X00564D01*
X00568Y015989D01*
X001065Y017575D02*
X001105Y017615D01*
X001145D01*
X001105Y017655D01*
X001145Y017695D01*
X001105D01*
X001065Y017735D01*
X001025Y017695D01*
X000985D01*
X001025Y017655D01*
X000985Y017615D01*
X001025D01*
X001065Y017575D01*
X02383Y00921D02*
X02387Y00929D01*
X02383Y00937D01*
X02391Y00933D01*
X02399Y00937D01*
X02395Y00929D01*
X02399Y00921D01*
X02391Y00925D01*
X02383Y00921D01*
X00028Y01947D02*
X00032Y01951D01*
X00036D01*
X00032Y01955D01*
X00036Y01959D01*
X00032D01*
X00028Y01963D01*
X00024Y01959D01*
X0002D01*
X00024Y01955D01*
X0002Y01951D01*
X00024D01*
X00028Y01947D01*
X002295Y020445D02*
X002335Y020485D01*
X002375D01*
X002335Y020525D01*
X002375Y020565D01*
X002335D01*
X002295Y020605D01*
X002255Y020565D01*
X002215D01*
X002255Y020525D01*
X002215Y020485D01*
X002255D01*
X002295Y020445D01*
X02275Y01976D02*
X02279Y0198D01*
X02283D01*
X02279Y01984D01*
X02283Y01988D01*
X02279D01*
X02275Y01992D01*
X02271Y01988D01*
X02267D01*
X02271Y01984D01*
X02267Y0198D01*
X02271D01*
X02275Y01976D01*
X00478Y02069D02*
X00482Y02073D01*
X00486D01*
X00482Y02077D01*
X00486Y02081D01*
X00482D01*
X00478Y02085D01*
X00474Y02081D01*
X0047D01*
X00474Y02077D01*
X0047Y02073D01*
X00474D01*
X00478Y02069D01*
X00652Y020445D02*
X00656Y020485D01*
X0066D01*
X00656Y020525D01*
X0066Y020565D01*
X00656D01*
X00652Y020605D01*
X00648Y020565D01*
X00644D01*
X00648Y020525D01*
X00644Y020485D01*
X00648D01*
X00652Y020445D01*
X00952Y02069D02*
X00956Y02073D01*
X0096D01*
X00956Y02077D01*
X0096Y02081D01*
X00956D01*
X00952Y02085D01*
X00948Y02081D01*
X00944D01*
X00948Y02077D01*
X00944Y02073D01*
X00948D01*
X00952Y02069D01*
X00602Y02024D02*
X00606Y02028D01*
X0061D01*
X00606Y02032D01*
X0061Y02036D01*
X00606D01*
X00602Y0204D01*
X00598Y02036D01*
X00594D01*
X00598Y02032D01*
X00594Y02028D01*
X00598D01*
X00602Y02024D01*
X00178D02*
X00182Y02028D01*
X00186D01*
X00182Y02032D01*
X00186Y02036D01*
X00182D01*
X00178Y0204D01*
X00174Y02036D01*
X0017D01*
X00174Y02032D01*
X0017Y02028D01*
X00174D01*
X00178Y02024D01*
X0007Y02104D02*
X00074Y02108D01*
X00078D01*
X00074Y02112D01*
X00078Y02116D01*
X00074D01*
X0007Y0212D01*
X00066Y02116D01*
X00062D01*
X00066Y02112D01*
X00062Y02108D01*
X00066D01*
X0007Y02104D01*
X00052Y02072D02*
X00056Y02076D01*
X0006D01*
X00056Y0208D01*
X0006Y02084D01*
X00056D01*
X00052Y02088D01*
X00048Y02084D01*
X00044D01*
X00048Y0208D01*
X00044Y02076D01*
X00048D01*
X00052Y02072D01*
X00027Y02032D02*
X00031Y02036D01*
X00035D01*
X00031Y0204D01*
X00035Y02044D01*
X00031D01*
X00027Y02048D01*
X00023Y02044D01*
X00019D01*
X00023Y0204D01*
X00019Y02036D01*
X00023D01*
X00027Y02032D01*
X0286Y025214D02*
X02864Y025254D01*
X02868D01*
X02864Y025294D01*
X02868Y025334D01*
X02864D01*
X0286Y025374D01*
X02856Y025334D01*
X02852D01*
X02856Y025294D01*
X02852Y025254D01*
X02856D01*
X0286Y025214D01*
X02693D02*
X02697Y025254D01*
X02701D01*
X02697Y025294D01*
X02701Y025334D01*
X02697D01*
X02693Y025374D01*
X02689Y025334D01*
X02685D01*
X02689Y025294D01*
X02685Y025254D01*
X02689D01*
X02693Y025214D01*
X025267D02*
X025307Y025254D01*
X025347D01*
X025307Y025294D01*
X025347Y025334D01*
X025307D01*
X025267Y025374D01*
X025227Y025334D01*
X025187D01*
X025227Y025294D01*
X025187Y025254D01*
X025227D01*
X025267Y025214D01*
X023603D02*
X023643Y025254D01*
X023683D01*
X023643Y025294D01*
X023683Y025334D01*
X023643D01*
X023603Y025374D01*
X023563Y025334D01*
X023523D01*
X023563Y025294D01*
X023523Y025254D01*
X023563D01*
X023603Y025214D01*
X02194D02*
X02198Y025254D01*
X02202D01*
X02198Y025294D01*
X02202Y025334D01*
X02198D01*
X02194Y025374D01*
X0219Y025334D01*
X02186D01*
X0219Y025294D01*
X02186Y025254D01*
X0219D01*
X02194Y025214D01*
X020277D02*
X020317Y025254D01*
X020357D01*
X020317Y025294D01*
X020357Y025334D01*
X020317D01*
X020277Y025374D01*
X020237Y025334D01*
X020197D01*
X020237Y025294D01*
X020197Y025254D01*
X020237D01*
X020277Y025214D01*
X018613D02*
X018653Y025254D01*
X018693D01*
X018653Y025294D01*
X018693Y025334D01*
X018653D01*
X018613Y025374D01*
X018573Y025334D01*
X018533D01*
X018573Y025294D01*
X018533Y025254D01*
X018573D01*
X018613Y025214D01*
X01695D02*
X01699Y025254D01*
X01703D01*
X01699Y025294D01*
X01703Y025334D01*
X01699D01*
X01695Y025374D01*
X01691Y025334D01*
X01687D01*
X01691Y025294D01*
X01687Y025254D01*
X01691D01*
X01695Y025214D01*
X015287D02*
X015327Y025254D01*
X015367D01*
X015327Y025294D01*
X015367Y025334D01*
X015327D01*
X015287Y025374D01*
X015247Y025334D01*
X015207D01*
X015247Y025294D01*
X015207Y025254D01*
X015247D01*
X015287Y025214D01*
X013623D02*
X013663Y025254D01*
X013703D01*
X013663Y025294D01*
X013703Y025334D01*
X013663D01*
X013623Y025374D01*
X013583Y025334D01*
X013543D01*
X013583Y025294D01*
X013543Y025254D01*
X013583D01*
X013623Y025214D01*
X01196D02*
X012Y025254D01*
X01204D01*
X012Y025294D01*
X01204Y025334D01*
X012D01*
X01196Y025374D01*
X01192Y025334D01*
X01188D01*
X01192Y025294D01*
X01188Y025254D01*
X01192D01*
X01196Y025214D01*
X010297D02*
X010337Y025254D01*
X010377D01*
X010337Y025294D01*
X010377Y025334D01*
X010337D01*
X010297Y025374D01*
X010257Y025334D01*
X010217D01*
X010257Y025294D01*
X010217Y025254D01*
X010257D01*
X010297Y025214D01*
X008633D02*
X008673Y025254D01*
X008713D01*
X008673Y025294D01*
X008713Y025334D01*
X008673D01*
X008633Y025374D01*
X008593Y025334D01*
X008553D01*
X008593Y025294D01*
X008553Y025254D01*
X008593D01*
X008633Y025214D01*
X00697D02*
X00701Y025254D01*
X00705D01*
X00701Y025294D01*
X00705Y025334D01*
X00701D01*
X00697Y025374D01*
X00693Y025334D01*
X00689D01*
X00693Y025294D01*
X00689Y025254D01*
X00693D01*
X00697Y025214D01*
X005307D02*
X005347Y025254D01*
X005387D01*
X005347Y025294D01*
X005387Y025334D01*
X005347D01*
X005307Y025374D01*
X005267Y025334D01*
X005227D01*
X005267Y025294D01*
X005227Y025254D01*
X005267D01*
X005307Y025214D01*
X003643D02*
X003683Y025254D01*
X003723D01*
X003683Y025294D01*
X003723Y025334D01*
X003683D01*
X003643Y025374D01*
X003603Y025334D01*
X003563D01*
X003603Y025294D01*
X003563Y025254D01*
X003603D01*
X003643Y025214D01*
X00198Y02521D02*
X00202Y02525D01*
X00206D01*
X00202Y02529D01*
X00206Y02533D01*
X00202D01*
X00198Y02537D01*
X00194Y02533D01*
X0019D01*
X00194Y02529D01*
X0019Y02525D01*
X00194D01*
X00198Y02521D01*
X02818Y02593D02*
Y02589D01*
X02826D01*
Y02593D01*
X0283D01*
Y02601D01*
X02826D01*
Y02605D01*
X02818D01*
Y02601D01*
X02814D01*
Y02593D01*
X02818D01*
X02882Y01462D02*
Y01458D01*
X0289D01*
Y01462D01*
X02894D01*
Y0147D01*
X0289D01*
Y01474D01*
X02882D01*
Y0147D01*
X02878D01*
Y01462D01*
X02882D01*
X00894Y0158D02*
X00898Y01584D01*
X00902D01*
X00898Y01588D01*
X00902Y01592D01*
X00898D01*
X00894Y01596D01*
X0089Y01592D01*
X00886D01*
X0089Y01588D01*
X00886Y01584D01*
X0089D01*
X00894Y0158D01*
X00943Y01581D02*
X00947Y01585D01*
X00951D01*
X00947Y01589D01*
X00951Y01593D01*
X00947D01*
X00943Y01597D01*
X00939Y01593D01*
X00935D01*
X00939Y01589D01*
X00935Y01585D01*
X00939D01*
X00943Y01581D01*
X0098Y01561D02*
X00984Y01565D01*
X00988D01*
X00984Y01569D01*
X00988Y01573D01*
X00984D01*
X0098Y01577D01*
X00976Y01573D01*
X00972D01*
X00976Y01569D01*
X00972Y01565D01*
X00976D01*
X0098Y01561D01*
X029755Y01416D02*
Y01412D01*
X029835D01*
Y01416D01*
X029875D01*
Y01424D01*
X029835D01*
Y01428D01*
X029755D01*
Y01424D01*
X029715D01*
Y01416D01*
X029755D01*
Y015155D02*
Y015115D01*
X029835D01*
Y015155D01*
X029875D01*
Y015235D01*
X029835D01*
Y015275D01*
X029755D01*
Y015235D01*
X029715D01*
Y015155D01*
X029755D01*
X02755Y02269D02*
X02759D01*
X02763Y02273D01*
X02767Y02269D01*
X02771D01*
Y02273D01*
X02767Y02277D01*
X02771Y02281D01*
Y02285D01*
X02767D01*
X02763Y02281D01*
X02759Y02285D01*
X02755D01*
Y02281D01*
X02759Y02277D01*
X02755Y02273D01*
Y02269D01*
Y02141D02*
X02759D01*
X02763Y02145D01*
X02767Y02141D01*
X02771D01*
Y02145D01*
X02767Y02149D01*
X02771Y02153D01*
Y02157D01*
X02767D01*
X02763Y02153D01*
X02759Y02157D01*
X02755D01*
Y02153D01*
X02759Y02149D01*
X02755Y02145D01*
Y02141D01*
X011933Y00995D02*
X011973Y00999D01*
X012013D01*
X011973Y01003D01*
X012013Y01007D01*
X011973D01*
X011933Y01011D01*
X011893Y01007D01*
X011853D01*
X011893Y01003D01*
X011853Y00999D01*
X011893D01*
X011933Y00995D01*
X00127Y01599D02*
X00131Y01603D01*
X00135D01*
X00131Y01607D01*
X00135Y01611D01*
X00131D01*
X00127Y01615D01*
X00123Y01611D01*
X00119D01*
X00123Y01607D01*
X00119Y01603D01*
X00123D01*
X00127Y01599D01*
X006081Y01598D02*
X006121Y01602D01*
X006161D01*
X006121Y01606D01*
X006161Y0161D01*
X006121D01*
X006081Y01614D01*
X006041Y0161D01*
X006001D01*
X006041Y01606D01*
X006001Y01602D01*
X006041D01*
X006081Y01598D01*
X008433Y01575D02*
X008473Y01579D01*
X008513D01*
X008473Y01583D01*
X008513Y01587D01*
X008473D01*
X008433Y01591D01*
X008393Y01587D01*
X008353D01*
X008393Y01583D01*
X008353Y01579D01*
X008393D01*
X008433Y01575D01*
X007933Y01581D02*
X007973Y01585D01*
X008013D01*
X007973Y01589D01*
X008013Y01593D01*
X007973D01*
X007933Y01597D01*
X007893Y01593D01*
X007853D01*
X007893Y01589D01*
X007853Y01585D01*
X007893D01*
X007933Y01581D01*
X007433Y01597D02*
X007473Y01601D01*
X007513D01*
X007473Y01605D01*
X007513Y01609D01*
X007473D01*
X007433Y01613D01*
X007393Y01609D01*
X007353D01*
X007393Y01605D01*
X007353Y01601D01*
X007393D01*
X007433Y01597D01*
X006933D02*
X006973Y01601D01*
X007013D01*
X006973Y01605D01*
X007013Y01609D01*
X006973D01*
X006933Y01613D01*
X006893Y01609D01*
X006853D01*
X006893Y01605D01*
X006853Y01601D01*
X006893D01*
X006933Y01597D01*
X006433D02*
X006473Y01601D01*
X006513D01*
X006473Y01605D01*
X006513Y01609D01*
X006473D01*
X006433Y01613D01*
X006393Y01609D01*
X006353D01*
X006393Y01605D01*
X006353Y01601D01*
X006393D01*
X006433Y01597D01*
X010882Y010242D02*
Y010202D01*
X010962D01*
Y010242D01*
X011002D01*
Y010322D01*
X010962D01*
Y010362D01*
X010882D01*
Y010322D01*
X010842D01*
Y010242D01*
X010882D01*
X01938Y011008D02*
Y010968D01*
X01946D01*
Y011008D01*
X0195D01*
Y011088D01*
X01946D01*
Y011128D01*
X01938D01*
Y011088D01*
X01934D01*
Y011008D01*
X01938D01*
X01693Y01012D02*
Y01008D01*
X01701D01*
Y01012D01*
X01705D01*
Y0102D01*
X01701D01*
Y01024D01*
X01693D01*
Y0102D01*
X01689D01*
Y01012D01*
X01693D01*
X0176Y01056D02*
Y01052D01*
X01768D01*
Y01056D01*
X01772D01*
Y01064D01*
X01768D01*
Y01068D01*
X0176D01*
Y01064D01*
X01756D01*
Y01056D01*
X0176D01*
D76*
X030795Y02004D02*
G03*
X030795Y02004I-00008J0D01*
G01*
Y02204D02*
G03*
X030795Y02204I-00008J0D01*
G01*
Y02404D02*
G03*
X030795Y02404I-00008J0D01*
G01*
X03079Y02838D02*
G03*
X03079Y02838I-00008J0D01*
G01*
Y02638D02*
G03*
X03079Y02638I-00008J0D01*
G01*
M02*
