M48
;Layer_Color=9474304
;FILE_FORMAT=2:4
INCH,LZ
;TYPE=PLATED
T1F00S00C0.0070
T2F00S00C0.0150
T3F00S00C0.0200
T4F00S00C0.0250
T5F00S00C0.0300
T6F00S00C0.0360
T7F00S00C0.0394
T8F00S00C0.0433
T9F00S00C0.1181
;TYPE=NON_PLATED
T10F00S00C0.1181
%
T01
X052125Y023815
X05269Y023795
X053335
X0533Y02695
X0518Y0265
X0511Y0266
X0509Y02615
Y02715
X05072Y0274
X0505Y02765
X05185Y02825
X0533Y029
Y029788
X04925Y03095
X04815Y031169
X0458Y029591
X04595Y0294
X04461Y02958
X044924Y029895
X04459Y030215
X0438Y0299
X04355
X04081Y03078
X04039Y02943
X040393Y02891
X040373Y028345
X03807Y028135
X03684Y028145
X03807Y026355
X038715
X03928Y026335
X039335Y023825
X03869
X038125Y023845
X0423Y02665
X0443Y0261
X04625Y02664
X0462Y027853
X04675Y028261
X04305Y0315
X04355Y033071
X0438Y033271
X043219Y03508
X042574
X042009Y0351
X04075Y033
X0407Y03265
X0409Y03235
X03837Y0343
X03594Y03426
X0475Y03405
X04775Y033226
X047Y032369
X04965Y032401
X0497Y032675
X0499Y0318
X05015Y03155
X04945Y0313
X05075Y03385
X051Y03415
X05124Y03362
X05142Y03337
X05249Y034526
Y03525
X05259Y037294
X052025Y037314
X053235Y037294
T02
X04363Y02428
X04345Y02925
X04425Y03355
T03
X039981Y03675
X046Y03405
Y03355
Y03305
Y03255
Y03205
T04
X04128Y02505
T05
X047125Y024841
X047913
X0487
X049487
X050275
X051062
X05185
X052637
X053424
X055Y026278
Y027066
Y027853
Y028641
Y029428
Y030215
Y031003
X046338Y024841
X04555
X044763
X044747Y036441
X045534
X046321
X047109
X047896
X048684
X049471
X050258
X051046
X051833
X052621
X053408
X055Y03494
Y034152
Y033365
Y032578
Y03179
T06
X0354Y029
X03641
T07
X0424Y035888
Y036888
T08
X0374Y03165
X038581
Y032831
X0374
T09
X05512Y0244
Y03679
T10
X035668Y032241
M30
