G04*
G04 #@! TF.GenerationSoftware,Altium Limited,Altium Designer,19.0.4 (130)*
G04*
G04 Layer_Color=128*
%FSTAX24Y24*%
%MOIN*%
G70*
G01*
G75*
%ADD96C,0.0020*%
D96*
X044613Y024841D02*
X044913D01*
X044763Y024691D02*
Y024991D01*
X0454Y024841D02*
X0457D01*
X04555Y024691D02*
Y024991D01*
X046188Y024841D02*
X046488D01*
X046338Y024691D02*
Y024991D01*
X046975Y024841D02*
X047275D01*
X047125Y024691D02*
Y024991D01*
X047763Y024841D02*
X048063D01*
X047913Y024691D02*
Y024991D01*
X04855Y024841D02*
X04885D01*
X0487Y024691D02*
Y024991D01*
X049337Y024841D02*
X049637D01*
X049487Y024691D02*
Y024991D01*
X050125Y024841D02*
X050425D01*
X050275Y024691D02*
Y024991D01*
X050912Y024841D02*
X051212D01*
X051062Y024691D02*
Y024991D01*
X0517Y024841D02*
X052D01*
X05185Y024691D02*
Y024991D01*
X052487Y024841D02*
X052787D01*
X052637Y024691D02*
Y024991D01*
X053274Y024841D02*
X053574D01*
X053424Y024691D02*
Y024991D01*
X044597Y036441D02*
X044897D01*
X044747Y036291D02*
Y036591D01*
X045384Y036441D02*
X045684D01*
X045534Y036291D02*
Y036591D01*
X046171Y036441D02*
X046471D01*
X046321Y036291D02*
Y036591D01*
X046959Y036441D02*
X047259D01*
X047109Y036291D02*
Y036591D01*
X047746Y036441D02*
X048046D01*
X047896Y036291D02*
Y036591D01*
X048534Y036441D02*
X048834D01*
X048684Y036291D02*
Y036591D01*
X049321Y036441D02*
X049621D01*
X049471Y036291D02*
Y036591D01*
X050108Y036441D02*
X050408D01*
X050258Y036291D02*
Y036591D01*
X050896Y036441D02*
X051196D01*
X051046Y036291D02*
Y036591D01*
X051683Y036441D02*
X051983D01*
X051833Y036291D02*
Y036591D01*
X052471Y036441D02*
X052771D01*
X052621Y036291D02*
Y036591D01*
X053258Y036441D02*
X053558D01*
X053408Y036291D02*
Y036591D01*
X05485Y026278D02*
X05515D01*
X055Y026128D02*
Y026428D01*
X05485Y027066D02*
X05515D01*
X055Y026916D02*
Y027216D01*
X05485Y027853D02*
X05515D01*
X055Y027703D02*
Y028003D01*
X05485Y028641D02*
X05515D01*
X055Y028491D02*
Y028791D01*
X05485Y029428D02*
X05515D01*
X055Y029278D02*
Y029578D01*
X05485Y030215D02*
X05515D01*
X055Y030065D02*
Y030365D01*
X05485Y031003D02*
X05515D01*
X055Y030853D02*
Y031153D01*
X05485Y03179D02*
X05515D01*
X055Y03164D02*
Y03194D01*
X05485Y032578D02*
X05515D01*
X055Y032428D02*
Y032728D01*
X05485Y033365D02*
X05515D01*
X055Y033215D02*
Y033515D01*
X05485Y034152D02*
X05515D01*
X055Y034002D02*
Y034302D01*
X05485Y03494D02*
X05515D01*
X055Y03479D02*
Y03509D01*
X0459Y03205D02*
X0461D01*
X046Y03195D02*
Y03215D01*
X0459Y03255D02*
X0461D01*
X046Y03245D02*
Y03265D01*
X0459Y03305D02*
X0461D01*
X046Y03295D02*
Y03315D01*
X0459Y03355D02*
X0461D01*
X046Y03345D02*
Y03365D01*
X0459Y03405D02*
X0461D01*
X046Y03395D02*
Y03415D01*
X042203Y035888D02*
X042597D01*
X0424Y035691D02*
Y036085D01*
X042203Y036888D02*
X042597D01*
X0424Y036691D02*
Y037085D01*
X035077Y032241D02*
X036258D01*
X035668Y03165D02*
Y032831D01*
X038365Y03165D02*
X038798D01*
X038581Y031433D02*
Y031867D01*
X037183Y03165D02*
X037617D01*
X0374Y031433D02*
Y031867D01*
X038365Y032831D02*
X038798D01*
X038581Y032615D02*
Y033048D01*
X037183Y032831D02*
X037617D01*
X0374Y032615D02*
Y033048D01*
X03623Y029D02*
X03659D01*
X03641Y02882D02*
Y02918D01*
X03522Y029D02*
X03558D01*
X0354Y02882D02*
Y02918D01*
X0532Y037294D02*
X05327D01*
X053235Y037259D02*
Y037329D01*
X052555Y037294D02*
X052625D01*
X05259Y037259D02*
Y037329D01*
X05199Y037314D02*
X05206D01*
X052025Y037279D02*
Y037349D01*
X0393Y023825D02*
X03937D01*
X039335Y02379D02*
Y02386D01*
X038655Y023825D02*
X038725D01*
X03869Y02379D02*
Y02386D01*
X03809Y023845D02*
X03816D01*
X038125Y02381D02*
Y02388D01*
X0533Y023795D02*
X05337D01*
X053335Y02376D02*
Y02383D01*
X052655Y023795D02*
X052725D01*
X05269Y02376D02*
Y02383D01*
X05209Y023815D02*
X05216D01*
X052125Y02378D02*
Y02385D01*
X043184Y03508D02*
X043254D01*
X043219Y035045D02*
Y035115D01*
X042539Y03508D02*
X042609D01*
X042574Y035045D02*
Y035115D01*
X041974Y0351D02*
X042044D01*
X042009Y035065D02*
Y035135D01*
X040338Y028345D02*
X040408D01*
X040373Y02831D02*
Y02838D01*
X040358Y02891D02*
X040428D01*
X040393Y028875D02*
Y028945D01*
X039245Y026335D02*
X039315D01*
X03928Y0263D02*
Y02637D01*
X03868Y026355D02*
X03875D01*
X038715Y02632D02*
Y02639D01*
X038035Y026355D02*
X038105D01*
X03807Y02632D02*
Y02639D01*
X038035Y028135D02*
X038105D01*
X03807Y0281D02*
Y02817D01*
X036805Y028145D02*
X036875D01*
X03684Y02811D02*
Y02818D01*
X040355Y02943D02*
X040425D01*
X04039Y029395D02*
Y029465D01*
X035905Y03426D02*
X035975D01*
X03594Y034225D02*
Y034295D01*
X054529Y03679D02*
X055711D01*
X05512Y036199D02*
Y037381D01*
X054529Y0244D02*
X055711D01*
X05512Y023809D02*
Y024991D01*
X041155Y02505D02*
X041405D01*
X04128Y024925D02*
Y025175D01*
X043555Y02428D02*
X043705D01*
X04363Y024205D02*
Y024355D01*
X040775Y03078D02*
X040845D01*
X04081Y030745D02*
Y030815D01*
X049665Y032675D02*
X049735D01*
X0497Y03264D02*
Y03271D01*
X049615Y032401D02*
X049685D01*
X04965Y032366D02*
Y032436D01*
X051205Y03362D02*
X051275D01*
X05124Y033585D02*
Y033655D01*
X051385Y03337D02*
X051455D01*
X05142Y033335D02*
Y033405D01*
X042265Y02665D02*
X042335D01*
X0423Y026615D02*
Y026685D01*
X046215Y02664D02*
X046285D01*
X04625Y026605D02*
Y026675D01*
X044889Y029895D02*
X044959D01*
X044924Y02986D02*
Y02993D01*
X040715Y033D02*
X040785D01*
X04075Y032965D02*
Y033035D01*
X043765Y033271D02*
X043835D01*
X0438Y033236D02*
Y033306D01*
X043015Y0315D02*
X043085D01*
X04305Y031465D02*
Y031535D01*
X047715Y033226D02*
X047785D01*
X04775Y033191D02*
Y033261D01*
X039881Y03675D02*
X040081D01*
X039981Y03665D02*
Y03685D01*
X051815Y02825D02*
X051885D01*
X05185Y028215D02*
Y028285D01*
X046715Y028261D02*
X046785D01*
X04675Y028226D02*
Y028296D01*
X044175Y03355D02*
X044325D01*
X04425Y033475D02*
Y033625D01*
X043375Y02925D02*
X043525D01*
X04345Y029175D02*
Y029325D01*
X053265Y02695D02*
X053335D01*
X0533Y026915D02*
Y026985D01*
X051765Y0265D02*
X051835D01*
X0518Y026465D02*
Y026535D01*
X053265Y029D02*
X053335D01*
X0533Y028965D02*
Y029035D01*
X053265Y029788D02*
X053335D01*
X0533Y029753D02*
Y029823D01*
X048115Y031169D02*
X048185D01*
X04815Y031134D02*
Y031204D01*
X050965Y03415D02*
X051035D01*
X051Y034115D02*
Y034185D01*
X050715Y03385D02*
X050785D01*
X05075Y033815D02*
Y033885D01*
X046165Y027853D02*
X046235D01*
X0462Y027818D02*
Y027888D01*
X050865Y02615D02*
X050935D01*
X0509Y026115D02*
Y026185D01*
X038335Y0343D02*
X038405D01*
X03837Y034265D02*
Y034335D01*
X044555Y030215D02*
X044625D01*
X04459Y03018D02*
Y03025D01*
X044575Y02958D02*
X044645D01*
X04461Y029545D02*
Y029615D01*
X044265Y0261D02*
X044335D01*
X0443Y026065D02*
Y026135D01*
X052455Y03525D02*
X052525D01*
X05249Y035215D02*
Y035285D01*
X052455Y034526D02*
X052525D01*
X05249Y034491D02*
Y034561D01*
X047465Y03405D02*
X047535D01*
X0475Y034015D02*
Y034085D01*
X040665Y03265D02*
X040735D01*
X0407Y032615D02*
Y032685D01*
X040865Y03235D02*
X040935D01*
X0409Y032315D02*
Y032385D01*
X049415Y0313D02*
X049485D01*
X04945Y031265D02*
Y031335D01*
X050115Y03155D02*
X050185D01*
X05015Y031515D02*
Y031585D01*
X049865Y0318D02*
X049935D01*
X0499Y031765D02*
Y031835D01*
X045915Y0294D02*
X045985D01*
X04595Y029365D02*
Y029435D01*
X045765Y029591D02*
X045835D01*
X0458Y029556D02*
Y029626D01*
X051065Y0266D02*
X051135D01*
X0511Y026565D02*
Y026635D01*
X043515Y033071D02*
X043585D01*
X04355Y033036D02*
Y033106D01*
X043515Y0299D02*
X043585D01*
X04355Y029865D02*
Y029935D01*
X050865Y02715D02*
X050935D01*
X0509Y027115D02*
Y027185D01*
X050685Y0274D02*
X050755D01*
X05072Y027365D02*
Y027435D01*
X050465Y02765D02*
X050535D01*
X0505Y027615D02*
Y027685D01*
X043765Y0299D02*
X043835D01*
X0438Y029865D02*
Y029935D01*
X049215Y03095D02*
X049285D01*
X04925Y030915D02*
Y030985D01*
X046965Y032369D02*
X047035D01*
X047Y032334D02*
Y032404D01*
M02*
