G04*
G04 #@! TF.GenerationSoftware,Altium Limited,Altium Designer,19.0.4 (130)*
G04*
G04 Layer_Color=2752767*
%FSTAX24Y24*%
%MOIN*%
G70*
G01*
G75*
%ADD96C,0.0020*%
%ADD97C,0.0027*%
%ADD98C,0.0013*%
D96*
X044683Y024761D02*
Y024921D01*
X044843D01*
Y024761D01*
X044683D01*
X04547D02*
Y024921D01*
X04563D01*
Y024761D01*
X04547D01*
X046258D02*
Y024921D01*
X046418D01*
Y024761D01*
X046258D01*
X047045D02*
Y024921D01*
X047205D01*
Y024761D01*
X047045D01*
X047833D02*
Y024921D01*
X047993D01*
Y024761D01*
X047833D01*
X04862D02*
Y024921D01*
X04878D01*
Y024761D01*
X04862D01*
X049407D02*
Y024921D01*
X049567D01*
Y024761D01*
X049407D01*
X050195D02*
Y024921D01*
X050355D01*
Y024761D01*
X050195D01*
X050982D02*
Y024921D01*
X051142D01*
Y024761D01*
X050982D01*
X05177D02*
Y024921D01*
X05193D01*
Y024761D01*
X05177D01*
X052557D02*
Y024921D01*
X052717D01*
Y024761D01*
X052557D01*
X053344D02*
Y024921D01*
X053504D01*
Y024761D01*
X053344D01*
X044667Y036361D02*
Y036521D01*
X044827D01*
Y036361D01*
X044667D01*
X045454D02*
Y036521D01*
X045614D01*
Y036361D01*
X045454D01*
X046241D02*
Y036521D01*
X046401D01*
Y036361D01*
X046241D01*
X047029D02*
Y036521D01*
X047189D01*
Y036361D01*
X047029D01*
X047816D02*
Y036521D01*
X047976D01*
Y036361D01*
X047816D01*
X048604D02*
Y036521D01*
X048764D01*
Y036361D01*
X048604D01*
X049391D02*
Y036521D01*
X049551D01*
Y036361D01*
X049391D01*
X050178D02*
Y036521D01*
X050338D01*
Y036361D01*
X050178D01*
X050966D02*
Y036521D01*
X051126D01*
Y036361D01*
X050966D01*
X051753D02*
Y036521D01*
X051913D01*
Y036361D01*
X051753D01*
X052541D02*
Y036521D01*
X052701D01*
Y036361D01*
X052541D01*
X053328D02*
Y036521D01*
X053488D01*
Y036361D01*
X053328D01*
X05492Y026198D02*
Y026358D01*
X05508D01*
Y026198D01*
X05492D01*
Y026986D02*
Y027146D01*
X05508D01*
Y026986D01*
X05492D01*
Y027773D02*
Y027933D01*
X05508D01*
Y027773D01*
X05492D01*
Y028561D02*
Y028721D01*
X05508D01*
Y028561D01*
X05492D01*
Y029348D02*
Y029508D01*
X05508D01*
Y029348D01*
X05492D01*
Y030135D02*
Y030295D01*
X05508D01*
Y030135D01*
X05492D01*
Y030923D02*
Y031083D01*
X05508D01*
Y030923D01*
X05492D01*
Y03171D02*
Y03187D01*
X05508D01*
Y03171D01*
X05492D01*
Y032498D02*
Y032658D01*
X05508D01*
Y032498D01*
X05492D01*
Y033285D02*
Y033445D01*
X05508D01*
Y033285D01*
X05492D01*
Y034072D02*
Y034232D01*
X05508D01*
Y034072D01*
X05492D01*
Y03486D02*
Y03502D01*
X05508D01*
Y03486D01*
X05492D01*
X0424Y035808D02*
X04232Y035968D01*
X04248D01*
X0424Y035808D01*
Y036808D02*
X04232Y036968D01*
X04248D01*
X0424Y036808D01*
X035668Y03216D02*
X035708Y032201D01*
X035748D01*
X035708Y032241D01*
X035748Y03228D01*
X035708D01*
X035668Y03232D01*
X035628Y03228D01*
X035588D01*
X035628Y032241D01*
X035588Y032201D01*
X035628D01*
X035668Y03216D01*
X038501Y03157D02*
X038541Y03165D01*
X038501Y03173D01*
X038581Y03169D01*
X038661Y03173D01*
X038621Y03165D01*
X038661Y03157D01*
X038581Y03161D01*
X038501Y03157D01*
X03732D02*
X03736Y03165D01*
X03732Y03173D01*
X0374Y03169D01*
X03748Y03173D01*
X03744Y03165D01*
X03748Y03157D01*
X0374Y03161D01*
X03732Y03157D01*
X038501Y032751D02*
X038541Y032831D01*
X038501Y032911D01*
X038581Y032871D01*
X038661Y032911D01*
X038621Y032831D01*
X038661Y032751D01*
X038581Y032791D01*
X038501Y032751D01*
X03732D02*
X03736Y032831D01*
X03732Y032911D01*
X0374Y032871D01*
X03748Y032911D01*
X03744Y032831D01*
X03748Y032751D01*
X0374Y032791D01*
X03732Y032751D01*
X03637Y02896D02*
Y02892D01*
X03645D01*
Y02896D01*
X03649D01*
Y02904D01*
X03645D01*
Y02908D01*
X03637D01*
Y02904D01*
X03633D01*
Y02896D01*
X03637D01*
X03536D02*
Y02892D01*
X03544D01*
Y02896D01*
X03548D01*
Y02904D01*
X03544D01*
Y02908D01*
X03536D01*
Y02904D01*
X03532D01*
Y02896D01*
X03536D01*
X053155Y037214D02*
X053195D01*
X053235Y037254D01*
X053275Y037214D01*
X053315D01*
Y037254D01*
X053275Y037294D01*
X053315Y037334D01*
Y037374D01*
X053275D01*
X053235Y037334D01*
X053195Y037374D01*
X053155D01*
Y037334D01*
X053195Y037294D01*
X053155Y037254D01*
Y037214D01*
X05251D02*
X05255D01*
X05259Y037254D01*
X05263Y037214D01*
X05267D01*
Y037254D01*
X05263Y037294D01*
X05267Y037334D01*
Y037374D01*
X05263D01*
X05259Y037334D01*
X05255Y037374D01*
X05251D01*
Y037334D01*
X05255Y037294D01*
X05251Y037254D01*
Y037214D01*
X051945Y037234D02*
X051985D01*
X052025Y037274D01*
X052065Y037234D01*
X052105D01*
Y037274D01*
X052065Y037314D01*
X052105Y037354D01*
Y037394D01*
X052065D01*
X052025Y037354D01*
X051985Y037394D01*
X051945D01*
Y037354D01*
X051985Y037314D01*
X051945Y037274D01*
Y037234D01*
X039255Y023745D02*
X039295D01*
X039335Y023785D01*
X039375Y023745D01*
X039415D01*
Y023785D01*
X039375Y023825D01*
X039415Y023865D01*
Y023905D01*
X039375D01*
X039335Y023865D01*
X039295Y023905D01*
X039255D01*
Y023865D01*
X039295Y023825D01*
X039255Y023785D01*
Y023745D01*
X03861D02*
X03865D01*
X03869Y023785D01*
X03873Y023745D01*
X03877D01*
Y023785D01*
X03873Y023825D01*
X03877Y023865D01*
Y023905D01*
X03873D01*
X03869Y023865D01*
X03865Y023905D01*
X03861D01*
Y023865D01*
X03865Y023825D01*
X03861Y023785D01*
Y023745D01*
X038045Y023765D02*
X038085D01*
X038125Y023805D01*
X038165Y023765D01*
X038205D01*
Y023805D01*
X038165Y023845D01*
X038205Y023885D01*
Y023925D01*
X038165D01*
X038125Y023885D01*
X038085Y023925D01*
X038045D01*
Y023885D01*
X038085Y023845D01*
X038045Y023805D01*
Y023765D01*
X053255Y023715D02*
X053295D01*
X053335Y023755D01*
X053375Y023715D01*
X053415D01*
Y023755D01*
X053375Y023795D01*
X053415Y023835D01*
Y023875D01*
X053375D01*
X053335Y023835D01*
X053295Y023875D01*
X053255D01*
Y023835D01*
X053295Y023795D01*
X053255Y023755D01*
Y023715D01*
X05261D02*
X05265D01*
X05269Y023755D01*
X05273Y023715D01*
X05277D01*
Y023755D01*
X05273Y023795D01*
X05277Y023835D01*
Y023875D01*
X05273D01*
X05269Y023835D01*
X05265Y023875D01*
X05261D01*
Y023835D01*
X05265Y023795D01*
X05261Y023755D01*
Y023715D01*
X052045Y023735D02*
X052085D01*
X052125Y023775D01*
X052165Y023735D01*
X052205D01*
Y023775D01*
X052165Y023815D01*
X052205Y023855D01*
Y023895D01*
X052165D01*
X052125Y023855D01*
X052085Y023895D01*
X052045D01*
Y023855D01*
X052085Y023815D01*
X052045Y023775D01*
Y023735D01*
X043139Y035D02*
X043179D01*
X043219Y03504D01*
X043259Y035D01*
X043299D01*
Y03504D01*
X043259Y03508D01*
X043299Y03512D01*
Y03516D01*
X043259D01*
X043219Y03512D01*
X043179Y03516D01*
X043139D01*
Y03512D01*
X043179Y03508D01*
X043139Y03504D01*
Y035D01*
X042494D02*
X042534D01*
X042574Y03504D01*
X042614Y035D01*
X042654D01*
Y03504D01*
X042614Y03508D01*
X042654Y03512D01*
Y03516D01*
X042614D01*
X042574Y03512D01*
X042534Y03516D01*
X042494D01*
Y03512D01*
X042534Y03508D01*
X042494Y03504D01*
Y035D01*
X041929Y03502D02*
X041969D01*
X042009Y03506D01*
X042049Y03502D01*
X042089D01*
Y03506D01*
X042049Y0351D01*
X042089Y03514D01*
Y03518D01*
X042049D01*
X042009Y03514D01*
X041969Y03518D01*
X041929D01*
Y03514D01*
X041969Y0351D01*
X041929Y03506D01*
Y03502D01*
X040293Y028265D02*
X040333D01*
X040373Y028305D01*
X040413Y028265D01*
X040453D01*
Y028305D01*
X040413Y028345D01*
X040453Y028385D01*
Y028425D01*
X040413D01*
X040373Y028385D01*
X040333Y028425D01*
X040293D01*
Y028385D01*
X040333Y028345D01*
X040293Y028305D01*
Y028265D01*
X040313Y02883D02*
X040353D01*
X040393Y02887D01*
X040433Y02883D01*
X040473D01*
Y02887D01*
X040433Y02891D01*
X040473Y02895D01*
Y02899D01*
X040433D01*
X040393Y02895D01*
X040353Y02899D01*
X040313D01*
Y02895D01*
X040353Y02891D01*
X040313Y02887D01*
Y02883D01*
X0392Y026255D02*
X03924D01*
X03928Y026295D01*
X03932Y026255D01*
X03936D01*
Y026295D01*
X03932Y026335D01*
X03936Y026375D01*
Y026415D01*
X03932D01*
X03928Y026375D01*
X03924Y026415D01*
X0392D01*
Y026375D01*
X03924Y026335D01*
X0392Y026295D01*
Y026255D01*
X038635Y026275D02*
X038675D01*
X038715Y026315D01*
X038755Y026275D01*
X038795D01*
Y026315D01*
X038755Y026355D01*
X038795Y026395D01*
Y026435D01*
X038755D01*
X038715Y026395D01*
X038675Y026435D01*
X038635D01*
Y026395D01*
X038675Y026355D01*
X038635Y026315D01*
Y026275D01*
X03799D02*
X03803D01*
X03807Y026315D01*
X03811Y026275D01*
X03815D01*
Y026315D01*
X03811Y026355D01*
X03815Y026395D01*
Y026435D01*
X03811D01*
X03807Y026395D01*
X03803Y026435D01*
X03799D01*
Y026395D01*
X03803Y026355D01*
X03799Y026315D01*
Y026275D01*
Y028055D02*
X03803D01*
X03807Y028095D01*
X03811Y028055D01*
X03815D01*
Y028095D01*
X03811Y028135D01*
X03815Y028175D01*
Y028215D01*
X03811D01*
X03807Y028175D01*
X03803Y028215D01*
X03799D01*
Y028175D01*
X03803Y028135D01*
X03799Y028095D01*
Y028055D01*
X03676Y028065D02*
X0368D01*
X03684Y028105D01*
X03688Y028065D01*
X03692D01*
Y028105D01*
X03688Y028145D01*
X03692Y028185D01*
Y028225D01*
X03688D01*
X03684Y028185D01*
X0368Y028225D01*
X03676D01*
Y028185D01*
X0368Y028145D01*
X03676Y028105D01*
Y028065D01*
X04031Y02935D02*
X04035D01*
X04039Y02939D01*
X04043Y02935D01*
X04047D01*
Y02939D01*
X04043Y02943D01*
X04047Y02947D01*
Y02951D01*
X04043D01*
X04039Y02947D01*
X04035Y02951D01*
X04031D01*
Y02947D01*
X04035Y02943D01*
X04031Y02939D01*
Y02935D01*
X03586Y03418D02*
X0359D01*
X03594Y03422D01*
X03598Y03418D01*
X03602D01*
Y03422D01*
X03598Y03426D01*
X03602Y0343D01*
Y03434D01*
X03598D01*
X03594Y0343D01*
X0359Y03434D01*
X03586D01*
Y0343D01*
X0359Y03426D01*
X03586Y03422D01*
Y03418D01*
X05504Y03679D02*
X05512Y03687D01*
X0552Y03679D01*
X05512Y03671D01*
X05504Y03679D01*
Y0244D02*
X05512Y02448D01*
X0552Y0244D01*
X05512Y02432D01*
X05504Y0244D01*
X0412Y02497D02*
Y02513D01*
X04136D01*
Y02497D01*
X0412D01*
X04124Y02501D02*
Y02509D01*
X04132D01*
Y02501D01*
X04124D01*
X04073Y0307D02*
X04077D01*
X04081Y03074D01*
X04085Y0307D01*
X04089D01*
Y03074D01*
X04085Y03078D01*
X04089Y03082D01*
Y03086D01*
X04085D01*
X04081Y03082D01*
X04077Y03086D01*
X04073D01*
Y03082D01*
X04077Y03078D01*
X04073Y03074D01*
Y0307D01*
X04962Y032595D02*
X04966D01*
X0497Y032635D01*
X04974Y032595D01*
X04978D01*
Y032635D01*
X04974Y032675D01*
X04978Y032715D01*
Y032755D01*
X04974D01*
X0497Y032715D01*
X04966Y032755D01*
X04962D01*
Y032715D01*
X04966Y032675D01*
X04962Y032635D01*
Y032595D01*
X04957Y032321D02*
X04961D01*
X04965Y032361D01*
X04969Y032321D01*
X04973D01*
Y032361D01*
X04969Y032401D01*
X04973Y032441D01*
Y032481D01*
X04969D01*
X04965Y032441D01*
X04961Y032481D01*
X04957D01*
Y032441D01*
X04961Y032401D01*
X04957Y032361D01*
Y032321D01*
X05116Y03354D02*
X0512D01*
X05124Y03358D01*
X05128Y03354D01*
X05132D01*
Y03358D01*
X05128Y03362D01*
X05132Y03366D01*
Y0337D01*
X05128D01*
X05124Y03366D01*
X0512Y0337D01*
X05116D01*
Y03366D01*
X0512Y03362D01*
X05116Y03358D01*
Y03354D01*
X05134Y03329D02*
X05138D01*
X05142Y03333D01*
X05146Y03329D01*
X0515D01*
Y03333D01*
X05146Y03337D01*
X0515Y03341D01*
Y03345D01*
X05146D01*
X05142Y03341D01*
X05138Y03345D01*
X05134D01*
Y03341D01*
X05138Y03337D01*
X05134Y03333D01*
Y03329D01*
X04222Y02657D02*
X04226D01*
X0423Y02661D01*
X04234Y02657D01*
X04238D01*
Y02661D01*
X04234Y02665D01*
X04238Y02669D01*
Y02673D01*
X04234D01*
X0423Y02669D01*
X04226Y02673D01*
X04222D01*
Y02669D01*
X04226Y02665D01*
X04222Y02661D01*
Y02657D01*
X04617Y02656D02*
X04621D01*
X04625Y0266D01*
X04629Y02656D01*
X04633D01*
Y0266D01*
X04629Y02664D01*
X04633Y02668D01*
Y02672D01*
X04629D01*
X04625Y02668D01*
X04621Y02672D01*
X04617D01*
Y02668D01*
X04621Y02664D01*
X04617Y0266D01*
Y02656D01*
X044844Y029815D02*
X044884D01*
X044924Y029855D01*
X044964Y029815D01*
X045004D01*
Y029855D01*
X044964Y029895D01*
X045004Y029935D01*
Y029975D01*
X044964D01*
X044924Y029935D01*
X044884Y029975D01*
X044844D01*
Y029935D01*
X044884Y029895D01*
X044844Y029855D01*
Y029815D01*
X04067Y03292D02*
X04071D01*
X04075Y03296D01*
X04079Y03292D01*
X04083D01*
Y03296D01*
X04079Y033D01*
X04083Y03304D01*
Y03308D01*
X04079D01*
X04075Y03304D01*
X04071Y03308D01*
X04067D01*
Y03304D01*
X04071Y033D01*
X04067Y03296D01*
Y03292D01*
X04372Y033191D02*
X04376D01*
X0438Y033231D01*
X04384Y033191D01*
X04388D01*
Y033231D01*
X04384Y033271D01*
X04388Y033311D01*
Y033351D01*
X04384D01*
X0438Y033311D01*
X04376Y033351D01*
X04372D01*
Y033311D01*
X04376Y033271D01*
X04372Y033231D01*
Y033191D01*
X04297Y03142D02*
X04301D01*
X04305Y03146D01*
X04309Y03142D01*
X04313D01*
Y03146D01*
X04309Y0315D01*
X04313Y03154D01*
Y03158D01*
X04309D01*
X04305Y03154D01*
X04301Y03158D01*
X04297D01*
Y03154D01*
X04301Y0315D01*
X04297Y03146D01*
Y03142D01*
X04767Y033146D02*
X04771D01*
X04775Y033186D01*
X04779Y033146D01*
X04783D01*
Y033186D01*
X04779Y033226D01*
X04783Y033266D01*
Y033306D01*
X04779D01*
X04775Y033266D01*
X04771Y033306D01*
X04767D01*
Y033266D01*
X04771Y033226D01*
X04767Y033186D01*
Y033146D01*
X05177Y02817D02*
X05181D01*
X05185Y02821D01*
X05189Y02817D01*
X05193D01*
Y02821D01*
X05189Y02825D01*
X05193Y02829D01*
Y02833D01*
X05189D01*
X05185Y02829D01*
X05181Y02833D01*
X05177D01*
Y02829D01*
X05181Y02825D01*
X05177Y02821D01*
Y02817D01*
X04667Y028181D02*
X04671D01*
X04675Y028221D01*
X04679Y028181D01*
X04683D01*
Y028221D01*
X04679Y028261D01*
X04683Y028301D01*
Y028341D01*
X04679D01*
X04675Y028301D01*
X04671Y028341D01*
X04667D01*
Y028301D01*
X04671Y028261D01*
X04667Y028221D01*
Y028181D01*
X05322Y02687D02*
X05326D01*
X0533Y02691D01*
X05334Y02687D01*
X05338D01*
Y02691D01*
X05334Y02695D01*
X05338Y02699D01*
Y02703D01*
X05334D01*
X0533Y02699D01*
X05326Y02703D01*
X05322D01*
Y02699D01*
X05326Y02695D01*
X05322Y02691D01*
Y02687D01*
X05172Y02642D02*
X05176D01*
X0518Y02646D01*
X05184Y02642D01*
X05188D01*
Y02646D01*
X05184Y0265D01*
X05188Y02654D01*
Y02658D01*
X05184D01*
X0518Y02654D01*
X05176Y02658D01*
X05172D01*
Y02654D01*
X05176Y0265D01*
X05172Y02646D01*
Y02642D01*
X05322Y02892D02*
X05326D01*
X0533Y02896D01*
X05334Y02892D01*
X05338D01*
Y02896D01*
X05334Y029D01*
X05338Y02904D01*
Y02908D01*
X05334D01*
X0533Y02904D01*
X05326Y02908D01*
X05322D01*
Y02904D01*
X05326Y029D01*
X05322Y02896D01*
Y02892D01*
Y029708D02*
X05326D01*
X0533Y029748D01*
X05334Y029708D01*
X05338D01*
Y029748D01*
X05334Y029788D01*
X05338Y029828D01*
Y029868D01*
X05334D01*
X0533Y029828D01*
X05326Y029868D01*
X05322D01*
Y029828D01*
X05326Y029788D01*
X05322Y029748D01*
Y029708D01*
X04807Y031089D02*
X04811D01*
X04815Y031129D01*
X04819Y031089D01*
X04823D01*
Y031129D01*
X04819Y031169D01*
X04823Y031209D01*
Y031249D01*
X04819D01*
X04815Y031209D01*
X04811Y031249D01*
X04807D01*
Y031209D01*
X04811Y031169D01*
X04807Y031129D01*
Y031089D01*
X05092Y03407D02*
X05096D01*
X051Y03411D01*
X05104Y03407D01*
X05108D01*
Y03411D01*
X05104Y03415D01*
X05108Y03419D01*
Y03423D01*
X05104D01*
X051Y03419D01*
X05096Y03423D01*
X05092D01*
Y03419D01*
X05096Y03415D01*
X05092Y03411D01*
Y03407D01*
X05067Y03377D02*
X05071D01*
X05075Y03381D01*
X05079Y03377D01*
X05083D01*
Y03381D01*
X05079Y03385D01*
X05083Y03389D01*
Y03393D01*
X05079D01*
X05075Y03389D01*
X05071Y03393D01*
X05067D01*
Y03389D01*
X05071Y03385D01*
X05067Y03381D01*
Y03377D01*
X04612Y027773D02*
X04616D01*
X0462Y027813D01*
X04624Y027773D01*
X04628D01*
Y027813D01*
X04624Y027853D01*
X04628Y027893D01*
Y027933D01*
X04624D01*
X0462Y027893D01*
X04616Y027933D01*
X04612D01*
Y027893D01*
X04616Y027853D01*
X04612Y027813D01*
Y027773D01*
X05082Y02607D02*
X05086D01*
X0509Y02611D01*
X05094Y02607D01*
X05098D01*
Y02611D01*
X05094Y02615D01*
X05098Y02619D01*
Y02623D01*
X05094D01*
X0509Y02619D01*
X05086Y02623D01*
X05082D01*
Y02619D01*
X05086Y02615D01*
X05082Y02611D01*
Y02607D01*
X03829Y03422D02*
X03833D01*
X03837Y03426D01*
X03841Y03422D01*
X03845D01*
Y03426D01*
X03841Y0343D01*
X03845Y03434D01*
Y03438D01*
X03841D01*
X03837Y03434D01*
X03833Y03438D01*
X03829D01*
Y03434D01*
X03833Y0343D01*
X03829Y03426D01*
Y03422D01*
X04451Y030135D02*
X04455D01*
X04459Y030175D01*
X04463Y030135D01*
X04467D01*
Y030175D01*
X04463Y030215D01*
X04467Y030255D01*
Y030295D01*
X04463D01*
X04459Y030255D01*
X04455Y030295D01*
X04451D01*
Y030255D01*
X04455Y030215D01*
X04451Y030175D01*
Y030135D01*
X04453Y0295D02*
X04457D01*
X04461Y02954D01*
X04465Y0295D01*
X04469D01*
Y02954D01*
X04465Y02958D01*
X04469Y02962D01*
Y02966D01*
X04465D01*
X04461Y02962D01*
X04457Y02966D01*
X04453D01*
Y02962D01*
X04457Y02958D01*
X04453Y02954D01*
Y0295D01*
X04422Y02602D02*
X04426D01*
X0443Y02606D01*
X04434Y02602D01*
X04438D01*
Y02606D01*
X04434Y0261D01*
X04438Y02614D01*
Y02618D01*
X04434D01*
X0443Y02614D01*
X04426Y02618D01*
X04422D01*
Y02614D01*
X04426Y0261D01*
X04422Y02606D01*
Y02602D01*
X05241Y03517D02*
X05245D01*
X05249Y03521D01*
X05253Y03517D01*
X05257D01*
Y03521D01*
X05253Y03525D01*
X05257Y03529D01*
Y03533D01*
X05253D01*
X05249Y03529D01*
X05245Y03533D01*
X05241D01*
Y03529D01*
X05245Y03525D01*
X05241Y03521D01*
Y03517D01*
Y034446D02*
X05245D01*
X05249Y034486D01*
X05253Y034446D01*
X05257D01*
Y034486D01*
X05253Y034526D01*
X05257Y034566D01*
Y034606D01*
X05253D01*
X05249Y034566D01*
X05245Y034606D01*
X05241D01*
Y034566D01*
X05245Y034526D01*
X05241Y034486D01*
Y034446D01*
X04742Y03397D02*
X04746D01*
X0475Y03401D01*
X04754Y03397D01*
X04758D01*
Y03401D01*
X04754Y03405D01*
X04758Y03409D01*
Y03413D01*
X04754D01*
X0475Y03409D01*
X04746Y03413D01*
X04742D01*
Y03409D01*
X04746Y03405D01*
X04742Y03401D01*
Y03397D01*
X04062Y03257D02*
X04066D01*
X0407Y03261D01*
X04074Y03257D01*
X04078D01*
Y03261D01*
X04074Y03265D01*
X04078Y03269D01*
Y03273D01*
X04074D01*
X0407Y03269D01*
X04066Y03273D01*
X04062D01*
Y03269D01*
X04066Y03265D01*
X04062Y03261D01*
Y03257D01*
X04082Y03227D02*
X04086D01*
X0409Y03231D01*
X04094Y03227D01*
X04098D01*
Y03231D01*
X04094Y03235D01*
X04098Y03239D01*
Y03243D01*
X04094D01*
X0409Y03239D01*
X04086Y03243D01*
X04082D01*
Y03239D01*
X04086Y03235D01*
X04082Y03231D01*
Y03227D01*
X04937Y03122D02*
X04941D01*
X04945Y03126D01*
X04949Y03122D01*
X04953D01*
Y03126D01*
X04949Y0313D01*
X04953Y03134D01*
Y03138D01*
X04949D01*
X04945Y03134D01*
X04941Y03138D01*
X04937D01*
Y03134D01*
X04941Y0313D01*
X04937Y03126D01*
Y03122D01*
X05007Y03147D02*
X05011D01*
X05015Y03151D01*
X05019Y03147D01*
X05023D01*
Y03151D01*
X05019Y03155D01*
X05023Y03159D01*
Y03163D01*
X05019D01*
X05015Y03159D01*
X05011Y03163D01*
X05007D01*
Y03159D01*
X05011Y03155D01*
X05007Y03151D01*
Y03147D01*
X04982Y03172D02*
X04986D01*
X0499Y03176D01*
X04994Y03172D01*
X04998D01*
Y03176D01*
X04994Y0318D01*
X04998Y03184D01*
Y03188D01*
X04994D01*
X0499Y03184D01*
X04986Y03188D01*
X04982D01*
Y03184D01*
X04986Y0318D01*
X04982Y03176D01*
Y03172D01*
X04587Y02932D02*
X04591D01*
X04595Y02936D01*
X04599Y02932D01*
X04603D01*
Y02936D01*
X04599Y0294D01*
X04603Y02944D01*
Y02948D01*
X04599D01*
X04595Y02944D01*
X04591Y02948D01*
X04587D01*
Y02944D01*
X04591Y0294D01*
X04587Y02936D01*
Y02932D01*
X04572Y029511D02*
X04576D01*
X0458Y029551D01*
X04584Y029511D01*
X04588D01*
Y029551D01*
X04584Y029591D01*
X04588Y029631D01*
Y029671D01*
X04584D01*
X0458Y029631D01*
X04576Y029671D01*
X04572D01*
Y029631D01*
X04576Y029591D01*
X04572Y029551D01*
Y029511D01*
X05102Y02652D02*
X05106D01*
X0511Y02656D01*
X05114Y02652D01*
X05118D01*
Y02656D01*
X05114Y0266D01*
X05118Y02664D01*
Y02668D01*
X05114D01*
X0511Y02664D01*
X05106Y02668D01*
X05102D01*
Y02664D01*
X05106Y0266D01*
X05102Y02656D01*
Y02652D01*
X04347Y032991D02*
X04351D01*
X04355Y033031D01*
X04359Y032991D01*
X04363D01*
Y033031D01*
X04359Y033071D01*
X04363Y033111D01*
Y033151D01*
X04359D01*
X04355Y033111D01*
X04351Y033151D01*
X04347D01*
Y033111D01*
X04351Y033071D01*
X04347Y033031D01*
Y032991D01*
X04347Y02982D02*
X04351D01*
X04355Y02986D01*
X04359Y02982D01*
X04363D01*
Y02986D01*
X04359Y0299D01*
X04363Y02994D01*
Y02998D01*
X04359D01*
X04355Y02994D01*
X04351Y02998D01*
X04347D01*
Y02994D01*
X04351Y0299D01*
X04347Y02986D01*
Y02982D01*
X05082Y02707D02*
X05086D01*
X0509Y02711D01*
X05094Y02707D01*
X05098D01*
Y02711D01*
X05094Y02715D01*
X05098Y02719D01*
Y02723D01*
X05094D01*
X0509Y02719D01*
X05086Y02723D01*
X05082D01*
Y02719D01*
X05086Y02715D01*
X05082Y02711D01*
Y02707D01*
X05064Y02732D02*
X05068D01*
X05072Y02736D01*
X05076Y02732D01*
X0508D01*
Y02736D01*
X05076Y0274D01*
X0508Y02744D01*
Y02748D01*
X05076D01*
X05072Y02744D01*
X05068Y02748D01*
X05064D01*
Y02744D01*
X05068Y0274D01*
X05064Y02736D01*
Y02732D01*
X05042Y02757D02*
X05046D01*
X0505Y02761D01*
X05054Y02757D01*
X05058D01*
Y02761D01*
X05054Y02765D01*
X05058Y02769D01*
Y02773D01*
X05054D01*
X0505Y02769D01*
X05046Y02773D01*
X05042D01*
Y02769D01*
X05046Y02765D01*
X05042Y02761D01*
Y02757D01*
X04372Y02982D02*
X04376D01*
X0438Y02986D01*
X04384Y02982D01*
X04388D01*
Y02986D01*
X04384Y0299D01*
X04388Y02994D01*
Y02998D01*
X04384D01*
X0438Y02994D01*
X04376Y02998D01*
X04372D01*
Y02994D01*
X04376Y0299D01*
X04372Y02986D01*
Y02982D01*
X04917Y03087D02*
X04921D01*
X04925Y03091D01*
X04929Y03087D01*
X04933D01*
Y03091D01*
X04929Y03095D01*
X04933Y03099D01*
Y03103D01*
X04929D01*
X04925Y03099D01*
X04921Y03103D01*
X04917D01*
Y03099D01*
X04921Y03095D01*
X04917Y03091D01*
Y03087D01*
X04692Y032289D02*
X04696D01*
X047Y032329D01*
X04704Y032289D01*
X04708D01*
Y032329D01*
X04704Y032369D01*
X04708Y032409D01*
Y032449D01*
X04704D01*
X047Y032409D01*
X04696Y032449D01*
X04692D01*
Y032409D01*
X04696Y032369D01*
X04692Y032329D01*
Y032289D01*
D97*
X04608Y03205D02*
G03*
X04608Y03205I-00008J0D01*
G01*
Y03255D02*
G03*
X04608Y03255I-00008J0D01*
G01*
Y03305D02*
G03*
X04608Y03305I-00008J0D01*
G01*
Y03355D02*
G03*
X04608Y03355I-00008J0D01*
G01*
Y03405D02*
G03*
X04608Y03405I-00008J0D01*
G01*
X04371Y02428D02*
G03*
X04371Y02428I-00008J0D01*
G01*
X040061Y03675D02*
G03*
X040061Y03675I-00008J0D01*
G01*
X04433Y03355D02*
G03*
X04433Y03355I-00008J0D01*
G01*
X04353Y02925D02*
G03*
X04353Y02925I-00008J0D01*
G01*
D98*
X04367Y02428D02*
G03*
X04367Y02428I-00004J0D01*
G01*
X04429Y03355D02*
G03*
X04429Y03355I-00004J0D01*
G01*
X04349Y02925D02*
G03*
X04349Y02925I-00004J0D01*
G01*
M02*
