G04*
G04 #@! TF.GenerationSoftware,Altium Limited,Altium Designer,19.0.4 (130)*
G04*
G04 Layer_Color=8421504*
%FSTAX24Y24*%
%MOIN*%
G70*
G01*
G75*
%ADD24R,0.0472X0.0225*%
%ADD25R,0.0572X0.1000*%
%ADD26R,0.0709X0.0394*%
%ADD27R,0.0787X0.0827*%
%ADD28R,0.0748X0.0630*%
%ADD29R,0.0531X0.0157*%
%ADD30R,0.0748X0.0472*%
%ADD31R,0.0700X0.0700*%
%ADD32R,0.0984X0.0472*%
%ADD33R,0.0433X0.0304*%
%ADD34R,0.0304X0.0433*%
%ADD35R,0.0550X0.0110*%
G04:AMPARAMS|DCode=36|XSize=11.8mil|YSize=82.7mil|CornerRadius=0mil|HoleSize=0mil|Usage=FLASHONLY|Rotation=135.000|XOffset=0mil|YOffset=0mil|HoleType=Round|Shape=Round|*
%AMOVALD36*
21,1,0.0709,0.0118,0.0000,0.0000,225.0*
1,1,0.0118,0.0251,0.0251*
1,1,0.0118,-0.0251,-0.0251*
%
%ADD36OVALD36*%

G04:AMPARAMS|DCode=37|XSize=11.8mil|YSize=82.7mil|CornerRadius=0mil|HoleSize=0mil|Usage=FLASHONLY|Rotation=45.000|XOffset=0mil|YOffset=0mil|HoleType=Round|Shape=Round|*
%AMOVALD37*
21,1,0.0709,0.0118,0.0000,0.0000,135.0*
1,1,0.0118,0.0251,-0.0251*
1,1,0.0118,-0.0251,0.0251*
%
%ADD37OVALD37*%

%ADD38O,0.0079X0.0456*%
%ADD39O,0.0456X0.0079*%
%ADD40R,0.0630X0.0689*%
%ADD41R,0.0335X0.0472*%
%ADD42R,0.0472X0.0717*%
%ADD43R,0.0700X0.0700*%
G36*
X042387Y033127D02*
Y032674D01*
X042013D01*
Y033127D01*
X042387D01*
D02*
G37*
D24*
X03845Y026965D02*
D03*
X03844Y027555D02*
D03*
X03845Y028145D02*
D03*
D25*
X039762Y027555D02*
D03*
D26*
X0459Y03045D02*
D03*
Y03145D02*
D03*
D27*
X036775Y027036D02*
D03*
Y024595D02*
D03*
D28*
X03585Y02743D02*
D03*
Y024201D02*
D03*
D29*
X036903Y025304D02*
D03*
Y025559D02*
D03*
Y025815D02*
D03*
Y026071D02*
D03*
Y026327D02*
D03*
D30*
X03585Y02615D02*
D03*
Y025481D02*
D03*
D31*
X0416Y0285D02*
D03*
X043D02*
D03*
X0405Y0251D02*
D03*
X038728D02*
D03*
D32*
X04295Y02705D02*
D03*
X04145D02*
D03*
D33*
X04577Y034564D02*
D03*
Y035234D02*
D03*
X04363Y037024D02*
D03*
Y036354D02*
D03*
X03497Y034754D02*
D03*
Y035424D02*
D03*
X03837Y034714D02*
D03*
Y035384D02*
D03*
X05189Y027094D02*
D03*
Y027764D02*
D03*
X04672Y027104D02*
D03*
Y027774D02*
D03*
X046338Y034564D02*
D03*
Y035234D02*
D03*
X038505Y029571D02*
D03*
Y028901D02*
D03*
X03915Y029571D02*
D03*
Y028901D02*
D03*
X053Y035237D02*
D03*
Y034567D02*
D03*
D34*
X044254Y030209D02*
D03*
X044924D02*
D03*
X044254Y02958D02*
D03*
X044924D02*
D03*
X044254Y027695D02*
D03*
X044924D02*
D03*
X044254Y028952D02*
D03*
X044924D02*
D03*
X044254Y027067D02*
D03*
X044924D02*
D03*
X044254Y028324D02*
D03*
X044924D02*
D03*
X040416Y03377D02*
D03*
X039746D02*
D03*
X044254Y031465D02*
D03*
X044924D02*
D03*
X044254Y032722D02*
D03*
X044924D02*
D03*
X044254Y030837D02*
D03*
X044924D02*
D03*
X041854Y03148D02*
D03*
X042524D02*
D03*
X044254Y032094D02*
D03*
X044924D02*
D03*
D35*
X04306Y029591D02*
D03*
Y029788D02*
D03*
Y029985D02*
D03*
Y030182D02*
D03*
Y030379D02*
D03*
Y030576D02*
D03*
Y030773D02*
D03*
Y03097D02*
D03*
X04134D02*
D03*
Y030773D02*
D03*
Y030576D02*
D03*
Y030379D02*
D03*
Y030182D02*
D03*
Y029985D02*
D03*
Y029788D02*
D03*
Y029591D02*
D03*
D36*
X047618Y030699D02*
D03*
X047757Y03056D02*
D03*
X047896Y030421D02*
D03*
X048035Y030281D02*
D03*
X048175Y030142D02*
D03*
X048314Y030003D02*
D03*
X048453Y029864D02*
D03*
X048592Y029725D02*
D03*
X048731Y029585D02*
D03*
X048871Y029446D02*
D03*
X04901Y029307D02*
D03*
X049149Y029168D02*
D03*
X051682Y031701D02*
D03*
X051543Y03184D02*
D03*
X051404Y031979D02*
D03*
X051265Y032119D02*
D03*
X051125Y032258D02*
D03*
X050986Y032397D02*
D03*
X050847Y032536D02*
D03*
X050708Y032675D02*
D03*
X050569Y032815D02*
D03*
X050429Y032954D02*
D03*
X05029Y033093D02*
D03*
X050151Y033232D02*
D03*
D37*
Y029168D02*
D03*
X05029Y029307D02*
D03*
X050429Y029446D02*
D03*
X050569Y029585D02*
D03*
X050708Y029725D02*
D03*
X050847Y029864D02*
D03*
X050986Y030003D02*
D03*
X051125Y030142D02*
D03*
X051265Y030281D02*
D03*
X051404Y030421D02*
D03*
X051543Y03056D02*
D03*
X051682Y030699D02*
D03*
X049149Y033232D02*
D03*
X04901Y033093D02*
D03*
X048871Y032954D02*
D03*
X048731Y032815D02*
D03*
X048592Y032675D02*
D03*
X048453Y032536D02*
D03*
X048314Y032397D02*
D03*
X048175Y032258D02*
D03*
X048035Y032119D02*
D03*
X047896Y031979D02*
D03*
X047757Y03184D02*
D03*
X047618Y031701D02*
D03*
D38*
X042594Y0336D02*
D03*
X042436D02*
D03*
X042279D02*
D03*
X042121D02*
D03*
X041964D02*
D03*
X041806D02*
D03*
Y0322D02*
D03*
X041964D02*
D03*
X042121D02*
D03*
X042279D02*
D03*
X042436D02*
D03*
X042594D02*
D03*
D39*
X0415Y033294D02*
D03*
Y033136D02*
D03*
Y032979D02*
D03*
Y032821D02*
D03*
Y032664D02*
D03*
Y032506D02*
D03*
X0429D02*
D03*
Y032664D02*
D03*
Y032821D02*
D03*
Y032979D02*
D03*
Y033136D02*
D03*
Y033294D02*
D03*
D40*
X0422Y0329D02*
D03*
D41*
X03605Y035749D02*
D03*
X03642Y034767D02*
D03*
X035676Y034765D02*
D03*
X03945Y035738D02*
D03*
X03982Y034756D02*
D03*
X039076Y034754D02*
D03*
D42*
X041827Y02423D02*
D03*
X043013D02*
D03*
X041827Y02508D02*
D03*
X043013D02*
D03*
D43*
X0374Y034978D02*
D03*
Y036749D02*
D03*
X04085Y034964D02*
D03*
Y036736D02*
D03*
M02*
