G04*
G04 #@! TF.GenerationSoftware,Altium Limited,Altium Designer,19.0.4 (130)*
G04*
G04 Layer_Color=8388736*
%FSTAX24Y24*%
%MOIN*%
G70*
G01*
G75*
%ADD44R,0.0552X0.0305*%
%ADD45R,0.0652X0.1080*%
%ADD46R,0.0789X0.0474*%
%ADD47R,0.0867X0.0907*%
%ADD48R,0.0828X0.0710*%
%ADD49R,0.0611X0.0237*%
%ADD50R,0.0828X0.0552*%
%ADD51R,0.0780X0.0780*%
%ADD52R,0.1064X0.0552*%
%ADD53R,0.0513X0.0384*%
%ADD54R,0.0384X0.0513*%
%ADD55R,0.0630X0.0190*%
G04:AMPARAMS|DCode=56|XSize=19.8mil|YSize=90.7mil|CornerRadius=0mil|HoleSize=0mil|Usage=FLASHONLY|Rotation=135.000|XOffset=0mil|YOffset=0mil|HoleType=Round|Shape=Round|*
%AMOVALD56*
21,1,0.0709,0.0198,0.0000,0.0000,225.0*
1,1,0.0198,0.0251,0.0251*
1,1,0.0198,-0.0251,-0.0251*
%
%ADD56OVALD56*%

G04:AMPARAMS|DCode=57|XSize=19.8mil|YSize=90.7mil|CornerRadius=0mil|HoleSize=0mil|Usage=FLASHONLY|Rotation=45.000|XOffset=0mil|YOffset=0mil|HoleType=Round|Shape=Round|*
%AMOVALD57*
21,1,0.0709,0.0198,0.0000,0.0000,135.0*
1,1,0.0198,0.0251,-0.0251*
1,1,0.0198,-0.0251,0.0251*
%
%ADD57OVALD57*%

%ADD58O,0.0159X0.0536*%
%ADD59O,0.0536X0.0159*%
%ADD60R,0.0710X0.0769*%
%ADD61R,0.0415X0.0552*%
%ADD62R,0.0552X0.0797*%
%ADD63R,0.0780X0.0780*%
%ADD64R,0.0572X0.0572*%
%ADD65C,0.0572*%
%ADD66R,0.0572X0.0572*%
%ADD67O,0.0464X0.0380*%
%ADD68R,0.0464X0.0380*%
%ADD69C,0.0730*%
%ADD70R,0.0730X0.0730*%
%ADD71C,0.1261*%
%ADD72C,0.0907*%
%ADD73O,0.0730X0.0880*%
%ADD74R,0.0730X0.0880*%
%ADD75C,0.1655*%
D44*
X03845Y026965D02*
D03*
X03844Y027555D02*
D03*
X03845Y028145D02*
D03*
D45*
X039762Y027555D02*
D03*
D46*
X0459Y03045D02*
D03*
Y03145D02*
D03*
D47*
X036775Y027036D02*
D03*
Y024595D02*
D03*
D48*
X03585Y02743D02*
D03*
Y024201D02*
D03*
D49*
X036903Y025304D02*
D03*
Y025559D02*
D03*
Y025815D02*
D03*
Y026071D02*
D03*
Y026327D02*
D03*
D50*
X03585Y02615D02*
D03*
Y025481D02*
D03*
D51*
X0416Y0285D02*
D03*
X043D02*
D03*
X0405Y0251D02*
D03*
X038728D02*
D03*
D52*
X04295Y02705D02*
D03*
X04145D02*
D03*
D53*
X04577Y034564D02*
D03*
Y035234D02*
D03*
X04363Y037024D02*
D03*
Y036354D02*
D03*
X03497Y034754D02*
D03*
Y035424D02*
D03*
X03837Y034714D02*
D03*
Y035384D02*
D03*
X05189Y027094D02*
D03*
Y027764D02*
D03*
X04672Y027104D02*
D03*
Y027774D02*
D03*
X046338Y034564D02*
D03*
Y035234D02*
D03*
X038505Y029571D02*
D03*
Y028901D02*
D03*
X03915Y029571D02*
D03*
Y028901D02*
D03*
X053Y035237D02*
D03*
Y034567D02*
D03*
D54*
X044254Y030209D02*
D03*
X044924D02*
D03*
X044254Y02958D02*
D03*
X044924D02*
D03*
X044254Y027695D02*
D03*
X044924D02*
D03*
X044254Y028952D02*
D03*
X044924D02*
D03*
X044254Y027067D02*
D03*
X044924D02*
D03*
X044254Y028324D02*
D03*
X044924D02*
D03*
X040416Y03377D02*
D03*
X039746D02*
D03*
X044254Y031465D02*
D03*
X044924D02*
D03*
X044254Y032722D02*
D03*
X044924D02*
D03*
X044254Y030837D02*
D03*
X044924D02*
D03*
X041854Y03148D02*
D03*
X042524D02*
D03*
X044254Y032094D02*
D03*
X044924D02*
D03*
D55*
X04306Y029591D02*
D03*
Y029788D02*
D03*
Y029985D02*
D03*
Y030182D02*
D03*
Y030379D02*
D03*
Y030576D02*
D03*
Y030773D02*
D03*
Y03097D02*
D03*
X04134D02*
D03*
Y030773D02*
D03*
Y030576D02*
D03*
Y030379D02*
D03*
Y030182D02*
D03*
Y029985D02*
D03*
Y029788D02*
D03*
Y029591D02*
D03*
D56*
X047618Y030699D02*
D03*
X047757Y03056D02*
D03*
X047896Y030421D02*
D03*
X048035Y030281D02*
D03*
X048175Y030142D02*
D03*
X048314Y030003D02*
D03*
X048453Y029864D02*
D03*
X048592Y029725D02*
D03*
X048731Y029585D02*
D03*
X048871Y029446D02*
D03*
X04901Y029307D02*
D03*
X049149Y029168D02*
D03*
X051682Y031701D02*
D03*
X051543Y03184D02*
D03*
X051404Y031979D02*
D03*
X051265Y032119D02*
D03*
X051125Y032258D02*
D03*
X050986Y032397D02*
D03*
X050847Y032536D02*
D03*
X050708Y032675D02*
D03*
X050569Y032815D02*
D03*
X050429Y032954D02*
D03*
X05029Y033093D02*
D03*
X050151Y033232D02*
D03*
D57*
Y029168D02*
D03*
X05029Y029307D02*
D03*
X050429Y029446D02*
D03*
X050569Y029585D02*
D03*
X050708Y029725D02*
D03*
X050847Y029864D02*
D03*
X050986Y030003D02*
D03*
X051125Y030142D02*
D03*
X051265Y030281D02*
D03*
X051404Y030421D02*
D03*
X051543Y03056D02*
D03*
X051682Y030699D02*
D03*
X049149Y033232D02*
D03*
X04901Y033093D02*
D03*
X048871Y032954D02*
D03*
X048731Y032815D02*
D03*
X048592Y032675D02*
D03*
X048453Y032536D02*
D03*
X048314Y032397D02*
D03*
X048175Y032258D02*
D03*
X048035Y032119D02*
D03*
X047896Y031979D02*
D03*
X047757Y03184D02*
D03*
X047618Y031701D02*
D03*
D58*
X042594Y0336D02*
D03*
X042436D02*
D03*
X042279D02*
D03*
X042121D02*
D03*
X041964D02*
D03*
X041806D02*
D03*
Y0322D02*
D03*
X041964D02*
D03*
X042121D02*
D03*
X042279D02*
D03*
X042436D02*
D03*
X042594D02*
D03*
D59*
X0415Y033294D02*
D03*
Y033136D02*
D03*
Y032979D02*
D03*
Y032821D02*
D03*
Y032664D02*
D03*
Y032506D02*
D03*
X0429D02*
D03*
Y032664D02*
D03*
Y032821D02*
D03*
Y032979D02*
D03*
Y033136D02*
D03*
Y033294D02*
D03*
D60*
X0422Y0329D02*
D03*
D61*
X03605Y035749D02*
D03*
X03642Y034767D02*
D03*
X035676Y034765D02*
D03*
X03945Y035738D02*
D03*
X03982Y034756D02*
D03*
X039076Y034754D02*
D03*
D62*
X041827Y02423D02*
D03*
X043013D02*
D03*
X041827Y02508D02*
D03*
X043013D02*
D03*
D63*
X0374Y034978D02*
D03*
Y036749D02*
D03*
X04085Y034964D02*
D03*
Y036736D02*
D03*
D64*
X044763Y024841D02*
D03*
X044747Y036441D02*
D03*
D65*
X04555Y024841D02*
D03*
X046338D02*
D03*
X047125D02*
D03*
X047913D02*
D03*
X0487D02*
D03*
X049487D02*
D03*
X050275D02*
D03*
X051062D02*
D03*
X05185D02*
D03*
X052637D02*
D03*
X053424D02*
D03*
X045534Y036441D02*
D03*
X046321D02*
D03*
X047109D02*
D03*
X047896D02*
D03*
X048684D02*
D03*
X049471D02*
D03*
X050258D02*
D03*
X051046D02*
D03*
X051833D02*
D03*
X052621D02*
D03*
X053408D02*
D03*
X055Y027066D02*
D03*
Y027853D02*
D03*
Y028641D02*
D03*
Y029428D02*
D03*
Y030215D02*
D03*
Y031003D02*
D03*
Y03179D02*
D03*
Y032578D02*
D03*
Y033365D02*
D03*
Y034152D02*
D03*
Y03494D02*
D03*
D66*
Y026278D02*
D03*
D67*
X046Y03205D02*
D03*
Y03255D02*
D03*
Y03305D02*
D03*
Y03355D02*
D03*
D68*
Y03405D02*
D03*
D69*
X0424Y035888D02*
D03*
D70*
Y036888D02*
D03*
D71*
X035668Y032241D02*
D03*
D72*
X038581Y03165D02*
D03*
X0374D02*
D03*
X038581Y032831D02*
D03*
X0374D02*
D03*
D73*
X03641Y029D02*
D03*
D74*
X0354D02*
D03*
D75*
X05512Y03679D02*
D03*
Y0244D02*
D03*
M02*
