G04*
G04 #@! TF.GenerationSoftware,Altium Limited,Altium Designer,19.0.4 (130)*
G04*
G04 Layer_Color=128*
%FSTAX24Y24*%
%MOIN*%
G70*
G01*
G75*
%ADD75C,0.0020*%
D75*
X030478Y03392D02*
X030951D01*
X030715Y033684D02*
Y034156D01*
X028978Y030298D02*
X029451D01*
X029215Y030062D02*
Y030534D01*
X027478Y03392D02*
X027951D01*
X027715Y033684D02*
Y034156D01*
X025978Y030298D02*
X026451D01*
X026215Y030062D02*
Y030534D01*
X024478Y03392D02*
X024951D01*
X024715Y033684D02*
Y034156D01*
X022978Y030298D02*
X023451D01*
X023215Y030062D02*
Y030534D01*
X021478Y03392D02*
X021951D01*
X021715Y033684D02*
Y034156D01*
X019978Y030298D02*
X020451D01*
X020215Y030062D02*
Y030534D01*
X018478Y03392D02*
X018951D01*
X018715Y033684D02*
Y034156D01*
X016978Y030298D02*
X017451D01*
X017215Y030062D02*
Y030534D01*
X015478Y03392D02*
X015951D01*
X015715Y033684D02*
Y034156D01*
X013978Y030298D02*
X014451D01*
X014215Y030062D02*
Y030534D01*
X012478Y03392D02*
X012951D01*
X012715Y033684D02*
Y034156D01*
X010978Y030298D02*
X011451D01*
X011215Y030062D02*
Y030534D01*
X009478Y03392D02*
X009951D01*
X009715Y033684D02*
Y034156D01*
X007978Y030298D02*
X008451D01*
X008215Y030062D02*
Y030534D01*
X006478Y03392D02*
X006951D01*
X006715Y033684D02*
Y034156D01*
X004978Y030298D02*
X005451D01*
X005215Y030062D02*
Y030534D01*
X003478Y03392D02*
X003951D01*
X003715Y033684D02*
Y034156D01*
X001978Y030298D02*
X002451D01*
X002215Y030062D02*
Y030534D01*
X030465Y02004D02*
X030965D01*
X030715Y01979D02*
Y02029D01*
X030465Y02204D02*
X030965D01*
X030715Y02179D02*
Y02229D01*
X030465Y02404D02*
X030965D01*
X030715Y02379D02*
Y02429D01*
X03046Y02838D02*
X03096D01*
X03071Y02813D02*
Y02863D01*
X03046Y02638D02*
X03096D01*
X03071Y02613D02*
Y02663D01*
X019384Y00934D02*
X019684D01*
X019534Y00919D02*
Y00949D01*
X018597Y00934D02*
X018897D01*
X018747Y00919D02*
Y00949D01*
X01781Y00934D02*
X01811D01*
X01796Y00919D02*
Y00949D01*
X017022Y00934D02*
X017322D01*
X017172Y00919D02*
Y00949D01*
X016235Y00934D02*
X016535D01*
X016385Y00919D02*
Y00949D01*
X015447Y00934D02*
X015747D01*
X015597Y00919D02*
Y00949D01*
X01466Y00934D02*
X01496D01*
X01481Y00919D02*
Y00949D01*
X013873Y00934D02*
X014173D01*
X014023Y00919D02*
Y00949D01*
X013085Y00934D02*
X013385D01*
X013235Y00919D02*
Y00949D01*
X012298Y00934D02*
X012598D01*
X012448Y00919D02*
Y00949D01*
X01151Y00934D02*
X01181D01*
X01166Y00919D02*
Y00949D01*
X010723Y00934D02*
X011023D01*
X010873Y00919D02*
Y00949D01*
X010707Y02094D02*
X011007D01*
X010857Y02079D02*
Y02109D01*
X011494Y02094D02*
X011794D01*
X011644Y02079D02*
Y02109D01*
X012281Y02094D02*
X012581D01*
X012431Y02079D02*
Y02109D01*
X013069Y02094D02*
X013369D01*
X013219Y02079D02*
Y02109D01*
X013856Y02094D02*
X014156D01*
X014006Y02079D02*
Y02109D01*
X014644Y02094D02*
X014944D01*
X014794Y02079D02*
Y02109D01*
X015431Y02094D02*
X015731D01*
X015581Y02079D02*
Y02109D01*
X016218Y02094D02*
X016518D01*
X016368Y02079D02*
Y02109D01*
X017006Y02094D02*
X017306D01*
X017156Y02079D02*
Y02109D01*
X017793Y02094D02*
X018093D01*
X017943Y02079D02*
Y02109D01*
X018581Y02094D02*
X018881D01*
X018731Y02079D02*
Y02109D01*
X019368Y02094D02*
X019668D01*
X019518Y02079D02*
Y02109D01*
X030394Y007182D02*
X030866D01*
X03063Y006946D02*
Y007418D01*
X028894Y00356D02*
X029366D01*
X02913Y003324D02*
Y003796D01*
X027394Y007182D02*
X027866D01*
X02763Y006946D02*
Y007418D01*
X025894Y00356D02*
X026366D01*
X02613Y003324D02*
Y003796D01*
X024394Y007182D02*
X024866D01*
X02463Y006946D02*
Y007418D01*
X022894Y00356D02*
X023366D01*
X02313Y003324D02*
Y003796D01*
X021394Y007182D02*
X021866D01*
X02163Y006946D02*
Y007418D01*
X019894Y00356D02*
X020366D01*
X02013Y003324D02*
Y003796D01*
X018394Y007182D02*
X018866D01*
X01863Y006946D02*
Y007418D01*
X016894Y00356D02*
X017366D01*
X01713Y003324D02*
Y003796D01*
X015394Y007182D02*
X015866D01*
X01563Y006946D02*
Y007418D01*
X013894Y00356D02*
X014366D01*
X01413Y003324D02*
Y003796D01*
X012394Y007182D02*
X012866D01*
X01263Y006946D02*
Y007418D01*
X010894Y00356D02*
X011366D01*
X01113Y003324D02*
Y003796D01*
X009394Y007182D02*
X009866D01*
X00963Y006946D02*
Y007418D01*
X007894Y00356D02*
X008366D01*
X00813Y003324D02*
Y003796D01*
X006394Y007182D02*
X006866D01*
X00663Y006946D02*
Y007418D01*
X004894Y00356D02*
X005366D01*
X00513Y003324D02*
Y003796D01*
X003394Y007182D02*
X003866D01*
X00363Y006946D02*
Y007418D01*
X001894Y00356D02*
X002366D01*
X00213Y003324D02*
Y003796D01*
X02126Y01288D02*
X02136D01*
X02131Y01283D02*
Y01293D01*
X0098Y00591D02*
X0099D01*
X00985Y00586D02*
Y00596D01*
X009259Y00591D02*
X009359D01*
X009309Y00586D02*
Y00596D01*
X010341Y00591D02*
X010441D01*
X010391Y00586D02*
Y00596D01*
X026367Y004865D02*
X026467D01*
X026417Y004815D02*
Y004915D01*
X025285Y004865D02*
X025385D01*
X025335Y004815D02*
Y004915D01*
X025826Y004865D02*
X025926D01*
X025876Y004815D02*
Y004915D01*
X025347Y009155D02*
X025447D01*
X025397Y009105D02*
Y009205D01*
X009829Y01744D02*
X009929D01*
X009879Y01739D02*
Y01749D01*
X004872Y017755D02*
X004972D01*
X004922Y017705D02*
Y017805D01*
X003887Y018543D02*
X003987D01*
X003937Y018493D02*
Y018593D01*
X004007Y01264D02*
X004107D01*
X004057Y01259D02*
Y01269D01*
X001257Y014735D02*
X001357D01*
X001307Y014685D02*
Y014785D01*
X0077Y011899D02*
X0078D01*
X00775Y011849D02*
Y011949D01*
X00859Y009985D02*
X00869D01*
X00864Y009935D02*
Y010035D01*
X024077Y019615D02*
X024177D01*
X024127Y019565D02*
Y019665D01*
X018427Y019395D02*
X018527D01*
X018477Y019345D02*
Y019445D01*
X02493Y0146D02*
X02503D01*
X02498Y01455D02*
Y01465D01*
X020307Y016995D02*
X020407D01*
X020357Y016945D02*
Y017045D01*
X027687Y02491D02*
X027787D01*
X027737Y02486D02*
Y02496D01*
X026057Y02491D02*
X026157D01*
X026107Y02486D02*
Y02496D01*
X024393Y02491D02*
X024493D01*
X024443Y02486D02*
Y02496D01*
X02273Y02491D02*
X02283D01*
X02278Y02486D02*
Y02496D01*
X021067Y02491D02*
X021167D01*
X021117Y02486D02*
Y02496D01*
X019403Y02491D02*
X019503D01*
X019453Y02486D02*
Y02496D01*
X01774Y02491D02*
X01784D01*
X01779Y02486D02*
Y02496D01*
X016077Y02491D02*
X016177D01*
X016127Y02486D02*
Y02496D01*
X014363Y02491D02*
X014463D01*
X014413Y02486D02*
Y02496D01*
X01275Y02491D02*
X01285D01*
X0128Y02486D02*
Y02496D01*
X011087Y02491D02*
X011187D01*
X011137Y02486D02*
Y02496D01*
X009423Y02491D02*
X009523D01*
X009473Y02486D02*
Y02496D01*
X009423Y02491D02*
X009523D01*
X009473Y02486D02*
Y02496D01*
X00776Y02491D02*
X00786D01*
X00781Y02486D02*
Y02496D01*
X006097Y02491D02*
X006197D01*
X006147Y02486D02*
Y02496D01*
X004433Y02491D02*
X004533D01*
X004483Y02486D02*
Y02496D01*
X001107Y02491D02*
X001207D01*
X001157Y02486D02*
Y02496D01*
X00277Y02491D02*
X00287D01*
X00282Y02486D02*
Y02496D01*
X00284Y01291D02*
X00294D01*
X00289Y01286D02*
Y01296D01*
X0053Y01273D02*
X0054D01*
X00535Y01268D02*
Y01278D01*
X00593Y01298D02*
X00603D01*
X00598Y01293D02*
Y01303D01*
X00485Y01298D02*
X00495D01*
X0049Y01293D02*
Y01303D01*
X00664Y01194D02*
X00674D01*
X00669Y01189D02*
Y01199D01*
X00983Y01269D02*
X00993D01*
X00988Y01264D02*
Y01274D01*
X005143Y01605D02*
X005243D01*
X005193Y016D02*
Y0161D01*
X004643Y01605D02*
X004743D01*
X004693Y016D02*
Y0161D01*
X004143Y01605D02*
X004243D01*
X004193Y016D02*
Y0161D01*
X003643Y01605D02*
X003743D01*
X003693Y016D02*
Y0161D01*
X003143Y01605D02*
X003243D01*
X003193Y016D02*
Y0161D01*
X002643Y01605D02*
X002743D01*
X002693Y016D02*
Y0161D01*
X002143Y01605D02*
X002243D01*
X002193Y016D02*
Y0161D01*
X00563Y016069D02*
X00573D01*
X00568Y016019D02*
Y016119D01*
X001015Y017655D02*
X001115D01*
X001065Y017605D02*
Y017705D01*
X023835Y00929D02*
X023985D01*
X02391Y009215D02*
Y009365D01*
X00023Y01955D02*
X00033D01*
X00028Y0195D02*
Y0196D01*
X002245Y020525D02*
X002345D01*
X002295Y020475D02*
Y020575D01*
X0227Y01984D02*
X0228D01*
X02275Y01979D02*
Y01989D01*
X00473Y02077D02*
X00483D01*
X00478Y02072D02*
Y02082D01*
X00647Y020525D02*
X00657D01*
X00652Y020475D02*
Y020575D01*
X00947Y02077D02*
X00957D01*
X00952Y02072D02*
Y02082D01*
X00597Y02032D02*
X00607D01*
X00602Y02027D02*
Y02037D01*
X00173Y02032D02*
X00183D01*
X00178Y02027D02*
Y02037D01*
X00065Y02112D02*
X00075D01*
X0007Y02107D02*
Y02117D01*
X00047Y0208D02*
X00057D01*
X00052Y02075D02*
Y02085D01*
X00022Y0204D02*
X00032D01*
X00027Y02035D02*
Y02045D01*
X02855Y025294D02*
X02865D01*
X0286Y025244D02*
Y025344D01*
X02688Y025294D02*
X02698D01*
X02693Y025244D02*
Y025344D01*
X025217Y025294D02*
X025317D01*
X025267Y025244D02*
Y025344D01*
X023553Y025294D02*
X023653D01*
X023603Y025244D02*
Y025344D01*
X02189Y025294D02*
X02199D01*
X02194Y025244D02*
Y025344D01*
X020227Y025294D02*
X020327D01*
X020277Y025244D02*
Y025344D01*
X018563Y025294D02*
X018663D01*
X018613Y025244D02*
Y025344D01*
X0169Y025294D02*
X017D01*
X01695Y025244D02*
Y025344D01*
X015237Y025294D02*
X015337D01*
X015287Y025244D02*
Y025344D01*
X013573Y025294D02*
X013673D01*
X013623Y025244D02*
Y025344D01*
X01191Y025294D02*
X01201D01*
X01196Y025244D02*
Y025344D01*
X010247Y025294D02*
X010347D01*
X010297Y025244D02*
Y025344D01*
X008583Y025294D02*
X008683D01*
X008633Y025244D02*
Y025344D01*
X00692Y025294D02*
X00702D01*
X00697Y025244D02*
Y025344D01*
X005257Y025294D02*
X005357D01*
X005307Y025244D02*
Y025344D01*
X003593Y025294D02*
X003693D01*
X003643Y025244D02*
Y025344D01*
X00193Y02529D02*
X00203D01*
X00198Y02524D02*
Y02534D01*
X02812Y02597D02*
X02832D01*
X02822Y02587D02*
Y02607D01*
X02876Y01466D02*
X02896D01*
X02886Y01456D02*
Y01476D01*
X00889Y01588D02*
X00899D01*
X00894Y01583D02*
Y01593D01*
X00938Y01589D02*
X00948D01*
X00943Y01584D02*
Y01594D01*
X00975Y01569D02*
X00985D01*
X0098Y01564D02*
Y01574D01*
X029695Y0142D02*
X029895D01*
X029795Y0141D02*
Y0143D01*
X029695Y015195D02*
X029895D01*
X029795Y015095D02*
Y015295D01*
X027595Y02277D02*
X027665D01*
X02763Y022735D02*
Y022805D01*
X027595Y02149D02*
X027665D01*
X02763Y021455D02*
Y021525D01*
X011883Y01003D02*
X011983D01*
X011933Y00998D02*
Y01008D01*
X00122Y01607D02*
X00132D01*
X00127Y01602D02*
Y01612D01*
X006031Y01606D02*
X006131D01*
X006081Y01601D02*
Y01611D01*
X008383Y01583D02*
X008483D01*
X008433Y01578D02*
Y01588D01*
X007883Y01589D02*
X007983D01*
X007933Y01584D02*
Y01594D01*
X007383Y01605D02*
X007483D01*
X007433Y016D02*
Y0161D01*
X006883Y01605D02*
X006983D01*
X006933Y016D02*
Y0161D01*
X006383Y01605D02*
X006483D01*
X006433Y016D02*
Y0161D01*
X010822Y010282D02*
X011022D01*
X010922Y010182D02*
Y010382D01*
X01932Y011048D02*
X01952D01*
X01942Y010948D02*
Y011148D01*
X01687Y01016D02*
X01707D01*
X01697Y01006D02*
Y01026D01*
X01754Y0106D02*
X01774D01*
X01764Y0105D02*
Y0107D01*
M02*
