G04*
G04 #@! TF.GenerationSoftware,Altium Limited,Altium Designer,19.0.4 (130)*
G04*
G04 Layer_Color=255*
%FSTAX24Y24*%
%MOIN*%
G70*
G01*
G75*
%ADD18O,0.0236X0.0807*%
%ADD19O,0.0787X0.0236*%
%ADD20R,0.0304X0.0433*%
%ADD21R,0.0472X0.0717*%
%ADD22R,0.0700X0.0850*%
%ADD23R,0.1575X0.0787*%
%ADD24R,0.0787X0.1181*%
%ADD25R,0.0850X0.0700*%
%ADD26R,0.0433X0.0304*%
%ADD27R,0.0700X0.0700*%
%ADD28O,0.0236X0.0602*%
%ADD29R,0.0315X0.0315*%
%ADD30R,0.0421X0.0903*%
%ADD31R,0.3937X0.4224*%
%ADD58R,0.0945X0.0787*%
%ADD59O,0.0945X0.0787*%
%ADD60O,0.1496X0.1100*%
%ADD61R,0.1496X0.1100*%
%ADD62C,0.0492*%
%ADD63R,0.0492X0.0492*%
D18*
X00602Y016969D02*
D03*
X00652D02*
D03*
X00702D02*
D03*
X00752D02*
D03*
X00802D02*
D03*
X00852D02*
D03*
X00902D02*
D03*
X00952D02*
D03*
X00602Y019391D02*
D03*
X00652D02*
D03*
X00702D02*
D03*
X00752D02*
D03*
X00802D02*
D03*
X00852D02*
D03*
X00902D02*
D03*
X00952D02*
D03*
X00178Y016969D02*
D03*
X00228D02*
D03*
X00278D02*
D03*
X00328D02*
D03*
X00378D02*
D03*
X00428D02*
D03*
X00478D02*
D03*
X00528D02*
D03*
X00178Y019391D02*
D03*
X00228D02*
D03*
X00278D02*
D03*
X00328D02*
D03*
X00378D02*
D03*
X00428D02*
D03*
X00478D02*
D03*
X00528D02*
D03*
X009433Y013801D02*
D03*
X008933D02*
D03*
X008433D02*
D03*
X007933D02*
D03*
X007433D02*
D03*
X006933D02*
D03*
X006433D02*
D03*
X005933D02*
D03*
X009433Y011379D02*
D03*
X008933D02*
D03*
X008433D02*
D03*
X007933D02*
D03*
X007433D02*
D03*
X006933D02*
D03*
X006433D02*
D03*
X005933D02*
D03*
X005193Y013801D02*
D03*
X004693D02*
D03*
X004193D02*
D03*
X003693D02*
D03*
X003193D02*
D03*
X002693D02*
D03*
X002193D02*
D03*
X001693D02*
D03*
X005193Y011379D02*
D03*
X004693D02*
D03*
X004193D02*
D03*
X003693D02*
D03*
X003193D02*
D03*
X002693D02*
D03*
X002193D02*
D03*
X001693D02*
D03*
D19*
X005227Y00975D02*
D03*
Y00925D02*
D03*
Y00875D02*
D03*
Y00825D02*
D03*
X007453Y00975D02*
D03*
Y00925D02*
D03*
Y00875D02*
D03*
Y00825D02*
D03*
D20*
X002736Y00926D02*
D03*
X003406D02*
D03*
X003414Y00829D02*
D03*
X002744D02*
D03*
X02301Y01459D02*
D03*
X02368D02*
D03*
X02301Y015166D02*
D03*
X02368D02*
D03*
X023677Y015742D02*
D03*
X023007D02*
D03*
X02301Y016318D02*
D03*
X02368D02*
D03*
X02301Y016894D02*
D03*
X02368D02*
D03*
X02301Y01747D02*
D03*
X02368D02*
D03*
D21*
X030357Y01605D02*
D03*
X031543D02*
D03*
D22*
X031886Y01737D02*
D03*
X030114D02*
D03*
D23*
X028455Y01301D02*
D03*
X031605D02*
D03*
Y00959D02*
D03*
X028455D02*
D03*
D24*
X023162Y01116D02*
D03*
X025918D02*
D03*
D25*
X02095Y013126D02*
D03*
Y011354D02*
D03*
D26*
X01678Y013228D02*
D03*
Y012558D02*
D03*
X01357Y01256D02*
D03*
Y01323D02*
D03*
X02823Y02263D02*
D03*
Y0233D02*
D03*
X02656Y02263D02*
D03*
Y0233D02*
D03*
X024897Y02263D02*
D03*
Y0233D02*
D03*
X023233Y02263D02*
D03*
Y0233D02*
D03*
X02157Y02263D02*
D03*
Y0233D02*
D03*
X019907Y02263D02*
D03*
Y0233D02*
D03*
X018243Y02263D02*
D03*
Y0233D02*
D03*
X01658Y02263D02*
D03*
Y0233D02*
D03*
X014917Y02263D02*
D03*
Y0233D02*
D03*
X013253Y02263D02*
D03*
Y0233D02*
D03*
X01159Y02263D02*
D03*
Y0233D02*
D03*
X009927Y02263D02*
D03*
Y0233D02*
D03*
X008263Y02263D02*
D03*
Y0233D02*
D03*
X0066Y02263D02*
D03*
Y0233D02*
D03*
X004937Y02263D02*
D03*
Y0233D02*
D03*
X003273Y02263D02*
D03*
Y0233D02*
D03*
X00161Y022626D02*
D03*
Y023296D02*
D03*
X02556Y028646D02*
D03*
Y027976D02*
D03*
X012253Y028646D02*
D03*
Y027976D02*
D03*
X023897Y028646D02*
D03*
Y027976D02*
D03*
X01059Y028646D02*
D03*
Y027976D02*
D03*
X022233Y028646D02*
D03*
Y027976D02*
D03*
X008927Y028646D02*
D03*
Y027976D02*
D03*
X02057Y028646D02*
D03*
Y027976D02*
D03*
X007263Y028646D02*
D03*
Y027976D02*
D03*
X018907Y028646D02*
D03*
Y027976D02*
D03*
X0056Y028646D02*
D03*
Y027976D02*
D03*
X017243Y028646D02*
D03*
Y027976D02*
D03*
X003937Y028646D02*
D03*
Y027976D02*
D03*
X01558Y028646D02*
D03*
Y027976D02*
D03*
X002273Y028646D02*
D03*
Y027976D02*
D03*
X013917Y028646D02*
D03*
Y027976D02*
D03*
X00061Y028646D02*
D03*
Y027976D02*
D03*
X01155Y012538D02*
D03*
Y013208D02*
D03*
X013Y01256D02*
D03*
Y01323D02*
D03*
X01417Y012538D02*
D03*
Y013208D02*
D03*
X01564Y01256D02*
D03*
Y01323D02*
D03*
X0272Y028646D02*
D03*
Y027976D02*
D03*
X01828Y01256D02*
D03*
Y01323D02*
D03*
X01619D02*
D03*
Y01256D02*
D03*
X01883Y01323D02*
D03*
Y01256D02*
D03*
D27*
X0149Y011632D02*
D03*
Y013032D02*
D03*
X01226Y011632D02*
D03*
Y013032D02*
D03*
X01751D02*
D03*
Y011632D02*
D03*
D28*
X00162Y024273D02*
D03*
X00061Y024263D02*
D03*
Y026743D02*
D03*
X00162Y026753D02*
D03*
X003283Y024273D02*
D03*
X002273Y024263D02*
D03*
Y026743D02*
D03*
X003283Y026753D02*
D03*
X004947Y024283D02*
D03*
X003937Y024273D02*
D03*
Y026753D02*
D03*
X004947Y026763D02*
D03*
X00661Y024283D02*
D03*
X0056Y024273D02*
D03*
Y026753D02*
D03*
X00661Y026763D02*
D03*
X008273Y024283D02*
D03*
X007263Y024273D02*
D03*
Y026753D02*
D03*
X008273Y026763D02*
D03*
X009937Y024283D02*
D03*
X008927Y024273D02*
D03*
Y026753D02*
D03*
X009937Y026763D02*
D03*
X0116Y024283D02*
D03*
X01059Y024273D02*
D03*
Y026753D02*
D03*
X0116Y026763D02*
D03*
X013263Y024283D02*
D03*
X012253Y024273D02*
D03*
Y026753D02*
D03*
X013263Y026763D02*
D03*
X014927Y024283D02*
D03*
X013917Y024273D02*
D03*
Y026753D02*
D03*
X014927Y026763D02*
D03*
X01659Y024283D02*
D03*
X01558Y024273D02*
D03*
Y026753D02*
D03*
X01659Y026763D02*
D03*
X018253Y024283D02*
D03*
X017243Y024273D02*
D03*
Y026753D02*
D03*
X018253Y026763D02*
D03*
X019917Y024283D02*
D03*
X018907Y024273D02*
D03*
Y026753D02*
D03*
X019917Y026763D02*
D03*
X02158Y024283D02*
D03*
X02057Y024273D02*
D03*
Y026753D02*
D03*
X02158Y026763D02*
D03*
X023243Y024283D02*
D03*
X022233Y024273D02*
D03*
Y026753D02*
D03*
X023243Y026763D02*
D03*
X024907Y024283D02*
D03*
X023897Y024273D02*
D03*
Y026753D02*
D03*
X024907Y026763D02*
D03*
X02657Y024283D02*
D03*
X02556Y024273D02*
D03*
Y026753D02*
D03*
X02657Y026763D02*
D03*
X02822Y024283D02*
D03*
X02721Y024273D02*
D03*
Y026753D02*
D03*
X02822Y026763D02*
D03*
D29*
X02721Y022635D02*
D03*
Y023265D02*
D03*
X02558Y022635D02*
D03*
Y023265D02*
D03*
X023917Y022635D02*
D03*
Y023265D02*
D03*
X022253Y022635D02*
D03*
Y023265D02*
D03*
X02059Y022635D02*
D03*
Y023265D02*
D03*
X018927Y022635D02*
D03*
Y023265D02*
D03*
X017263Y022635D02*
D03*
Y023265D02*
D03*
X0156Y022635D02*
D03*
Y023265D02*
D03*
X013937Y022635D02*
D03*
Y023265D02*
D03*
X01061Y022635D02*
D03*
Y023265D02*
D03*
X008947Y022635D02*
D03*
Y023265D02*
D03*
X007283Y022635D02*
D03*
Y023265D02*
D03*
X00562Y022635D02*
D03*
Y023265D02*
D03*
X003957Y022635D02*
D03*
Y023265D02*
D03*
X002293Y022635D02*
D03*
Y023265D02*
D03*
X00063Y022635D02*
D03*
Y023265D02*
D03*
X012273D02*
D03*
Y022635D02*
D03*
D30*
X025121Y01468D02*
D03*
X025791D02*
D03*
X02646D02*
D03*
X027129D02*
D03*
X027799D02*
D03*
D31*
X02646Y01853D02*
D03*
D58*
X030715Y03392D02*
D03*
X00213Y00356D02*
D03*
D59*
X029215Y030298D02*
D03*
X027715Y03392D02*
D03*
X026215Y030298D02*
D03*
X024715Y03392D02*
D03*
X023215Y030298D02*
D03*
X021715Y03392D02*
D03*
X020215Y030298D02*
D03*
X018715Y03392D02*
D03*
X017215Y030298D02*
D03*
X015715Y03392D02*
D03*
X014215Y030298D02*
D03*
X012715Y03392D02*
D03*
X011215Y030298D02*
D03*
X009715Y03392D02*
D03*
X008215Y030298D02*
D03*
X006715Y03392D02*
D03*
X005215Y030298D02*
D03*
X003715Y03392D02*
D03*
X002215Y030298D02*
D03*
X03063Y007182D02*
D03*
X02913Y00356D02*
D03*
X02763Y007182D02*
D03*
X02613Y00356D02*
D03*
X02463Y007182D02*
D03*
X02313Y00356D02*
D03*
X02163Y007182D02*
D03*
X02013Y00356D02*
D03*
X01863Y007182D02*
D03*
X01713Y00356D02*
D03*
X01563Y007182D02*
D03*
X01413Y00356D02*
D03*
X01263Y007182D02*
D03*
X01113Y00356D02*
D03*
X00963Y007182D02*
D03*
X00813Y00356D02*
D03*
X00663Y007182D02*
D03*
X00513Y00356D02*
D03*
X00363Y007182D02*
D03*
D60*
X030715Y02004D02*
D03*
Y02204D02*
D03*
X03071Y02638D02*
D03*
D61*
X030715Y02404D02*
D03*
X03071Y02838D02*
D03*
D62*
X019534Y00934D02*
D03*
X018747D02*
D03*
X01796D02*
D03*
X017172D02*
D03*
X016385D02*
D03*
X015597D02*
D03*
X01481D02*
D03*
X014023D02*
D03*
X013235D02*
D03*
X012448D02*
D03*
X01166D02*
D03*
X011644Y02094D02*
D03*
X012431D02*
D03*
X013219D02*
D03*
X014006D02*
D03*
X014794D02*
D03*
X015581D02*
D03*
X016368D02*
D03*
X017156D02*
D03*
X017943D02*
D03*
X018731D02*
D03*
X019518D02*
D03*
D63*
X010873Y00934D02*
D03*
X010857Y02094D02*
D03*
M02*
