M48
;Layer_Color=9474304
;FILE_FORMAT=2:4
INCH,LZ
;TYPE=PLATED
T1F00S00C0.0070
T2F00S00C0.0100
T3F00S00C0.0150
T4F00S00C0.0200
T5F00S00C0.0300
T7F00S00C0.0500
%
T01
X02763Y02149
Y02277
T02
X025335Y004865
X025876
X026417
X025397Y009155
X02498Y0146
X02131Y01288
X020357Y016995
X009879Y01744
X0098Y01569
X00943Y01589
X00894Y01588
X008433Y01583
X007933Y01589
X007433Y01605
X006933
X006433
X006081Y01606
X00568Y016069
X00598Y01298
X00669Y01194
X00775Y011899
X00864Y009985
X011933Y01003
X00988Y01269
X00985Y00591
X009309
X010391
X00535Y01273
X0049Y01298
X004057Y01264
X00289Y01291
X002693Y01605
X003193
X003693
X004193
X004693
X005193
X004922Y017755
X003937Y018543
X001065Y017655
X00127Y01607
X002193Y01605
X001307Y014735
X00028Y01955
X00027Y0204
X00052Y0208
X0007Y02112
X00178Y02032
X002295Y020525
X00478Y02077
X004483Y02491
X005307Y025294
X003643
X00282Y02491
X00198Y02529
X001157Y02491
X006147
X00697Y025294
X00781Y02491
X008633Y025294
X009473Y02491
X009473Y02491
X010297Y025294
X011137Y02491
X01196Y025294
X0128Y02491
X013623Y025294
X014413Y02491
X015287Y025294
X016127Y02491
X01695Y025294
X01779Y02491
X018613Y025294
X019453Y02491
X020277Y025294
X021117Y02491
X018477Y019395
X00952Y02077
X00652Y020525
X00602Y02032
X02275Y01984
X024127Y019615
X024443Y02491
X025267Y025294
X026107Y02491
X02693Y025294
X027737Y02491
X0286Y025294
X023603
X02278Y02491
X02194Y025294
T03
X02391Y00929
T04
X02886Y01466
X029795Y0142
Y015195
X01942Y011048
X01764Y0106
X01697Y01016
X010922Y010282
X02822Y02597
T05
X010873Y00934
X01166
X012448
X013235
X014023
X01481
X015597
X016385
X017172
X01796
X018747
X019534
X019518Y02094
X018731
X017943
X017156
X016368
X015581
X014794
X014006
X013219
X012431
X011644
X010857
T07
X030715Y02004
Y02204
Y02404
X03071Y02638
Y02838
M30
