G04*
G04 #@! TF.GenerationSoftware,Altium Limited,Altium Designer,19.0.4 (130)*
G04*
G04 Layer_Color=255*
%FSTAX24Y24*%
%MOIN*%
G70*
G01*
G75*
%ADD20R,0.0304X0.0433*%
%ADD26R,0.0433X0.0304*%
%ADD28O,0.0236X0.0602*%
%ADD29R,0.0315X0.0315*%
%ADD58R,0.0945X0.0787*%
%ADD59O,0.0945X0.0787*%
%ADD60O,0.1496X0.1100*%
%ADD61R,0.1496X0.1100*%
%ADD62C,0.0492*%
%ADD63R,0.0492X0.0492*%
%ADD68R,0.0225X0.0472*%
%ADD69R,0.1000X0.0572*%
D20*
X031224Y0187D02*
D03*
X030554D02*
D03*
D26*
X00164Y0189D02*
D03*
Y01957D02*
D03*
X01593D02*
D03*
Y0189D02*
D03*
X03224Y013863D02*
D03*
Y013193D02*
D03*
X01694Y013863D02*
D03*
Y013193D02*
D03*
X0293Y01957D02*
D03*
Y0189D02*
D03*
X01402Y01957D02*
D03*
Y0189D02*
D03*
X030327Y013863D02*
D03*
Y013193D02*
D03*
X015027Y013863D02*
D03*
Y013193D02*
D03*
X02739Y01957D02*
D03*
Y0189D02*
D03*
X01211Y01957D02*
D03*
Y0189D02*
D03*
X028415Y013863D02*
D03*
Y013193D02*
D03*
X013115Y013863D02*
D03*
Y013193D02*
D03*
X02548Y01957D02*
D03*
Y0189D02*
D03*
X0102Y01957D02*
D03*
Y0189D02*
D03*
X026502Y013863D02*
D03*
Y013193D02*
D03*
X011202Y013863D02*
D03*
Y013193D02*
D03*
X02357Y01957D02*
D03*
Y0189D02*
D03*
X00829Y01957D02*
D03*
Y0189D02*
D03*
X02459Y013863D02*
D03*
Y013193D02*
D03*
X00929Y013863D02*
D03*
Y013193D02*
D03*
X02166Y01957D02*
D03*
Y0189D02*
D03*
X00638Y01957D02*
D03*
Y0189D02*
D03*
X022677Y013863D02*
D03*
Y013193D02*
D03*
X007377Y013863D02*
D03*
Y013193D02*
D03*
X01975Y01957D02*
D03*
Y0189D02*
D03*
X00447Y01957D02*
D03*
Y0189D02*
D03*
X020765Y013863D02*
D03*
Y013193D02*
D03*
X005465Y013863D02*
D03*
Y013193D02*
D03*
X01784Y01957D02*
D03*
Y0189D02*
D03*
X00256Y01957D02*
D03*
Y0189D02*
D03*
X018852Y013863D02*
D03*
Y013193D02*
D03*
X003552Y013863D02*
D03*
Y013193D02*
D03*
X00164Y013863D02*
D03*
Y013193D02*
D03*
D28*
X03121Y015203D02*
D03*
X03222Y015193D02*
D03*
Y017673D02*
D03*
X03121Y017683D02*
D03*
X029299Y015203D02*
D03*
X030309Y015193D02*
D03*
Y017673D02*
D03*
X029299Y017683D02*
D03*
X027389Y015203D02*
D03*
X028399Y015193D02*
D03*
Y017673D02*
D03*
X027389Y017683D02*
D03*
X025478Y015203D02*
D03*
X026488Y015193D02*
D03*
Y017673D02*
D03*
X025478Y017683D02*
D03*
X023568Y015203D02*
D03*
X024578Y015193D02*
D03*
Y017673D02*
D03*
X023568Y017683D02*
D03*
X021657Y015203D02*
D03*
X022667Y015193D02*
D03*
Y017673D02*
D03*
X021657Y017683D02*
D03*
X019746Y015203D02*
D03*
X020756Y015193D02*
D03*
Y017673D02*
D03*
X019746Y017683D02*
D03*
X017836Y015203D02*
D03*
X018846Y015193D02*
D03*
Y017673D02*
D03*
X017836Y017683D02*
D03*
X015925Y015203D02*
D03*
X016935Y015193D02*
D03*
Y017673D02*
D03*
X015925Y017683D02*
D03*
X014014Y015203D02*
D03*
X015024Y015193D02*
D03*
Y017673D02*
D03*
X014014Y017683D02*
D03*
X012104Y015203D02*
D03*
X013114Y015193D02*
D03*
Y017673D02*
D03*
X012104Y017683D02*
D03*
X010193Y015203D02*
D03*
X011203Y015193D02*
D03*
Y017673D02*
D03*
X010193Y017683D02*
D03*
X008282Y015203D02*
D03*
X009293Y015193D02*
D03*
Y017673D02*
D03*
X008282Y017683D02*
D03*
X006372Y015203D02*
D03*
X007382Y015193D02*
D03*
Y017673D02*
D03*
X006372Y017683D02*
D03*
X004461Y015203D02*
D03*
X005471Y015193D02*
D03*
Y017673D02*
D03*
X004461Y017683D02*
D03*
X002551Y015203D02*
D03*
X003561Y015193D02*
D03*
Y017673D02*
D03*
X002551Y017683D02*
D03*
X00064Y015203D02*
D03*
X00165Y015193D02*
D03*
Y017673D02*
D03*
X00064Y017683D02*
D03*
D29*
X03131Y013225D02*
D03*
Y013855D02*
D03*
X016015Y013225D02*
D03*
Y013855D02*
D03*
X029398Y013225D02*
D03*
Y013855D02*
D03*
X014103Y013225D02*
D03*
Y013855D02*
D03*
X027486Y013225D02*
D03*
Y013855D02*
D03*
X012191Y013225D02*
D03*
Y013855D02*
D03*
X025574Y013225D02*
D03*
Y013855D02*
D03*
X010279Y013225D02*
D03*
Y013855D02*
D03*
X023663Y013225D02*
D03*
Y013855D02*
D03*
X008367Y013225D02*
D03*
Y013855D02*
D03*
X021751Y013225D02*
D03*
Y013855D02*
D03*
X006456Y013225D02*
D03*
Y013855D02*
D03*
X019839Y013225D02*
D03*
Y013855D02*
D03*
X004544Y013225D02*
D03*
Y013855D02*
D03*
X017927Y013225D02*
D03*
Y013855D02*
D03*
X002632Y013225D02*
D03*
Y013855D02*
D03*
X00072Y013225D02*
D03*
Y013855D02*
D03*
D58*
X030715Y03392D02*
D03*
X00213Y00356D02*
D03*
D59*
X029215Y030298D02*
D03*
X027715Y03392D02*
D03*
X026215Y030298D02*
D03*
X024715Y03392D02*
D03*
X023215Y030298D02*
D03*
X021715Y03392D02*
D03*
X020215Y030298D02*
D03*
X018715Y03392D02*
D03*
X017215Y030298D02*
D03*
X015715Y03392D02*
D03*
X014215Y030298D02*
D03*
X012715Y03392D02*
D03*
X011215Y030298D02*
D03*
X009715Y03392D02*
D03*
X008215Y030298D02*
D03*
X006715Y03392D02*
D03*
X005215Y030298D02*
D03*
X003715Y03392D02*
D03*
X002215Y030298D02*
D03*
X03063Y007182D02*
D03*
X02913Y00356D02*
D03*
X02763Y007182D02*
D03*
X02613Y00356D02*
D03*
X02463Y007182D02*
D03*
X02313Y00356D02*
D03*
X02163Y007182D02*
D03*
X02013Y00356D02*
D03*
X01863Y007182D02*
D03*
X01713Y00356D02*
D03*
X01563Y007182D02*
D03*
X01413Y00356D02*
D03*
X01263Y007182D02*
D03*
X01113Y00356D02*
D03*
X00963Y007182D02*
D03*
X00813Y00356D02*
D03*
X00663Y007182D02*
D03*
X00513Y00356D02*
D03*
X00363Y007182D02*
D03*
D60*
X030715Y02004D02*
D03*
Y02204D02*
D03*
X03071Y02638D02*
D03*
D61*
X030715Y02404D02*
D03*
X03071Y02838D02*
D03*
D62*
X019534Y00934D02*
D03*
X018747D02*
D03*
X01796D02*
D03*
X017172D02*
D03*
X016385D02*
D03*
X015597D02*
D03*
X01481D02*
D03*
X014023D02*
D03*
X013235D02*
D03*
X012448D02*
D03*
X01166D02*
D03*
X011644Y02094D02*
D03*
X012431D02*
D03*
X013219D02*
D03*
X014006D02*
D03*
X014794D02*
D03*
X015581D02*
D03*
X016368D02*
D03*
X017156D02*
D03*
X017943D02*
D03*
X018731D02*
D03*
X019518D02*
D03*
D63*
X010873Y00934D02*
D03*
X010857Y02094D02*
D03*
D68*
X03248Y01236D02*
D03*
X03189Y01237D02*
D03*
X0313Y01236D02*
D03*
X030567D02*
D03*
X029977Y01237D02*
D03*
X029387Y01236D02*
D03*
X028654D02*
D03*
X028064Y01237D02*
D03*
X027474Y01236D02*
D03*
X026741D02*
D03*
X026151Y01237D02*
D03*
X025561Y01236D02*
D03*
X024827D02*
D03*
X024237Y01237D02*
D03*
X023647Y01236D02*
D03*
X022914D02*
D03*
X022324Y01237D02*
D03*
X021734Y01236D02*
D03*
X021001D02*
D03*
X020411Y01237D02*
D03*
X019821Y01236D02*
D03*
X019088D02*
D03*
X018498Y01237D02*
D03*
X017908Y01236D02*
D03*
X017175D02*
D03*
X016585Y01237D02*
D03*
X015995Y01236D02*
D03*
X015262D02*
D03*
X014672Y01237D02*
D03*
X014082Y01236D02*
D03*
X013349D02*
D03*
X012759Y01237D02*
D03*
X012169Y01236D02*
D03*
X011436D02*
D03*
X010846Y01237D02*
D03*
X010256Y01236D02*
D03*
X009523D02*
D03*
X008932Y01237D02*
D03*
X008342Y01236D02*
D03*
X007609D02*
D03*
X007019Y01237D02*
D03*
X006429Y01236D02*
D03*
X005696D02*
D03*
X005106Y01237D02*
D03*
X004516Y01236D02*
D03*
X003783D02*
D03*
X003193Y01237D02*
D03*
X002603Y01236D02*
D03*
X00187D02*
D03*
X00128Y01237D02*
D03*
X00069Y01236D02*
D03*
D69*
X03189Y011048D02*
D03*
X029977D02*
D03*
X028064D02*
D03*
X026151D02*
D03*
X024237D02*
D03*
X022324D02*
D03*
X020411D02*
D03*
X018498D02*
D03*
X016585D02*
D03*
X014672D02*
D03*
X012759D02*
D03*
X010846D02*
D03*
X008932D02*
D03*
X007019D02*
D03*
X005106D02*
D03*
X003193D02*
D03*
X00128D02*
D03*
M02*
