G04*
G04 #@! TF.GenerationSoftware,Altium Limited,Altium Designer,19.0.4 (130)*
G04*
G04 Layer_Color=16711935*
%FSTAX24Y24*%
%MOIN*%
G70*
G01*
G75*
%ADD13C,0.0039*%
D13*
X006353Y017767D02*
G03*
X006353Y017767I-000197J0D01*
G01*
X002113D02*
G03*
X002113Y017767I-000197J0D01*
G01*
X009494Y013003D02*
G03*
X009494Y013003I-000197J0D01*
G01*
X005254D02*
G03*
X005254Y013003I-000197J0D01*
G01*
X006123Y00961D02*
G03*
X006123Y00961I-000197J0D01*
G01*
X005802Y017412D02*
X009739D01*
X005802Y018948D02*
X009739D01*
X005802Y017412D02*
Y018948D01*
X009739Y017412D02*
Y018948D01*
X001561Y017412D02*
X005498D01*
X001561Y018948D02*
X005498D01*
X001561Y017412D02*
Y018948D01*
X005498Y017412D02*
Y018948D01*
X005715Y013358D02*
X009652D01*
X005715Y011822D02*
X009652D01*
Y013358D01*
X005715Y011822D02*
Y013358D01*
X001475D02*
X005412D01*
X001475Y011822D02*
X005412D01*
Y013358D01*
X001475Y011822D02*
Y013358D01*
X005572Y008035D02*
Y009965D01*
X007108Y008035D02*
Y009965D01*
X005572D02*
X007108D01*
X005572Y008035D02*
X007108D01*
M02*
