G04*
G04 #@! TF.GenerationSoftware,Altium Limited,Altium Designer,19.0.4 (130)*
G04*
G04 Layer_Color=16711935*
%FSTAX24Y24*%
%MOIN*%
G70*
G01*
G75*
%ADD64R,0.0572X0.0572*%
%ADD65C,0.0572*%
%ADD66R,0.0572X0.0572*%
%ADD67O,0.0464X0.0380*%
%ADD68R,0.0464X0.0380*%
%ADD69C,0.0730*%
%ADD70R,0.0730X0.0730*%
%ADD71C,0.1261*%
%ADD72C,0.0907*%
%ADD73O,0.0730X0.0880*%
%ADD74R,0.0730X0.0880*%
%ADD75C,0.1655*%
D64*
X044763Y024841D02*
D03*
X044747Y036441D02*
D03*
D65*
X04555Y024841D02*
D03*
X046338D02*
D03*
X047125D02*
D03*
X047913D02*
D03*
X0487D02*
D03*
X049487D02*
D03*
X050275D02*
D03*
X051062D02*
D03*
X05185D02*
D03*
X052637D02*
D03*
X053424D02*
D03*
X045534Y036441D02*
D03*
X046321D02*
D03*
X047109D02*
D03*
X047896D02*
D03*
X048684D02*
D03*
X049471D02*
D03*
X050258D02*
D03*
X051046D02*
D03*
X051833D02*
D03*
X052621D02*
D03*
X053408D02*
D03*
X055Y027066D02*
D03*
Y027853D02*
D03*
Y028641D02*
D03*
Y029428D02*
D03*
Y030215D02*
D03*
Y031003D02*
D03*
Y03179D02*
D03*
Y032578D02*
D03*
Y033365D02*
D03*
Y034152D02*
D03*
Y03494D02*
D03*
D66*
Y026278D02*
D03*
D67*
X046Y03205D02*
D03*
Y03255D02*
D03*
Y03305D02*
D03*
Y03355D02*
D03*
D68*
Y03405D02*
D03*
D69*
X0424Y035888D02*
D03*
D70*
Y036888D02*
D03*
D71*
X035668Y032241D02*
D03*
D72*
X038581Y03165D02*
D03*
X0374D02*
D03*
X038581Y032831D02*
D03*
X0374D02*
D03*
D73*
X03641Y029D02*
D03*
D74*
X0354D02*
D03*
D75*
X05512Y03679D02*
D03*
Y0244D02*
D03*
M02*
