G04*
G04 #@! TF.GenerationSoftware,Altium Limited,Altium Designer,19.0.4 (130)*
G04*
G04 Layer_Physical_Order=2*
G04 Layer_Color=16711680*
%FSTAX24Y24*%
%MOIN*%
G70*
G01*
G75*
%ADD15C,0.0070*%
%ADD16C,0.0150*%
%ADD17C,0.0050*%
%ADD76C,0.0200*%
%ADD77C,0.0250*%
%ADD79R,0.0492X0.0492*%
%ADD80C,0.0492*%
%ADD81R,0.0492X0.0492*%
%ADD82O,0.0384X0.0300*%
%ADD83R,0.0384X0.0300*%
%ADD84C,0.0650*%
%ADD85R,0.0650X0.0650*%
%ADD86C,0.1181*%
%ADD87C,0.0827*%
%ADD88O,0.0650X0.0800*%
%ADD89R,0.0650X0.0800*%
%ADD90C,0.0150*%
%ADD91C,0.1575*%
%ADD92C,0.0400*%
%ADD93C,0.0300*%
%ADD94C,0.0250*%
G36*
X056073Y037377D02*
Y02525D01*
Y023813D01*
X055773Y023513D01*
X055413Y023509D01*
X055405Y023559D01*
X055461Y023576D01*
X055615Y023659D01*
X055751Y023769D01*
X055861Y023905D01*
X055944Y024059D01*
X055995Y024226D01*
X056012Y0244D01*
X055995Y024574D01*
X055944Y024741D01*
X055861Y024895D01*
X055751Y025031D01*
X055615Y025141D01*
X055461Y025224D01*
X055294Y025275D01*
X05512Y025292D01*
X054946Y025275D01*
X054779Y025224D01*
X054625Y025141D01*
X054489Y025031D01*
X054379Y024895D01*
X054296Y024741D01*
X054245Y024574D01*
X054228Y0244D01*
X054245Y024226D01*
X054296Y024059D01*
X054379Y023905D01*
X054489Y023769D01*
X054625Y023659D01*
X054779Y023576D01*
X054854Y023553D01*
X054846Y023503D01*
X054772Y023503D01*
X034577D01*
Y024D01*
X034577Y037623D01*
X054689D01*
X054702Y037573D01*
X054625Y037531D01*
X054489Y037421D01*
X054379Y037285D01*
X054296Y037131D01*
X054245Y036964D01*
X054228Y03679D01*
X054245Y036616D01*
X054296Y036449D01*
X054379Y036295D01*
X054489Y036159D01*
X054625Y036049D01*
X054779Y035966D01*
X054946Y035915D01*
X05512Y035898D01*
X055294Y035915D01*
X055461Y035966D01*
X055615Y036049D01*
X055751Y036159D01*
X055861Y036295D01*
X055944Y036449D01*
X055995Y036616D01*
X056012Y03679D01*
X055995Y036964D01*
X055944Y037131D01*
X055861Y037285D01*
X055751Y037421D01*
X055615Y037531D01*
X055538Y037573D01*
X055551Y037623D01*
X055827D01*
X056073Y037377D01*
D02*
G37*
%LPC*%
G36*
X052075Y037483D02*
Y037364D01*
X052194D01*
X05219Y037382D01*
X052151Y03744D01*
X052093Y037479D01*
X052075Y037483D01*
D02*
G37*
G36*
X051975D02*
X051957Y037479D01*
X051899Y03744D01*
X05186Y037382D01*
X051857Y037364D01*
X051975D01*
Y037483D01*
D02*
G37*
G36*
X053285Y037463D02*
Y037344D01*
X053404D01*
X0534Y037362D01*
X053361Y03742D01*
X053303Y037459D01*
X053285Y037463D01*
D02*
G37*
G36*
X053185D02*
X053167Y037459D01*
X053109Y03742D01*
X05307Y037362D01*
X053067Y037344D01*
X053185D01*
Y037463D01*
D02*
G37*
G36*
X05264D02*
Y037344D01*
X052758D01*
X052755Y037362D01*
X052716Y03742D01*
X052658Y037459D01*
X05264Y037463D01*
D02*
G37*
G36*
X05254D02*
X052522Y037459D01*
X052464Y03742D01*
X052425Y037362D01*
X052422Y037344D01*
X05254D01*
Y037463D01*
D02*
G37*
G36*
X052194Y037264D02*
X052075D01*
Y037146D01*
X052093Y037149D01*
X052151Y037188D01*
X05219Y037246D01*
X052194Y037264D01*
D02*
G37*
G36*
X051975D02*
X051857D01*
X05186Y037246D01*
X051899Y037188D01*
X051957Y037149D01*
X051975Y037146D01*
Y037264D01*
D02*
G37*
G36*
X053404Y037244D02*
X053285D01*
Y037126D01*
X053303Y037129D01*
X053361Y037168D01*
X0534Y037226D01*
X053404Y037244D01*
D02*
G37*
G36*
X053185D02*
X053067D01*
X05307Y037226D01*
X053109Y037168D01*
X053167Y037129D01*
X053185Y037126D01*
Y037244D01*
D02*
G37*
G36*
X052758D02*
X05264D01*
Y037126D01*
X052658Y037129D01*
X052716Y037168D01*
X052755Y037226D01*
X052758Y037244D01*
D02*
G37*
G36*
X05254D02*
X052422D01*
X052425Y037226D01*
X052464Y037168D01*
X052522Y037129D01*
X05254Y037126D01*
Y037244D01*
D02*
G37*
G36*
X039981Y037005D02*
X039884Y036985D01*
X039838Y036955D01*
X039814Y036954D01*
X037554D01*
X037476Y036938D01*
X03741Y036894D01*
X034701Y034185D01*
X034657Y034119D01*
X034641Y034041D01*
Y03145D01*
X034657Y031372D01*
X034701Y031306D01*
X036206Y029801D01*
Y029524D01*
X036205Y029502D01*
X0362Y02947D01*
X036195Y029446D01*
X036195Y029446D01*
X036107Y029378D01*
X036039Y029289D01*
X035996Y029186D01*
X035981Y029075D01*
Y028925D01*
X035996Y028814D01*
X036039Y028711D01*
X036107Y028622D01*
X036164Y028578D01*
X036166Y028572D01*
X036173Y028536D01*
X036181Y028449D01*
Y02599D01*
X036198Y025902D01*
X036248Y025828D01*
X037188Y024888D01*
X037262Y024838D01*
X03735Y024821D01*
X041076D01*
X041086Y02482D01*
X041087Y02482D01*
X041129Y024788D01*
X041202Y024758D01*
X04128Y024747D01*
X041358Y024758D01*
X041431Y024788D01*
X041494Y024836D01*
X041542Y024899D01*
X041572Y024972D01*
X041583Y02505D01*
X041572Y025128D01*
X041542Y025201D01*
X041494Y025264D01*
X041431Y025312D01*
X041358Y025342D01*
X04128Y025353D01*
X041202Y025342D01*
X041129Y025312D01*
X041089Y025281D01*
X041059Y025279D01*
X037445D01*
X036639Y026085D01*
Y02804D01*
X036689Y028056D01*
X036714Y028019D01*
X036772Y02798D01*
X03679Y027977D01*
Y028145D01*
Y028314D01*
X036772Y02831D01*
X036714Y028271D01*
X036689Y028235D01*
X036639Y02825D01*
Y028456D01*
X036642Y02849D01*
X036647Y028535D01*
X036654Y028572D01*
X036656Y028578D01*
X036713Y028622D01*
X036781Y028711D01*
X036824Y028814D01*
X036839Y028925D01*
Y029075D01*
X036824Y029186D01*
X036781Y029289D01*
X036713Y029378D01*
X036625Y029446D01*
X036625Y029446D01*
X03662Y029469D01*
X036614Y02953D01*
Y029885D01*
X036598Y029963D01*
X036554Y030029D01*
X035049Y031534D01*
Y031834D01*
X035099Y031845D01*
X035177Y03175D01*
X035282Y031664D01*
X035402Y031599D01*
X035532Y03156D01*
X035668Y031547D01*
X035803Y03156D01*
X035933Y031599D01*
X036053Y031664D01*
X036158Y03175D01*
X036245Y031855D01*
X036309Y031975D01*
X036348Y032105D01*
X036362Y032241D01*
X036348Y032376D01*
X036309Y032506D01*
X036245Y032626D01*
X036158Y032731D01*
X036053Y032817D01*
X035933Y032882D01*
X035803Y032921D01*
X035668Y032934D01*
X035532Y032921D01*
X035402Y032882D01*
X035282Y032817D01*
X035177Y032731D01*
X035099Y032636D01*
X035049Y032647D01*
Y033956D01*
X037639Y036546D01*
X039836D01*
X039884Y036514D01*
X039981Y036495D01*
X040079Y036514D01*
X040161Y03657D01*
X040217Y036652D01*
X040236Y03675D01*
X040217Y036848D01*
X040161Y03693D01*
X040079Y036985D01*
X039981Y037005D01*
D02*
G37*
G36*
X052671Y036783D02*
Y036491D01*
X052963D01*
X052958Y036531D01*
X052923Y036615D01*
X052867Y036687D01*
X052795Y036743D01*
X052711Y036778D01*
X052671Y036783D01*
D02*
G37*
G36*
X052571D02*
X05253Y036778D01*
X052446Y036743D01*
X052374Y036687D01*
X052318Y036615D01*
X052283Y036531D01*
X052278Y036491D01*
X052571D01*
Y036783D01*
D02*
G37*
G36*
X053458D02*
Y036491D01*
X05375D01*
X053745Y036531D01*
X05371Y036615D01*
X053655Y036687D01*
X053582Y036743D01*
X053498Y036778D01*
X053458Y036783D01*
D02*
G37*
G36*
X053358D02*
X053318Y036778D01*
X053233Y036743D01*
X053161Y036687D01*
X053106Y036615D01*
X053071Y036531D01*
X053066Y036491D01*
X053358D01*
Y036783D01*
D02*
G37*
G36*
X042825Y037313D02*
X041975D01*
Y036463D01*
X042825D01*
Y037313D01*
D02*
G37*
G36*
X052571Y036391D02*
X052278D01*
X052283Y03635D01*
X052318Y036266D01*
X052374Y036194D01*
X052446Y036138D01*
X05253Y036103D01*
X052571Y036098D01*
Y036391D01*
D02*
G37*
G36*
X05375Y036391D02*
X053458D01*
Y036098D01*
X053498Y036103D01*
X053582Y036138D01*
X053655Y036194D01*
X05371Y036266D01*
X053745Y03635D01*
X05375Y036391D01*
D02*
G37*
G36*
X053358D02*
X053066D01*
X053071Y03635D01*
X053106Y036266D01*
X053161Y036194D01*
X053233Y036138D01*
X053318Y036103D01*
X053358Y036098D01*
Y036391D01*
D02*
G37*
G36*
X052963Y036391D02*
X052671D01*
Y036098D01*
X052711Y036103D01*
X052795Y036138D01*
X052867Y036194D01*
X052923Y036266D01*
X052958Y03635D01*
X052963Y036391D01*
D02*
G37*
G36*
X045093Y036787D02*
X0444D01*
Y036094D01*
X045093D01*
Y036787D01*
D02*
G37*
G36*
X051833Y03679D02*
X051743Y036778D01*
X051659Y036743D01*
X051586Y036687D01*
X051531Y036615D01*
X051496Y036531D01*
X051484Y036441D01*
X051496Y03635D01*
X051531Y036266D01*
X051586Y036194D01*
X051659Y036138D01*
X051743Y036103D01*
X051833Y036091D01*
X051923Y036103D01*
X052008Y036138D01*
X05208Y036194D01*
X052135Y036266D01*
X05217Y03635D01*
X052182Y036441D01*
X05217Y036531D01*
X052135Y036615D01*
X05208Y036687D01*
X052008Y036743D01*
X051923Y036778D01*
X051833Y03679D01*
D02*
G37*
G36*
X051046D02*
X050955Y036778D01*
X050871Y036743D01*
X050799Y036687D01*
X050743Y036615D01*
X050709Y036531D01*
X050697Y036441D01*
X050709Y03635D01*
X050743Y036266D01*
X050799Y036194D01*
X050871Y036138D01*
X050955Y036103D01*
X051046Y036091D01*
X051136Y036103D01*
X05122Y036138D01*
X051293Y036194D01*
X051348Y036266D01*
X051383Y03635D01*
X051395Y036441D01*
X051383Y036531D01*
X051348Y036615D01*
X051293Y036687D01*
X05122Y036743D01*
X051136Y036778D01*
X051046Y03679D01*
D02*
G37*
G36*
X050258D02*
X050168Y036778D01*
X050084Y036743D01*
X050012Y036687D01*
X049956Y036615D01*
X049921Y036531D01*
X049909Y036441D01*
X049921Y03635D01*
X049956Y036266D01*
X050012Y036194D01*
X050084Y036138D01*
X050168Y036103D01*
X050258Y036091D01*
X050349Y036103D01*
X050433Y036138D01*
X050505Y036194D01*
X050561Y036266D01*
X050596Y03635D01*
X050607Y036441D01*
X050596Y036531D01*
X050561Y036615D01*
X050505Y036687D01*
X050433Y036743D01*
X050349Y036778D01*
X050258Y03679D01*
D02*
G37*
G36*
X049471D02*
X049381Y036778D01*
X049296Y036743D01*
X049224Y036687D01*
X049169Y036615D01*
X049134Y036531D01*
X049122Y036441D01*
X049134Y03635D01*
X049169Y036266D01*
X049224Y036194D01*
X049296Y036138D01*
X049381Y036103D01*
X049471Y036091D01*
X049561Y036103D01*
X049645Y036138D01*
X049718Y036194D01*
X049773Y036266D01*
X049808Y03635D01*
X04982Y036441D01*
X049808Y036531D01*
X049773Y036615D01*
X049718Y036687D01*
X049645Y036743D01*
X049561Y036778D01*
X049471Y03679D01*
D02*
G37*
G36*
X048684D02*
X048593Y036778D01*
X048509Y036743D01*
X048437Y036687D01*
X048381Y036615D01*
X048346Y036531D01*
X048334Y036441D01*
X048346Y03635D01*
X048381Y036266D01*
X048437Y036194D01*
X048509Y036138D01*
X048593Y036103D01*
X048684Y036091D01*
X048774Y036103D01*
X048858Y036138D01*
X04893Y036194D01*
X048986Y036266D01*
X049021Y03635D01*
X049033Y036441D01*
X049021Y036531D01*
X048986Y036615D01*
X04893Y036687D01*
X048858Y036743D01*
X048774Y036778D01*
X048684Y03679D01*
D02*
G37*
G36*
X047896D02*
X047806Y036778D01*
X047722Y036743D01*
X047649Y036687D01*
X047594Y036615D01*
X047559Y036531D01*
X047547Y036441D01*
X047559Y03635D01*
X047594Y036266D01*
X047649Y036194D01*
X047722Y036138D01*
X047806Y036103D01*
X047896Y036091D01*
X047986Y036103D01*
X048071Y036138D01*
X048143Y036194D01*
X048198Y036266D01*
X048233Y03635D01*
X048245Y036441D01*
X048233Y036531D01*
X048198Y036615D01*
X048143Y036687D01*
X048071Y036743D01*
X047986Y036778D01*
X047896Y03679D01*
D02*
G37*
G36*
X047109D02*
X047018Y036778D01*
X046934Y036743D01*
X046862Y036687D01*
X046806Y036615D01*
X046772Y036531D01*
X04676Y036441D01*
X046772Y03635D01*
X046806Y036266D01*
X046862Y036194D01*
X046934Y036138D01*
X047018Y036103D01*
X047109Y036091D01*
X047199Y036103D01*
X047283Y036138D01*
X047356Y036194D01*
X047411Y036266D01*
X047446Y03635D01*
X047458Y036441D01*
X047446Y036531D01*
X047411Y036615D01*
X047356Y036687D01*
X047283Y036743D01*
X047199Y036778D01*
X047109Y03679D01*
D02*
G37*
G36*
X045534D02*
X045444Y036778D01*
X045359Y036743D01*
X045287Y036687D01*
X045232Y036615D01*
X045197Y036531D01*
X045185Y036441D01*
X045197Y03635D01*
X045232Y036266D01*
X045287Y036194D01*
X045359Y036138D01*
X045444Y036103D01*
X045534Y036091D01*
X045624Y036103D01*
X045708Y036138D01*
X045781Y036194D01*
X045836Y036266D01*
X045871Y03635D01*
X045883Y036441D01*
X045871Y036531D01*
X045836Y036615D01*
X045781Y036687D01*
X045708Y036743D01*
X045624Y036778D01*
X045534Y03679D01*
D02*
G37*
G36*
X04245Y03631D02*
Y035938D01*
X042822D01*
X042814Y035999D01*
X042771Y036102D01*
X042703Y036191D01*
X042614Y036259D01*
X042511Y036302D01*
X04245Y03631D01*
D02*
G37*
G36*
X04235Y03631D02*
X042289Y036302D01*
X042186Y036259D01*
X042097Y036191D01*
X042029Y036102D01*
X041986Y035999D01*
X041978Y035938D01*
X04235D01*
Y03631D01*
D02*
G37*
G36*
X042822Y035838D02*
X04245D01*
Y035466D01*
X042511Y035474D01*
X042614Y035517D01*
X042703Y035585D01*
X042771Y035674D01*
X042814Y035777D01*
X042822Y035838D01*
D02*
G37*
G36*
X04235D02*
X041978D01*
X041986Y035777D01*
X042029Y035674D01*
X042097Y035585D01*
X042186Y035517D01*
X042289Y035474D01*
X04235Y035466D01*
Y035838D01*
D02*
G37*
G36*
X042059Y035268D02*
Y03515D01*
X042177D01*
X042174Y035168D01*
X042135Y035226D01*
X042077Y035265D01*
X042059Y035268D01*
D02*
G37*
G36*
X041959D02*
X041941Y035265D01*
X041883Y035226D01*
X041844Y035168D01*
X04184Y03515D01*
X041959D01*
Y035268D01*
D02*
G37*
G36*
X043269Y035248D02*
Y03513D01*
X043387D01*
X043384Y035148D01*
X043345Y035206D01*
X043287Y035245D01*
X043269Y035248D01*
D02*
G37*
G36*
X043169D02*
X043151Y035245D01*
X043093Y035206D01*
X043054Y035148D01*
X04305Y03513D01*
X043169D01*
Y035248D01*
D02*
G37*
G36*
X042624D02*
Y03513D01*
X042742D01*
X042739Y035148D01*
X0427Y035206D01*
X042642Y035245D01*
X042624Y035248D01*
D02*
G37*
G36*
X042524D02*
X042505Y035245D01*
X042448Y035206D01*
X042409Y035148D01*
X042405Y03513D01*
X042524D01*
Y035248D01*
D02*
G37*
G36*
X05249Y035428D02*
X052422Y035415D01*
X052381Y035388D01*
X0515D01*
X051447Y035377D01*
X051403Y035347D01*
X050653Y034597D01*
X050623Y034553D01*
X050612Y0345D01*
Y033988D01*
X04835D01*
X048297Y033977D01*
X048253Y033947D01*
X048253Y033947D01*
X047993Y033688D01*
X046251D01*
X046222Y03373D01*
X046193Y03375D01*
X046208Y0338D01*
X046292D01*
Y033912D01*
X047391D01*
X047432Y033885D01*
X0475Y033872D01*
X047568Y033885D01*
X047626Y033924D01*
X047665Y033982D01*
X047678Y03405D01*
X047665Y034118D01*
X047626Y034176D01*
X047568Y034215D01*
X0475Y034228D01*
X047432Y034215D01*
X047391Y034188D01*
X046292D01*
Y0343D01*
X045708D01*
Y0338D01*
X045792D01*
X045807Y03375D01*
X045778Y03373D01*
X045722Y033648D01*
X045703Y03355D01*
X045722Y033452D01*
X045778Y03337D01*
X045839Y033328D01*
Y033272D01*
X045778Y03323D01*
X045722Y033148D01*
X045703Y03305D01*
X045722Y032952D01*
X045778Y03287D01*
X045839Y032828D01*
Y032772D01*
X045778Y03273D01*
X045722Y032648D01*
X045713Y0326D01*
X046D01*
X046173D01*
Y03262D01*
X046174Y032613D01*
X046176Y032607D01*
X046181Y032602D01*
X046183Y0326D01*
X046287D01*
X046278Y032648D01*
X046222Y03273D01*
X046161Y032772D01*
Y032828D01*
X046222Y03287D01*
X046278Y032952D01*
X046297Y03305D01*
X046278Y033148D01*
X046222Y03323D01*
X046161Y033272D01*
Y033328D01*
X046222Y03337D01*
X046251Y033412D01*
X047624D01*
X047639Y033362D01*
X047624Y033352D01*
X047585Y033294D01*
X047582Y033276D01*
X047694D01*
X047696Y033279D01*
Y033276D01*
X047918D01*
X047915Y033294D01*
X047876Y033352D01*
X047861Y033362D01*
X047876Y033412D01*
X04805D01*
X048103Y033423D01*
X048147Y033453D01*
X048407Y033712D01*
X048782D01*
X048801Y033666D01*
X045488Y030353D01*
X044699D01*
X044658Y03038D01*
X04459Y030394D01*
X044522Y03038D01*
X044504Y030368D01*
X044454Y030395D01*
Y03345D01*
X044462Y033462D01*
X044479Y03355D01*
X044462Y033638D01*
X044412Y033712D01*
X044338Y033762D01*
X04425Y033779D01*
X044162Y033762D01*
X044088Y033712D01*
X044038Y033638D01*
X044021Y03355D01*
X044038Y033462D01*
X044046Y03345D01*
Y0299D01*
Y029634D01*
X043866Y029454D01*
X04355D01*
X043538Y029462D01*
X04345Y029479D01*
X043362Y029462D01*
X043288Y029412D01*
X043238Y029338D01*
X043228Y029288D01*
X043174Y029271D01*
X041037Y031407D01*
Y032241D01*
X041065Y032282D01*
X041078Y03235D01*
X041065Y032418D01*
X041026Y032476D01*
X040968Y032515D01*
X0409Y032528D01*
X040888Y032526D01*
X040858Y032571D01*
X040865Y032582D01*
X040878Y03265D01*
X040865Y032718D01*
X040826Y032776D01*
X040815Y032784D01*
X040817Y032813D01*
X040823Y032838D01*
X040876Y032874D01*
X040915Y032932D01*
X040928Y033D01*
X040928Y033004D01*
X040959Y033042D01*
X043377D01*
X043385Y033003D01*
X043412Y032962D01*
Y030009D01*
X043385Y029968D01*
X043372Y0299D01*
X043385Y029832D01*
X043424Y029774D01*
X043482Y029735D01*
X04355Y029722D01*
X043618Y029735D01*
X043675Y029773D01*
X043732Y029735D01*
X0438Y029722D01*
X043868Y029735D01*
X043926Y029774D01*
X043965Y029832D01*
X043978Y0299D01*
X043965Y029968D01*
X043938Y030009D01*
Y033163D01*
X043965Y033203D01*
X043978Y033271D01*
X043965Y03334D01*
X043926Y033398D01*
X043868Y033436D01*
X04382Y033446D01*
X043819Y033447D01*
X043774Y033477D01*
X043721Y033488D01*
X039235D01*
X039182Y033477D01*
X039137Y033447D01*
X039137Y033447D01*
X039014Y033324D01*
X039009Y03332D01*
X038999Y033314D01*
X038983Y033309D01*
X038961Y033304D01*
X038932Y033301D01*
X038898Y033301D01*
X038859Y033303D01*
X03876Y033319D01*
X038727Y033326D01*
X038715Y033331D01*
X038581Y033349D01*
X038447Y033331D01*
X038322Y03328D01*
X038215Y033197D01*
X038133Y03309D01*
X038081Y032965D01*
X038063Y032831D01*
X038081Y032697D01*
X038133Y032572D01*
X038215Y032465D01*
X038322Y032383D01*
X038447Y032331D01*
X038581Y032313D01*
X038715Y032331D01*
X03884Y032383D01*
X038947Y032465D01*
X03903Y032572D01*
X039081Y032697D01*
X039084Y032719D01*
X039149Y032977D01*
X039175Y033062D01*
X039186Y033091D01*
X039196Y033112D01*
X0392Y033121D01*
X039292Y033212D01*
X039883D01*
X039903Y033166D01*
X038949Y032213D01*
X038946Y032211D01*
X038935Y032204D01*
X038916Y032197D01*
X038889Y032189D01*
X038855Y032181D01*
X038816Y032176D01*
X03865Y032165D01*
X0386Y032165D01*
X038581Y032168D01*
X038447Y03215D01*
X038322Y032098D01*
X038215Y032016D01*
X038133Y031909D01*
X038081Y031784D01*
X038063Y03165D01*
X038081Y031516D01*
X038133Y031391D01*
X038215Y031284D01*
X038322Y031202D01*
X038447Y03115D01*
X038581Y031132D01*
X038715Y03115D01*
X03884Y031202D01*
X038947Y031284D01*
X03903Y031391D01*
X039081Y031516D01*
X039099Y03165D01*
X039097Y031667D01*
X039098Y031781D01*
X039107Y031884D01*
X039113Y031924D01*
X03912Y031958D01*
X039128Y031985D01*
X039135Y032004D01*
X039142Y032015D01*
X039144Y032018D01*
X040168Y033042D01*
X040541D01*
X040572Y033004D01*
X040572Y033D01*
X040585Y032932D01*
X040624Y032874D01*
X040635Y032866D01*
X040633Y032837D01*
X040627Y032812D01*
X040574Y032776D01*
X040535Y032718D01*
X040522Y03265D01*
X040535Y032582D01*
X040562Y032541D01*
Y031257D01*
X040573Y031204D01*
X040603Y03116D01*
X040767Y030995D01*
X040753Y030947D01*
X040742Y030945D01*
X040684Y030906D01*
X040645Y030848D01*
X040632Y03078D01*
X040645Y030712D01*
X040684Y030654D01*
X040742Y030615D01*
X04079Y030606D01*
X044543Y026853D01*
X044587Y026823D01*
X04464Y026812D01*
X046103D01*
X046117Y026782D01*
X046121Y026762D01*
X046085Y026708D01*
X046082Y02669D01*
X046192D01*
X046192Y02669D01*
X046196Y026693D01*
X0462Y026696D01*
X0462Y02669D01*
X046418D01*
X046415Y026708D01*
X046379Y026762D01*
X046383Y026782D01*
X046397Y026812D01*
X050998D01*
X051028Y026766D01*
X051028Y026762D01*
X050974Y026726D01*
X050935Y026668D01*
X050927Y026626D01*
X050623Y026322D01*
X050613Y026308D01*
X050343Y026038D01*
X044505D01*
X044474Y026076D01*
X044478Y0261D01*
X044465Y026168D01*
X044426Y026226D01*
X044368Y026265D01*
X0443Y026278D01*
X044232Y026265D01*
X044191Y026238D01*
X041027D01*
X040128Y027137D01*
Y02978D01*
X040128Y02978D01*
X040117Y029833D01*
X040087Y029877D01*
X040087Y029877D01*
X039032Y030933D01*
X038987Y030962D01*
X038935Y030973D01*
X038097D01*
X037869Y031201D01*
X037865Y031206D01*
X037859Y031216D01*
X037854Y031231D01*
X03785Y031251D01*
X037849Y031277D01*
X03785Y03131D01*
X037854Y031346D01*
X037875Y03144D01*
X037891Y031493D01*
X037891Y031494D01*
X0379Y031516D01*
X037918Y03165D01*
X0379Y031784D01*
X037848Y031909D01*
X037766Y032016D01*
X037659Y032098D01*
X037534Y03215D01*
X0374Y032168D01*
X037266Y03215D01*
X037141Y032098D01*
X037034Y032016D01*
X036952Y031909D01*
X036938Y031875D01*
X036888Y031885D01*
Y032596D01*
X036938Y032606D01*
X036952Y032572D01*
X037034Y032465D01*
X037141Y032383D01*
X037266Y032331D01*
X03735Y03232D01*
Y032831D01*
Y033342D01*
X037266Y033331D01*
X037141Y03328D01*
X037034Y033197D01*
X036952Y03309D01*
X036938Y033056D01*
X036888Y033066D01*
Y033643D01*
X037407Y034162D01*
X038261D01*
X038302Y034135D01*
X03837Y034122D01*
X038438Y034135D01*
X038496Y034174D01*
X038535Y034232D01*
X038548Y0343D01*
X038535Y034368D01*
X038496Y034426D01*
X038438Y034465D01*
X03837Y034478D01*
X038302Y034465D01*
X038261Y034438D01*
X03735D01*
X037297Y034427D01*
X037253Y034397D01*
X036653Y033797D01*
X036639Y033796D01*
X036102Y034332D01*
X036102Y034333D01*
X036066Y034386D01*
X036008Y034425D01*
X03594Y034438D01*
X035872Y034425D01*
X035814Y034386D01*
X035775Y034328D01*
X035762Y03426D01*
X035775Y034192D01*
X035814Y034134D01*
X035872Y034095D01*
X03594Y034082D01*
X03596Y034086D01*
X036412Y033633D01*
Y03074D01*
X036423Y030687D01*
X036453Y030643D01*
X036977Y030118D01*
X037022Y030088D01*
X037075Y030078D01*
X038888D01*
X039432Y029533D01*
Y02688D01*
X039443Y026827D01*
X039473Y026783D01*
X040593Y025663D01*
X040637Y025633D01*
X04069Y025622D01*
X050458D01*
X050511Y025633D01*
X050555Y025663D01*
X05087Y025978D01*
X0509Y025972D01*
X050968Y025985D01*
X051026Y026024D01*
X051065Y026082D01*
X051078Y02615D01*
X051065Y026218D01*
X051026Y026276D01*
X051023Y026278D01*
X051018Y026328D01*
X051115Y026424D01*
X051168Y026435D01*
X051226Y026474D01*
X051265Y026532D01*
X051278Y0266D01*
X051265Y026668D01*
X051226Y026726D01*
X051172Y026762D01*
X051172Y026766D01*
X051202Y026812D01*
X053191D01*
X053232Y026785D01*
X0533Y026772D01*
X053368Y026785D01*
X053426Y026824D01*
X053465Y026882D01*
X053478Y02695D01*
X053465Y027018D01*
X053426Y027076D01*
X053368Y027115D01*
X0533Y027128D01*
X053232Y027115D01*
X053191Y027088D01*
X051105D01*
X051074Y027126D01*
X051078Y02715D01*
X051065Y027218D01*
X051026Y027276D01*
X050968Y027315D01*
X05093Y027322D01*
X0509Y027329D01*
X050894Y027377D01*
X050898Y0274D01*
X050885Y027468D01*
X050846Y027526D01*
X050788Y027565D01*
X05072Y027578D01*
X050715Y027577D01*
X050672Y02762D01*
X050678Y02765D01*
X050673Y027677D01*
X050705Y027715D01*
X054611D01*
X054614Y027715D01*
X054623Y027712D01*
X054634Y027706D01*
X054648Y027698D01*
X054665Y027686D01*
X054683Y027672D01*
X054728Y027633D01*
X054748Y027612D01*
X054753Y027606D01*
X054825Y027551D01*
X05491Y027516D01*
X055Y027504D01*
X05509Y027516D01*
X055175Y027551D01*
X055247Y027606D01*
X055302Y027679D01*
X055337Y027763D01*
X055349Y027853D01*
X055337Y027943D01*
X055302Y028028D01*
X055247Y0281D01*
X055175Y028155D01*
X05509Y02819D01*
X055Y028202D01*
X05491Y02819D01*
X054825Y028155D01*
X054753Y0281D01*
X054748Y028094D01*
X054728Y028074D01*
X054683Y028034D01*
X054665Y02802D01*
X054648Y028009D01*
X054634Y028D01*
X054623Y027995D01*
X054614Y027992D01*
X054611Y027991D01*
X046309D01*
X046268Y028018D01*
X0462Y028032D01*
X046132Y028018D01*
X046074Y027979D01*
X046035Y027921D01*
X046022Y027853D01*
X046027Y027826D01*
X045995Y027788D01*
X044657D01*
X043471Y028974D01*
X043488Y029028D01*
X043538Y029038D01*
X04355Y029046D01*
X04395D01*
X044028Y029062D01*
X044094Y029106D01*
X044394Y029406D01*
X044425Y029452D01*
X044482Y029456D01*
X044484Y029453D01*
X044542Y029415D01*
X04461Y029401D01*
X044678Y029415D01*
X044719Y029442D01*
X04522D01*
X045272Y029452D01*
X045317Y029482D01*
X049067Y033232D01*
X051311D01*
X051352Y033205D01*
X05142Y033192D01*
X051488Y033205D01*
X051546Y033244D01*
X051585Y033302D01*
X051598Y03337D01*
X051585Y033438D01*
X051546Y033496D01*
X051488Y033535D01*
X05145Y033542D01*
X05142Y033549D01*
X051414Y033597D01*
X051418Y03362D01*
X051405Y033688D01*
X051366Y033746D01*
X051308Y033785D01*
X05124Y033798D01*
X051172Y033785D01*
X051131Y033758D01*
X050954D01*
X05092Y033808D01*
X050928Y03385D01*
X050915Y033918D01*
X050914Y033919D01*
X050917Y033942D01*
X05095Y03397D01*
Y03415D01*
Y034204D01*
X050947D01*
X05095Y034206D01*
Y034318D01*
X050938Y034316D01*
X050921Y034321D01*
X050888Y034338D01*
Y034443D01*
X051557Y035112D01*
X052381D01*
X052422Y035085D01*
X05249Y035072D01*
X052558Y035085D01*
X052616Y035124D01*
X052655Y035182D01*
X052668Y03525D01*
X052655Y035318D01*
X052616Y035376D01*
X052558Y035415D01*
X05249Y035428D01*
D02*
G37*
G36*
X05505Y035282D02*
Y03499D01*
X055342D01*
X055337Y03503D01*
X055302Y035114D01*
X055247Y035187D01*
X055175Y035242D01*
X05509Y035277D01*
X05505Y035282D01*
D02*
G37*
G36*
X05495D02*
X05491Y035277D01*
X054825Y035242D01*
X054753Y035187D01*
X054698Y035114D01*
X054663Y03503D01*
X054658Y03499D01*
X05495D01*
Y035282D01*
D02*
G37*
G36*
X055Y03494D02*
D01*
D01*
D01*
D02*
G37*
G36*
X042177Y03505D02*
X042059D01*
Y034931D01*
X042077Y034935D01*
X042135Y034974D01*
X042174Y035031D01*
X042177Y03505D01*
D02*
G37*
G36*
X041959D02*
X04184D01*
X041844Y035031D01*
X041883Y034974D01*
X041941Y034935D01*
X041959Y034931D01*
Y03505D01*
D02*
G37*
G36*
X043387Y03503D02*
X043269D01*
Y034911D01*
X043287Y034915D01*
X043345Y034954D01*
X043384Y035011D01*
X043387Y03503D01*
D02*
G37*
G36*
X043169D02*
X04305D01*
X043054Y035011D01*
X043093Y034954D01*
X043151Y034915D01*
X043169Y034911D01*
Y03503D01*
D02*
G37*
G36*
X042742D02*
X042624D01*
Y034911D01*
X042642Y034915D01*
X0427Y034954D01*
X042739Y035011D01*
X042742Y03503D01*
D02*
G37*
G36*
X042524D02*
X042405D01*
X042409Y035011D01*
X042448Y034954D01*
X042505Y034915D01*
X042524Y034911D01*
Y03503D01*
D02*
G37*
G36*
X055342Y03489D02*
X05505D01*
Y034597D01*
X05509Y034603D01*
X055175Y034637D01*
X055247Y034693D01*
X055302Y034765D01*
X055337Y034849D01*
X055342Y03489D01*
D02*
G37*
G36*
X05495D02*
X054658D01*
X054663Y034849D01*
X054698Y034765D01*
X054753Y034693D01*
X054825Y034637D01*
X05491Y034603D01*
X05495Y034597D01*
Y03489D01*
D02*
G37*
G36*
X05254Y034695D02*
Y034576D01*
X052658D01*
X052655Y034595D01*
X052616Y034652D01*
X052558Y034691D01*
X05254Y034695D01*
D02*
G37*
G36*
X05244D02*
X052422Y034691D01*
X052364Y034652D01*
X052325Y034595D01*
X052322Y034576D01*
X052434D01*
X052436Y034579D01*
Y034576D01*
X05244D01*
Y034695D01*
D02*
G37*
G36*
Y034476D02*
X052436D01*
Y034474D01*
X052434Y034476D01*
X052322D01*
X052325Y034458D01*
X052364Y0344D01*
X052422Y034361D01*
X05244Y034358D01*
Y034476D01*
D02*
G37*
G36*
X052658D02*
X05254D01*
Y034358D01*
X052558Y034361D01*
X052616Y0344D01*
X052655Y034458D01*
X052658Y034476D01*
D02*
G37*
G36*
X05505Y034495D02*
Y034202D01*
X055342D01*
X055337Y034243D01*
X055302Y034327D01*
X055247Y034399D01*
X055175Y034455D01*
X05509Y03449D01*
X05505Y034495D01*
D02*
G37*
G36*
X05495D02*
X05491Y03449D01*
X054825Y034455D01*
X054753Y034399D01*
X054698Y034327D01*
X054663Y034243D01*
X054658Y034202D01*
X05495D01*
Y034495D01*
D02*
G37*
G36*
X05105Y034318D02*
Y034206D01*
X051052Y034204D01*
X05105D01*
Y0342D01*
X051168D01*
X051165Y034218D01*
X051126Y034276D01*
X051068Y034315D01*
X05105Y034318D01*
D02*
G37*
G36*
X051168Y0341D02*
X05105D01*
Y033982D01*
X051068Y033985D01*
X051126Y034024D01*
X051165Y034082D01*
X051168Y0341D01*
D02*
G37*
G36*
X055342Y034102D02*
X05505D01*
Y03381D01*
X05509Y033815D01*
X055175Y03385D01*
X055247Y033906D01*
X055302Y033978D01*
X055337Y034062D01*
X055342Y034102D01*
D02*
G37*
G36*
X05495D02*
X054658D01*
X054663Y034062D01*
X054698Y033978D01*
X054753Y033906D01*
X054825Y03385D01*
X05491Y033815D01*
X05495Y03381D01*
Y034102D01*
D02*
G37*
G36*
X05505Y033707D02*
Y033415D01*
X055342D01*
X055337Y033455D01*
X055302Y033539D01*
X055247Y033612D01*
X055175Y033667D01*
X05509Y033702D01*
X05505Y033707D01*
D02*
G37*
G36*
X05495D02*
X05491Y033702D01*
X054825Y033667D01*
X054753Y033612D01*
X054698Y033539D01*
X054663Y033455D01*
X054658Y033415D01*
X05495D01*
Y033707D01*
D02*
G37*
G36*
X0477Y033176D02*
X047696D01*
Y033174D01*
X047694Y033176D01*
X047582D01*
X047585Y033158D01*
X047624Y0331D01*
X047682Y033061D01*
X0477Y033058D01*
Y033176D01*
D02*
G37*
G36*
X047918D02*
X0478D01*
Y033058D01*
X047818Y033061D01*
X047876Y0331D01*
X047915Y033158D01*
X047918Y033176D01*
D02*
G37*
G36*
X055342Y033315D02*
X05505D01*
Y033022D01*
X05509Y033028D01*
X055175Y033063D01*
X055247Y033118D01*
X055302Y03319D01*
X055337Y033275D01*
X055342Y033315D01*
D02*
G37*
G36*
X05495D02*
X054658D01*
X054663Y033275D01*
X054698Y03319D01*
X054753Y033118D01*
X054825Y033063D01*
X05491Y033028D01*
X05495Y033022D01*
Y033315D01*
D02*
G37*
G36*
X03745Y033342D02*
Y032881D01*
X037911D01*
X0379Y032965D01*
X037848Y03309D01*
X037766Y033197D01*
X037659Y03328D01*
X037534Y033331D01*
X03745Y033342D01*
D02*
G37*
G36*
X055Y032927D02*
X05491Y032915D01*
X054825Y03288D01*
X054753Y032824D01*
X054748Y032818D01*
X054728Y032798D01*
X054683Y032758D01*
X054665Y032745D01*
X054648Y032733D01*
X054634Y032725D01*
X054623Y032719D01*
X054614Y032716D01*
X054611Y032715D01*
X049877D01*
X049871Y032721D01*
X049869Y032723D01*
X049869Y032723D01*
X049869Y032724D01*
X049865Y032744D01*
X049826Y032802D01*
X049768Y03284D01*
X0497Y032854D01*
X049632Y03284D01*
X049574Y032802D01*
X049535Y032744D01*
X049522Y032675D01*
X049535Y032607D01*
X049568Y032557D01*
X049524Y032528D01*
X049485Y03247D01*
X049472Y032401D01*
X049485Y032333D01*
X049524Y032275D01*
X049582Y032237D01*
X04963Y032227D01*
X049846Y032011D01*
X049825Y031961D01*
X049791Y031938D01*
X048009D01*
X048009Y031938D01*
X047956Y031927D01*
X047911Y031897D01*
X047911Y031897D01*
X04578Y029766D01*
X045732Y029756D01*
X045674Y029717D01*
X045635Y02966D01*
X045622Y029591D01*
X045635Y029523D01*
X045674Y029465D01*
X045732Y029426D01*
X045775Y029418D01*
X045772Y0294D01*
X045785Y029332D01*
X045824Y029274D01*
X045882Y029235D01*
X04595Y029222D01*
X046018Y029235D01*
X046076Y029274D01*
X046115Y029332D01*
X046124Y02938D01*
X047923Y031178D01*
X047943Y031174D01*
X047974Y031158D01*
X047985Y031101D01*
X048024Y031043D01*
X048082Y031004D01*
X04815Y03099D01*
X048162Y030993D01*
X050612Y028543D01*
X050657Y028513D01*
X050709Y028503D01*
X054611D01*
X054614Y028502D01*
X054623Y028499D01*
X054634Y028494D01*
X054648Y028485D01*
X054665Y028474D01*
X054683Y02846D01*
X054728Y02842D01*
X054748Y0284D01*
X054753Y028394D01*
X054825Y028338D01*
X05491Y028303D01*
X055Y028291D01*
X05509Y028303D01*
X055175Y028338D01*
X055247Y028394D01*
X055302Y028466D01*
X055337Y02855D01*
X055349Y028641D01*
X055337Y028731D01*
X055302Y028815D01*
X055247Y028887D01*
X055175Y028943D01*
X05509Y028978D01*
X055Y02899D01*
X05491Y028978D01*
X054825Y028943D01*
X054753Y028887D01*
X054748Y028881D01*
X054728Y028861D01*
X054683Y028821D01*
X054665Y028807D01*
X054648Y028796D01*
X054634Y028788D01*
X054623Y028782D01*
X054614Y028779D01*
X054611Y028778D01*
X053338D01*
X053333Y028828D01*
X053368Y028835D01*
X053426Y028874D01*
X053465Y028932D01*
X053478Y029D01*
X053465Y029068D01*
X053438Y029109D01*
Y029679D01*
X053465Y02972D01*
X053478Y029788D01*
X053465Y029857D01*
X053426Y029914D01*
X053368Y029953D01*
X0533Y029967D01*
X053232Y029953D01*
X053174Y029914D01*
X053135Y029857D01*
X053122Y029788D01*
X053135Y02972D01*
X053162Y029679D01*
Y029109D01*
X053135Y029068D01*
X053122Y029D01*
X053135Y028932D01*
X053174Y028874D01*
X053232Y028835D01*
X053267Y028828D01*
X053262Y028778D01*
X050766D01*
X048317Y031227D01*
X048317Y031227D01*
X048317Y031228D01*
X048315Y031237D01*
X048276Y031295D01*
X048218Y031334D01*
X04819Y031339D01*
X048164Y03139D01*
X048164Y031393D01*
X048185Y031412D01*
X049262D01*
X049279Y031379D01*
X049284Y031362D01*
X049272Y0313D01*
X049285Y031232D01*
X049324Y031174D01*
X049382Y031135D01*
X04943Y031126D01*
X049651Y030904D01*
X049696Y030874D01*
X049749Y030864D01*
X054611D01*
X054614Y030863D01*
X054623Y03086D01*
X054634Y030854D01*
X054649Y030846D01*
X054666Y030834D01*
X054684Y03082D01*
X054729Y030781D01*
X054749Y030762D01*
X054753Y030756D01*
X054825Y0307D01*
X05491Y030666D01*
X055Y030654D01*
X05509Y030666D01*
X055175Y0307D01*
X055247Y030756D01*
X055302Y030828D01*
X055337Y030912D01*
X055349Y031003D01*
X055337Y031093D01*
X055302Y031177D01*
X055247Y03125D01*
X055175Y031305D01*
X05509Y03134D01*
X055Y031352D01*
X05491Y03134D01*
X054825Y031305D01*
X054753Y03125D01*
X054748Y031243D01*
X054727Y031222D01*
X054683Y031182D01*
X054665Y031168D01*
X054648Y031157D01*
X054634Y031148D01*
X054622Y031143D01*
X054614Y03114D01*
X054611Y031139D01*
X049806D01*
X049624Y03132D01*
X049616Y031362D01*
X049621Y031379D01*
X049638Y031412D01*
X050041D01*
X050082Y031385D01*
X05015Y031372D01*
X050218Y031385D01*
X050276Y031424D01*
X050315Y031482D01*
X050328Y03155D01*
X050323Y031578D01*
X050364Y031628D01*
X054615D01*
X054619Y031627D01*
X054628Y031624D01*
X054641Y031618D01*
X054658Y031609D01*
X054675Y031599D01*
X05475Y031545D01*
X054778Y031522D01*
X054787Y031517D01*
X054825Y031488D01*
X05491Y031453D01*
X055Y031441D01*
X05509Y031453D01*
X055175Y031488D01*
X055247Y031543D01*
X055302Y031616D01*
X055337Y0317D01*
X055349Y03179D01*
X055337Y031881D01*
X055302Y031965D01*
X055247Y032037D01*
X055175Y032092D01*
X05509Y032127D01*
X055Y032139D01*
X05491Y032127D01*
X054825Y032092D01*
X054753Y032037D01*
X054736Y032015D01*
X054731Y032011D01*
X054688Y031962D01*
X054672Y031945D01*
X054655Y03193D01*
X054641Y031919D01*
X054629Y031911D01*
X054619Y031906D01*
X054612Y031904D01*
X054609Y031903D01*
X050343D01*
X049856Y03239D01*
X049877Y03244D01*
X054611D01*
X054614Y032439D01*
X054623Y032436D01*
X054634Y032431D01*
X054648Y032422D01*
X054665Y032411D01*
X054683Y032397D01*
X054728Y032357D01*
X054748Y032337D01*
X054753Y032331D01*
X054825Y032275D01*
X05491Y03224D01*
X055Y032229D01*
X05509Y03224D01*
X055175Y032275D01*
X055247Y032331D01*
X055302Y032403D01*
X055337Y032487D01*
X055349Y032578D01*
X055337Y032668D01*
X055302Y032752D01*
X055247Y032824D01*
X055175Y03288D01*
X05509Y032915D01*
X055Y032927D01*
D02*
G37*
G36*
X037911Y032781D02*
X03745D01*
Y03232D01*
X037534Y032331D01*
X037659Y032383D01*
X037766Y032465D01*
X037848Y032572D01*
X0379Y032697D01*
X037911Y032781D01*
D02*
G37*
G36*
X043Y031668D02*
X042982Y031665D01*
X042924Y031626D01*
X042885Y031568D01*
X042882Y03155D01*
X04295D01*
X042947Y031554D01*
X042996Y031603D01*
X043Y0316D01*
Y031668D01*
D02*
G37*
G36*
X046321Y03679D02*
X046231Y036778D01*
X046147Y036743D01*
X046075Y036687D01*
X046019Y036615D01*
X045984Y036531D01*
X045972Y036441D01*
X045984Y03635D01*
X046019Y036266D01*
X046051Y036224D01*
X046055Y036216D01*
X0461Y036161D01*
X046133Y036115D01*
X046144Y036097D01*
X046153Y036081D01*
X046158Y036068D01*
X046162Y036058D01*
X046162Y036055D01*
Y035707D01*
X045053Y034597D01*
X045023Y034553D01*
X045012Y0345D01*
Y03195D01*
X045023Y031897D01*
X045053Y031853D01*
X045303Y031603D01*
X045303Y031603D01*
X045347Y031573D01*
X0454Y031562D01*
X046331D01*
X046384Y031573D01*
X046428Y031603D01*
X04702Y032194D01*
X047068Y032204D01*
X047126Y032243D01*
X047165Y032301D01*
X047178Y032369D01*
X047165Y032437D01*
X047126Y032495D01*
X047068Y032534D01*
X047Y032547D01*
X046932Y032534D01*
X046874Y032495D01*
X046835Y032437D01*
X046826Y032389D01*
X0463Y031864D01*
X046281Y031867D01*
X046258Y031922D01*
X046278Y031952D01*
X046297Y03205D01*
X046278Y032148D01*
X046222Y03223D01*
X046161Y032272D01*
Y032328D01*
X046222Y03237D01*
X046278Y032452D01*
X046287Y0325D01*
X046183D01*
X046181Y032498D01*
X046176Y032493D01*
X046174Y032487D01*
X046173Y03248D01*
Y0325D01*
X046D01*
X045713D01*
X045722Y032452D01*
X045778Y03237D01*
X045839Y032328D01*
Y032272D01*
X045778Y03223D01*
X045722Y032148D01*
X045703Y03205D01*
X045722Y031952D01*
X045766Y031888D01*
X045743Y031838D01*
X045457D01*
X045288Y032007D01*
Y034443D01*
X046397Y035553D01*
X046397Y035553D01*
X046427Y035597D01*
X046438Y03565D01*
X046438Y03565D01*
Y03605D01*
X046438Y036053D01*
X046441Y03606D01*
X046446Y03607D01*
X046454Y036083D01*
X046465Y036097D01*
X046479Y036113D01*
X046519Y036152D01*
X046544Y036173D01*
X046548Y036178D01*
X046568Y036194D01*
X046624Y036266D01*
X046659Y03635D01*
X04667Y036441D01*
X046659Y036531D01*
X046624Y036615D01*
X046568Y036687D01*
X046496Y036743D01*
X046412Y036778D01*
X046321Y03679D01*
D02*
G37*
G36*
X0431Y031668D02*
Y03155D01*
X043218D01*
X043215Y031568D01*
X043176Y031626D01*
X043118Y031665D01*
X0431Y031668D01*
D02*
G37*
G36*
X043218Y03145D02*
X0431D01*
Y031332D01*
X043118Y031335D01*
X043176Y031374D01*
X043215Y031432D01*
X043218Y03145D01*
D02*
G37*
G36*
X043D02*
X042882D01*
X042885Y031432D01*
X042924Y031374D01*
X042982Y031335D01*
X043Y031332D01*
Y03145D01*
D02*
G37*
G36*
X04925Y031128D02*
X049182Y031115D01*
X049124Y031076D01*
X049085Y031018D01*
X049072Y03095D01*
X049085Y030882D01*
X049124Y030824D01*
X049182Y030785D01*
X04923Y030776D01*
X049868Y030137D01*
X049913Y030108D01*
X049965Y030097D01*
X049965Y030097D01*
X054609D01*
X054612Y030096D01*
X05462Y030094D01*
X05463Y030088D01*
X054643Y03008D01*
X054657Y030069D01*
X054673Y030055D01*
X054713Y030015D01*
X054734Y029991D01*
X054739Y029987D01*
X054753Y029969D01*
X054825Y029913D01*
X05491Y029878D01*
X055Y029866D01*
X05509Y029878D01*
X055175Y029913D01*
X055247Y029969D01*
X055302Y030041D01*
X055337Y030125D01*
X055349Y030215D01*
X055337Y030306D01*
X055302Y03039D01*
X055247Y030462D01*
X055175Y030518D01*
X05509Y030553D01*
X055Y030564D01*
X05491Y030553D01*
X054825Y030518D01*
X05478Y030483D01*
X054772Y030479D01*
X054744Y030455D01*
X05472Y030435D01*
X054673Y030402D01*
X054656Y030391D01*
X054639Y030382D01*
X054627Y030376D01*
X054617Y030373D01*
X054614Y030372D01*
X050022D01*
X049424Y03097D01*
X049415Y031018D01*
X049376Y031076D01*
X049318Y031115D01*
X04925Y031128D01*
D02*
G37*
G36*
X04044Y029598D02*
Y02948D01*
X040558D01*
X040555Y029498D01*
X040516Y029556D01*
X040458Y029595D01*
X04044Y029598D01*
D02*
G37*
G36*
X04034D02*
X040322Y029595D01*
X040264Y029556D01*
X040225Y029498D01*
X040222Y02948D01*
X040332D01*
X040332Y02948D01*
X040334Y029485D01*
X040336Y02949D01*
X040337Y029496D01*
X040338Y029502D01*
X04034Y029515D01*
X04034Y029523D01*
X04034Y029531D01*
X04034D01*
Y029598D01*
D02*
G37*
G36*
X040558Y02938D02*
X04044D01*
Y029262D01*
X040458Y029265D01*
X040516Y029304D01*
X040555Y029362D01*
X040558Y02938D01*
D02*
G37*
G36*
X04034D02*
X040222D01*
X040225Y029362D01*
X040264Y029304D01*
X040322Y029265D01*
X04034Y029262D01*
Y02938D01*
D02*
G37*
G36*
X055Y029777D02*
X05491Y029765D01*
X054825Y02973D01*
X054753Y029675D01*
X054698Y029602D01*
X054663Y029518D01*
X054651Y029428D01*
X054663Y029338D01*
X054698Y029253D01*
X054753Y029181D01*
X054825Y029126D01*
X05491Y029091D01*
X055Y029079D01*
X05509Y029091D01*
X055175Y029126D01*
X055247Y029181D01*
X055302Y029253D01*
X055337Y029338D01*
X055349Y029428D01*
X055337Y029518D01*
X055302Y029602D01*
X055247Y029675D01*
X055175Y02973D01*
X05509Y029765D01*
X055Y029777D01*
D02*
G37*
G36*
X040443Y029079D02*
Y02896D01*
X040562D01*
X040558Y028978D01*
X040519Y029036D01*
X040462Y029075D01*
X040443Y029079D01*
D02*
G37*
G36*
X040343D02*
X040325Y029075D01*
X040267Y029036D01*
X040228Y028978D01*
X040225Y02896D01*
X040343D01*
Y029079D01*
D02*
G37*
G36*
X040562Y02886D02*
X040443D01*
Y028742D01*
X040462Y028745D01*
X040519Y028784D01*
X040558Y028842D01*
X040562Y02886D01*
D02*
G37*
G36*
X040343D02*
X040225D01*
X040228Y028842D01*
X040267Y028784D01*
X040325Y028745D01*
X040343Y028742D01*
Y02886D01*
D02*
G37*
G36*
X040423Y028514D02*
Y028395D01*
X040542D01*
X040538Y028413D01*
X040499Y028471D01*
X040442Y02851D01*
X040423Y028514D01*
D02*
G37*
G36*
X040323D02*
X040305Y02851D01*
X040247Y028471D01*
X040208Y028413D01*
X040205Y028395D01*
X040323D01*
Y028514D01*
D02*
G37*
G36*
X0468Y028429D02*
Y028311D01*
X046804D01*
Y028313D01*
X046806Y028311D01*
X046918D01*
X046915Y028329D01*
X046876Y028387D01*
X046818Y028426D01*
X0468Y028429D01*
D02*
G37*
G36*
X0467D02*
X046682Y028426D01*
X046624Y028387D01*
X046585Y028329D01*
X046582Y028311D01*
X0467D01*
Y028429D01*
D02*
G37*
G36*
X0519Y028418D02*
Y0283D01*
X052018D01*
X052015Y028318D01*
X051976Y028376D01*
X051918Y028415D01*
X0519Y028418D01*
D02*
G37*
G36*
X0518D02*
X051782Y028415D01*
X051724Y028376D01*
X051685Y028318D01*
X051682Y0283D01*
X051784D01*
X051786Y028301D01*
X051792Y028303D01*
X051796Y028305D01*
X0518Y028307D01*
Y028418D01*
D02*
G37*
G36*
X046918Y028211D02*
X046806D01*
X046804Y028208D01*
Y028211D01*
X0468D01*
Y028092D01*
X046818Y028096D01*
X046876Y028135D01*
X046915Y028192D01*
X046918Y028211D01*
D02*
G37*
G36*
X03689Y028314D02*
Y028195D01*
X037008D01*
X037005Y028213D01*
X036966Y028271D01*
X036908Y02831D01*
X03689Y028314D01*
D02*
G37*
G36*
X03812Y028304D02*
Y028185D01*
X038238D01*
X038235Y028203D01*
X038196Y028261D01*
X038138Y0283D01*
X03812Y028304D01*
D02*
G37*
G36*
X03802Y02819D02*
X03802Y028185D01*
X03802D01*
Y02819D01*
D02*
G37*
G36*
Y028304D02*
X038002Y0283D01*
X037944Y028261D01*
X037905Y028203D01*
X037902Y028185D01*
X038012D01*
X038012Y028185D01*
X038016Y028188D01*
X03802Y028191D01*
Y028304D01*
D02*
G37*
G36*
X040542Y028295D02*
X040423D01*
Y028177D01*
X040442Y02818D01*
X040499Y028219D01*
X040538Y028277D01*
X040542Y028295D01*
D02*
G37*
G36*
X040323D02*
X040205D01*
X040208Y028277D01*
X040247Y028219D01*
X040305Y02818D01*
X040323Y028177D01*
Y028295D01*
D02*
G37*
G36*
X0467Y028211D02*
X046582D01*
X046585Y028192D01*
X046624Y028135D01*
X046682Y028096D01*
X0467Y028092D01*
Y028211D01*
D02*
G37*
G36*
X03689Y028095D02*
X03689D01*
Y02809D01*
X03689Y028095D01*
D02*
G37*
G36*
X052018Y0282D02*
X0519D01*
Y028082D01*
X051918Y028085D01*
X051976Y028124D01*
X052015Y028182D01*
X052018Y0282D01*
D02*
G37*
G36*
X0518D02*
X051682D01*
X051685Y028182D01*
X051724Y028124D01*
X051782Y028085D01*
X0518Y028082D01*
Y0282D01*
D02*
G37*
G36*
X037008Y028095D02*
X036898D01*
X036898Y028095D01*
X036894Y028092D01*
X03689Y028089D01*
Y027977D01*
X036908Y02798D01*
X036966Y028019D01*
X037005Y028077D01*
X037008Y028095D01*
D02*
G37*
G36*
X038238Y028085D02*
X03812D01*
Y027967D01*
X038138Y02797D01*
X038196Y028009D01*
X038235Y028067D01*
X038238Y028085D01*
D02*
G37*
G36*
X03802D02*
X037902D01*
X037905Y028067D01*
X037944Y028009D01*
X038002Y02797D01*
X03802Y027967D01*
Y028085D01*
D02*
G37*
G36*
X055Y027415D02*
X05491Y027403D01*
X054825Y027368D01*
X054753Y027313D01*
X054698Y02724D01*
X054663Y027156D01*
X054651Y027066D01*
X054652Y027058D01*
X054652Y02703D01*
X054648Y02697D01*
X054645Y026947D01*
X054642Y026927D01*
X054637Y026911D01*
X054633Y026899D01*
X054629Y026891D01*
X054628Y026888D01*
X054377Y026638D01*
X051909D01*
X051868Y026665D01*
X0518Y026678D01*
X051732Y026665D01*
X051674Y026626D01*
X051635Y026568D01*
X051622Y0265D01*
X051635Y026432D01*
X051674Y026374D01*
X051732Y026335D01*
X0518Y026322D01*
X051868Y026335D01*
X051909Y026362D01*
X054434D01*
X054487Y026373D01*
X054532Y026403D01*
X054608Y026479D01*
X054654Y02646D01*
Y025932D01*
X055346D01*
Y026624D01*
X054827D01*
X054808Y02667D01*
X054836Y0267D01*
X054845Y026703D01*
X054861Y026707D01*
X054881Y026711D01*
X054904Y026714D01*
X054964Y026718D01*
X054992Y026718D01*
X055Y026717D01*
X05509Y026729D01*
X055175Y026763D01*
X055247Y026819D01*
X055302Y026891D01*
X055337Y026975D01*
X055349Y027066D01*
X055337Y027156D01*
X055302Y02724D01*
X055247Y027313D01*
X055175Y027368D01*
X05509Y027403D01*
X055Y027415D01*
D02*
G37*
G36*
X04235Y026818D02*
Y0267D01*
X042468D01*
X042465Y026718D01*
X042426Y026776D01*
X042368Y026815D01*
X04235Y026818D01*
D02*
G37*
G36*
X04225D02*
X042232Y026815D01*
X042174Y026776D01*
X042135Y026718D01*
X042132Y0267D01*
X04225D01*
Y026818D01*
D02*
G37*
G36*
X04235Y0266D02*
X04235D01*
Y026595D01*
X04235Y0266D01*
D02*
G37*
G36*
X042468D02*
X042358D01*
X042358Y0266D01*
X042354Y026597D01*
X04235Y026594D01*
Y026482D01*
X042368Y026485D01*
X042426Y026524D01*
X042465Y026582D01*
X042468Y0266D01*
D02*
G37*
G36*
X04225D02*
X042132D01*
X042135Y026582D01*
X042174Y026524D01*
X042232Y026485D01*
X04225Y026482D01*
Y0266D01*
D02*
G37*
G36*
X046418Y02659D02*
X0463D01*
Y026472D01*
X046318Y026475D01*
X046376Y026514D01*
X046415Y026572D01*
X046418Y02659D01*
D02*
G37*
G36*
X0462D02*
X046082D01*
X046085Y026572D01*
X046124Y026514D01*
X046182Y026475D01*
X0462Y026472D01*
Y02659D01*
D02*
G37*
G36*
X038765Y026524D02*
Y026405D01*
X038884D01*
X03888Y026423D01*
X038841Y026481D01*
X038783Y02652D01*
X038765Y026524D01*
D02*
G37*
G36*
X038665D02*
X038647Y02652D01*
X038589Y026481D01*
X03855Y026423D01*
X038547Y026405D01*
X038665D01*
Y026524D01*
D02*
G37*
G36*
X03812D02*
Y026405D01*
X038238D01*
X038235Y026423D01*
X038196Y026481D01*
X038138Y02652D01*
X03812Y026524D01*
D02*
G37*
G36*
X03802D02*
X038002Y02652D01*
X037944Y026481D01*
X037905Y026423D01*
X037902Y026405D01*
X03802D01*
Y026524D01*
D02*
G37*
G36*
X03933Y026504D02*
Y026385D01*
X039448D01*
X039445Y026403D01*
X039406Y026461D01*
X039348Y0265D01*
X03933Y026504D01*
D02*
G37*
G36*
X03923D02*
X039212Y0265D01*
X039154Y026461D01*
X039115Y026403D01*
X039112Y026385D01*
X03923D01*
Y026504D01*
D02*
G37*
G36*
X038884Y026305D02*
X038765D01*
Y026187D01*
X038783Y02619D01*
X038841Y026229D01*
X03888Y026287D01*
X038884Y026305D01*
D02*
G37*
G36*
X038665D02*
X038547D01*
X03855Y026287D01*
X038589Y026229D01*
X038647Y02619D01*
X038665Y026187D01*
Y026305D01*
D02*
G37*
G36*
X038238D02*
X03812D01*
Y026187D01*
X038138Y02619D01*
X038196Y026229D01*
X038235Y026287D01*
X038238Y026305D01*
D02*
G37*
G36*
X03802D02*
X037902D01*
X037905Y026287D01*
X037944Y026229D01*
X038002Y02619D01*
X03802Y026187D01*
Y026305D01*
D02*
G37*
G36*
X039448Y026285D02*
X03933D01*
Y026167D01*
X039348Y02617D01*
X039406Y026209D01*
X039445Y026267D01*
X039448Y026285D01*
D02*
G37*
G36*
X03923D02*
X039112D01*
X039115Y026267D01*
X039154Y026209D01*
X039212Y02617D01*
X03923Y026167D01*
Y026285D01*
D02*
G37*
G36*
X053474Y025183D02*
Y024891D01*
X053767D01*
X053762Y024931D01*
X053727Y025015D01*
X053671Y025087D01*
X053599Y025143D01*
X053515Y025178D01*
X053474Y025183D01*
D02*
G37*
G36*
X053374D02*
X053334Y025178D01*
X05325Y025143D01*
X053178Y025087D01*
X053122Y025015D01*
X053087Y024931D01*
X053082Y024891D01*
X053374D01*
Y025183D01*
D02*
G37*
G36*
Y024791D02*
X053082D01*
X053087Y02475D01*
X053122Y024666D01*
X053178Y024594D01*
X05325Y024538D01*
X053334Y024503D01*
X053374Y024498D01*
Y024791D01*
D02*
G37*
G36*
X053767D02*
X053474D01*
Y024498D01*
X053515Y024503D01*
X053599Y024538D01*
X053671Y024594D01*
X053727Y024666D01*
X053762Y02475D01*
X053767Y024791D01*
D02*
G37*
G36*
X045109Y025187D02*
X044417D01*
Y024494D01*
X045109D01*
Y025187D01*
D02*
G37*
G36*
X052637Y02519D02*
X052547Y025178D01*
X052462Y025143D01*
X05239Y025087D01*
X052335Y025015D01*
X0523Y024931D01*
X052288Y024841D01*
X0523Y02475D01*
X052335Y024666D01*
X05239Y024594D01*
X052462Y024538D01*
X052547Y024503D01*
X052637Y024492D01*
X052727Y024503D01*
X052812Y024538D01*
X052884Y024594D01*
X052939Y024666D01*
X052974Y02475D01*
X052986Y024841D01*
X052974Y024931D01*
X052939Y025015D01*
X052884Y025087D01*
X052812Y025143D01*
X052727Y025178D01*
X052637Y02519D01*
D02*
G37*
G36*
X05185D02*
X051759Y025178D01*
X051675Y025143D01*
X051603Y025087D01*
X051547Y025015D01*
X051512Y024931D01*
X051501Y024841D01*
X051512Y02475D01*
X051547Y024666D01*
X051603Y024594D01*
X051675Y024538D01*
X051759Y024503D01*
X05185Y024492D01*
X05194Y024503D01*
X052024Y024538D01*
X052096Y024594D01*
X052152Y024666D01*
X052187Y02475D01*
X052199Y024841D01*
X052187Y024931D01*
X052152Y025015D01*
X052096Y025087D01*
X052024Y025143D01*
X05194Y025178D01*
X05185Y02519D01*
D02*
G37*
G36*
X051062D02*
X050972Y025178D01*
X050888Y025143D01*
X050815Y025087D01*
X05076Y025015D01*
X050725Y024931D01*
X050713Y024841D01*
X050725Y02475D01*
X05076Y024666D01*
X050815Y024594D01*
X050888Y024538D01*
X050972Y024503D01*
X051062Y024492D01*
X051153Y024503D01*
X051237Y024538D01*
X051309Y024594D01*
X051364Y024666D01*
X051399Y02475D01*
X051411Y024841D01*
X051399Y024931D01*
X051364Y025015D01*
X051309Y025087D01*
X051237Y025143D01*
X051153Y025178D01*
X051062Y02519D01*
D02*
G37*
G36*
X050275D02*
X050184Y025178D01*
X0501Y025143D01*
X050028Y025087D01*
X049973Y025015D01*
X049938Y024931D01*
X049926Y024841D01*
X049938Y02475D01*
X049973Y024666D01*
X050028Y024594D01*
X0501Y024538D01*
X050184Y024503D01*
X050275Y024492D01*
X050365Y024503D01*
X050449Y024538D01*
X050522Y024594D01*
X050577Y024666D01*
X050612Y02475D01*
X050624Y024841D01*
X050612Y024931D01*
X050577Y025015D01*
X050522Y025087D01*
X050449Y025143D01*
X050365Y025178D01*
X050275Y02519D01*
D02*
G37*
G36*
X049487D02*
X049397Y025178D01*
X049313Y025143D01*
X049241Y025087D01*
X049185Y025015D01*
X04915Y024931D01*
X049138Y024841D01*
X04915Y02475D01*
X049185Y024666D01*
X049241Y024594D01*
X049313Y024538D01*
X049397Y024503D01*
X049487Y024492D01*
X049578Y024503D01*
X049662Y024538D01*
X049734Y024594D01*
X04979Y024666D01*
X049825Y02475D01*
X049836Y024841D01*
X049825Y024931D01*
X04979Y025015D01*
X049734Y025087D01*
X049662Y025143D01*
X049578Y025178D01*
X049487Y02519D01*
D02*
G37*
G36*
X0487D02*
X04861Y025178D01*
X048525Y025143D01*
X048453Y025087D01*
X048398Y025015D01*
X048363Y024931D01*
X048351Y024841D01*
X048363Y02475D01*
X048398Y024666D01*
X048453Y024594D01*
X048525Y024538D01*
X04861Y024503D01*
X0487Y024492D01*
X04879Y024503D01*
X048875Y024538D01*
X048947Y024594D01*
X049002Y024666D01*
X049037Y02475D01*
X049049Y024841D01*
X049037Y024931D01*
X049002Y025015D01*
X048947Y025087D01*
X048875Y025143D01*
X04879Y025178D01*
X0487Y02519D01*
D02*
G37*
G36*
X047913D02*
X047822Y025178D01*
X047738Y025143D01*
X047666Y025087D01*
X04761Y025015D01*
X047575Y024931D01*
X047564Y024841D01*
X047575Y02475D01*
X04761Y024666D01*
X047666Y024594D01*
X047738Y024538D01*
X047822Y024503D01*
X047913Y024492D01*
X048003Y024503D01*
X048087Y024538D01*
X048159Y024594D01*
X048215Y024666D01*
X04825Y02475D01*
X048262Y024841D01*
X04825Y024931D01*
X048215Y025015D01*
X048159Y025087D01*
X048087Y025143D01*
X048003Y025178D01*
X047913Y02519D01*
D02*
G37*
G36*
X047125D02*
X047035Y025178D01*
X046951Y025143D01*
X046878Y025087D01*
X046823Y025015D01*
X046788Y024931D01*
X046776Y024841D01*
X046788Y02475D01*
X046823Y024666D01*
X046878Y024594D01*
X046951Y024538D01*
X047035Y024503D01*
X047125Y024492D01*
X047216Y024503D01*
X0473Y024538D01*
X047372Y024594D01*
X047427Y024666D01*
X047462Y02475D01*
X047474Y024841D01*
X047462Y024931D01*
X047427Y025015D01*
X047372Y025087D01*
X0473Y025143D01*
X047216Y025178D01*
X047125Y02519D01*
D02*
G37*
G36*
X046338D02*
X046247Y025178D01*
X046163Y025143D01*
X046091Y025087D01*
X046036Y025015D01*
X046001Y024931D01*
X045989Y024841D01*
X046001Y02475D01*
X046036Y024666D01*
X046091Y024594D01*
X046163Y024538D01*
X046247Y024503D01*
X046338Y024492D01*
X046428Y024503D01*
X046512Y024538D01*
X046585Y024594D01*
X04664Y024666D01*
X046675Y02475D01*
X046687Y024841D01*
X046675Y024931D01*
X04664Y025015D01*
X046585Y025087D01*
X046512Y025143D01*
X046428Y025178D01*
X046338Y02519D01*
D02*
G37*
G36*
X04555D02*
X04546Y025178D01*
X045376Y025143D01*
X045304Y025087D01*
X045248Y025015D01*
X045213Y024931D01*
X045201Y024841D01*
X045213Y02475D01*
X045248Y024666D01*
X045304Y024594D01*
X045376Y024538D01*
X04546Y024503D01*
X04555Y024492D01*
X045641Y024503D01*
X045725Y024538D01*
X045797Y024594D01*
X045853Y024666D01*
X045888Y02475D01*
X045899Y024841D01*
X045888Y024931D01*
X045853Y025015D01*
X045797Y025087D01*
X045725Y025143D01*
X045641Y025178D01*
X04555Y02519D01*
D02*
G37*
G36*
X035825Y0295D02*
X034975D01*
Y0285D01*
X035169D01*
X035171Y028492D01*
X035172Y028483D01*
Y0256D01*
X035185Y025532D01*
X035224Y025474D01*
X036544Y024154D01*
X036602Y024115D01*
X03667Y024102D01*
X03667Y024102D01*
X043438D01*
X043442Y024101D01*
X043449Y0241D01*
X04345Y0241D01*
X04345Y0241D01*
X043532Y024044D01*
X04363Y024025D01*
X043728Y024044D01*
X04381Y0241D01*
X043865Y024182D01*
X043885Y02428D01*
X043865Y024378D01*
X04381Y02446D01*
X043728Y024516D01*
X04363Y024535D01*
X043532Y024516D01*
X04345Y02446D01*
X04345Y02446D01*
X043449Y02446D01*
X043443Y024459D01*
X043436Y024458D01*
X036744D01*
X035528Y025674D01*
Y028483D01*
X035529Y028492D01*
X035531Y0285D01*
X035825D01*
Y0295D01*
D02*
G37*
G36*
X038175Y024014D02*
Y023895D01*
X038294D01*
X03829Y023913D01*
X038251Y023971D01*
X038193Y02401D01*
X038175Y024014D01*
D02*
G37*
G36*
X038075D02*
X038057Y02401D01*
X037999Y023971D01*
X03796Y023913D01*
X037957Y023895D01*
X038075D01*
Y024014D01*
D02*
G37*
G36*
X039385Y023994D02*
Y023875D01*
X039504D01*
X0395Y023893D01*
X039461Y023951D01*
X039403Y02399D01*
X039385Y023994D01*
D02*
G37*
G36*
X039285D02*
X039267Y02399D01*
X039209Y023951D01*
X03917Y023893D01*
X039167Y023875D01*
X039285D01*
Y023994D01*
D02*
G37*
G36*
X03874D02*
Y023875D01*
X038858D01*
X038855Y023893D01*
X038816Y023951D01*
X038758Y02399D01*
X03874Y023994D01*
D02*
G37*
G36*
X03864D02*
X038622Y02399D01*
X038564Y023951D01*
X038525Y023893D01*
X038522Y023875D01*
X03864D01*
Y023994D01*
D02*
G37*
G36*
X052175Y023984D02*
Y023865D01*
X052294D01*
X05229Y023883D01*
X052251Y023941D01*
X052193Y02398D01*
X052175Y023984D01*
D02*
G37*
G36*
X052075D02*
X052057Y02398D01*
X051999Y023941D01*
X05196Y023883D01*
X051957Y023865D01*
X052075D01*
Y023984D01*
D02*
G37*
G36*
X053385Y023964D02*
Y023845D01*
X053504D01*
X0535Y023863D01*
X053461Y023921D01*
X053403Y02396D01*
X053385Y023964D01*
D02*
G37*
G36*
X053285D02*
X053267Y02396D01*
X053209Y023921D01*
X05317Y023863D01*
X053167Y023845D01*
X053285D01*
Y023964D01*
D02*
G37*
G36*
X05274D02*
Y023845D01*
X052858D01*
X052855Y023863D01*
X052816Y023921D01*
X052758Y02396D01*
X05274Y023964D01*
D02*
G37*
G36*
X05264D02*
X052622Y02396D01*
X052564Y023921D01*
X052525Y023863D01*
X052522Y023845D01*
X05264D01*
Y023964D01*
D02*
G37*
G36*
X038294Y023795D02*
X038175D01*
Y023677D01*
X038193Y02368D01*
X038251Y023719D01*
X03829Y023777D01*
X038294Y023795D01*
D02*
G37*
G36*
X038075D02*
X037957D01*
X03796Y023777D01*
X037999Y023719D01*
X038057Y02368D01*
X038075Y023677D01*
Y023795D01*
D02*
G37*
G36*
X039504Y023775D02*
X039385D01*
Y023657D01*
X039403Y02366D01*
X039461Y023699D01*
X0395Y023757D01*
X039504Y023775D01*
D02*
G37*
G36*
X039285D02*
X039167D01*
X03917Y023757D01*
X039209Y023699D01*
X039267Y02366D01*
X039285Y023657D01*
Y023775D01*
D02*
G37*
G36*
X038858D02*
X03874D01*
Y023657D01*
X038758Y02366D01*
X038816Y023699D01*
X038855Y023757D01*
X038858Y023775D01*
D02*
G37*
G36*
X03864D02*
X038522D01*
X038525Y023757D01*
X038564Y023699D01*
X038622Y02366D01*
X03864Y023657D01*
Y023775D01*
D02*
G37*
G36*
X052294Y023765D02*
X052175D01*
Y023647D01*
X052193Y02365D01*
X052251Y023689D01*
X05229Y023747D01*
X052294Y023765D01*
D02*
G37*
G36*
X052075D02*
X051957D01*
X05196Y023747D01*
X051999Y023689D01*
X052057Y02365D01*
X052075Y023647D01*
Y023765D01*
D02*
G37*
G36*
X053504Y023745D02*
X053385D01*
Y023627D01*
X053403Y02363D01*
X053461Y023669D01*
X0535Y023727D01*
X053504Y023745D01*
D02*
G37*
G36*
X053285D02*
X053167D01*
X05317Y023727D01*
X053209Y023669D01*
X053267Y02363D01*
X053285Y023627D01*
Y023745D01*
D02*
G37*
G36*
X052858D02*
X05274D01*
Y023627D01*
X052758Y02363D01*
X052816Y023669D01*
X052855Y023727D01*
X052858Y023745D01*
D02*
G37*
G36*
X05264D02*
X052522D01*
X052525Y023727D01*
X052564Y023669D01*
X052622Y02363D01*
X05264Y023627D01*
Y023745D01*
D02*
G37*
%LPD*%
G36*
X039874Y036645D02*
X039872Y036646D01*
X039869Y036647D01*
X039863Y036648D01*
X039848Y036649D01*
X039796Y03665D01*
X039779Y03665D01*
Y03685D01*
X039874Y036855D01*
Y036645D01*
D02*
G37*
G36*
X036511Y029535D02*
X036519Y029453D01*
X036526Y02942D01*
X036535Y029392D01*
X036546Y029369D01*
X036559Y029352D01*
X036574Y029339D01*
X03659Y029331D01*
X036609Y029329D01*
X036211D01*
X03623Y029331D01*
X036246Y029339D01*
X036261Y029352D01*
X036274Y029369D01*
X036285Y029392D01*
X036294Y02942D01*
X036301Y029453D01*
X036306Y029492D01*
X036309Y029535D01*
X03631Y029583D01*
X03651D01*
X036511Y029535D01*
D02*
G37*
G36*
X036635Y028717D02*
X036614Y028706D01*
X036596Y028689D01*
X03658Y028665D01*
X036566Y028634D01*
X036555Y028596D01*
X036546Y028551D01*
X03654Y028499D01*
X036536Y02844D01*
X036535Y028375D01*
X036285D01*
X036284Y02844D01*
X036274Y028551D01*
X036265Y028596D01*
X036254Y028634D01*
X03624Y028665D01*
X036224Y028689D01*
X036206Y028706D01*
X036184Y028717D01*
X036161Y02872D01*
X036659D01*
X036635Y028717D01*
D02*
G37*
G36*
X041137Y02491D02*
X041133Y024913D01*
X041127Y024915D01*
X041119Y024918D01*
X041109Y02492D01*
X041097Y024921D01*
X041066Y024924D01*
X041004Y024925D01*
Y025175D01*
X041027Y025175D01*
X041109Y02518D01*
X041119Y025182D01*
X041127Y025185D01*
X041133Y025187D01*
X041137Y02519D01*
Y02491D01*
D02*
G37*
G36*
X052436Y035198D02*
X052433Y035201D01*
X052429Y035204D01*
X052424Y035206D01*
X052419Y035209D01*
X052413Y035211D01*
X052407Y035212D01*
X052401Y035213D01*
X052394Y035214D01*
X052387Y035215D01*
X052379Y035215D01*
Y035285D01*
X052387Y035285D01*
X052401Y035287D01*
X052407Y035288D01*
X052413Y035289D01*
X052419Y035291D01*
X052424Y035294D01*
X052429Y035296D01*
X052433Y035299D01*
X052436Y035303D01*
Y035198D01*
D02*
G37*
G36*
X038316Y034248D02*
X038313Y034251D01*
X038309Y034254D01*
X038304Y034256D01*
X038299Y034259D01*
X038293Y034261D01*
X038287Y034262D01*
X038281Y034263D01*
X038274Y034264D01*
X038266Y034265D01*
X038259Y034265D01*
Y034335D01*
X038266Y034335D01*
X038281Y034337D01*
X038287Y034338D01*
X038293Y034339D01*
X038299Y034341D01*
X038304Y034344D01*
X038309Y034346D01*
X038313Y034349D01*
X038316Y034353D01*
Y034248D01*
D02*
G37*
G36*
X036011Y034285D02*
X036013Y034282D01*
X036015Y034278D01*
X036021Y03427D01*
X036029Y034261D01*
X036045Y034244D01*
X03602Y034171D01*
X036014Y034176D01*
X036008Y034181D01*
X036003Y034185D01*
X035998Y034188D01*
X035992Y03419D01*
X035987Y034192D01*
X035983Y034193D01*
X035978Y034193D01*
X035973Y034192D01*
X035969Y034191D01*
X03601Y034288D01*
X036011Y034285D01*
D02*
G37*
G36*
X047446Y033997D02*
X047443Y034001D01*
X047439Y034004D01*
X047434Y034006D01*
X047429Y034009D01*
X047423Y034011D01*
X047417Y034012D01*
X047411Y034013D01*
X047404Y034014D01*
X047397Y034015D01*
X047389Y034015D01*
Y034085D01*
X047397Y034085D01*
X047411Y034087D01*
X047417Y034088D01*
X047423Y034089D01*
X047429Y034091D01*
X047434Y034094D01*
X047439Y034096D01*
X047443Y034099D01*
X047446Y034102D01*
Y033997D01*
D02*
G37*
G36*
X04619Y034113D02*
X046193Y034107D01*
X046196Y034102D01*
X046201Y034098D01*
X046208Y034094D01*
X046215Y034091D01*
X046225Y034088D01*
X046235Y034086D01*
X046247Y034085D01*
X046261Y034085D01*
Y034015D01*
X046247Y034015D01*
X046235Y034014D01*
X046225Y034012D01*
X046215Y034009D01*
X046208Y034006D01*
X046201Y034002D01*
X046196Y033998D01*
X046193Y033993D01*
X04619Y033987D01*
X04619Y03398D01*
Y03412D01*
X04619Y034113D01*
D02*
G37*
G36*
X050785Y033953D02*
X050787Y033939D01*
X050788Y033933D01*
X050789Y033927D01*
X050791Y033921D01*
X050794Y033916D01*
X050796Y033911D01*
X050799Y033907D01*
X050802Y033904D01*
X050697D01*
X050701Y033907D01*
X050704Y033911D01*
X050706Y033916D01*
X050709Y033921D01*
X050711Y033927D01*
X050712Y033933D01*
X050713Y033939D01*
X050714Y033946D01*
X050715Y033953D01*
X050715Y033961D01*
X050785D01*
X050785Y033953D01*
D02*
G37*
G36*
X050696Y033798D02*
X050693Y033801D01*
X050689Y033804D01*
X050684Y033806D01*
X050679Y033809D01*
X050673Y033811D01*
X050667Y033812D01*
X050661Y033813D01*
X050654Y033814D01*
X050647Y033815D01*
X050639Y033815D01*
Y033885D01*
X050647Y033885D01*
X050661Y033887D01*
X050667Y033888D01*
X050673Y033889D01*
X050679Y033891D01*
X050684Y033894D01*
X050689Y033896D01*
X050693Y033899D01*
X050696Y033902D01*
Y033798D01*
D02*
G37*
G36*
X051186Y033568D02*
X051183Y033571D01*
X051179Y033574D01*
X051174Y033576D01*
X051169Y033579D01*
X051163Y033581D01*
X051157Y033582D01*
X051151Y033583D01*
X051144Y033584D01*
X051137Y033585D01*
X051129Y033585D01*
Y033655D01*
X051137Y033655D01*
X051151Y033657D01*
X051157Y033658D01*
X051163Y033659D01*
X051169Y033661D01*
X051174Y033664D01*
X051179Y033666D01*
X051183Y033669D01*
X051186Y033672D01*
Y033568D01*
D02*
G37*
G36*
X046174Y033613D02*
X046176Y033607D01*
X046181Y033602D01*
X046187Y033597D01*
X046194Y033594D01*
X046204Y033591D01*
X046214Y033588D01*
X046227Y033586D01*
X046242Y033585D01*
X046258Y033585D01*
Y033515D01*
X046242Y033515D01*
X046214Y033512D01*
X046204Y033509D01*
X046194Y033506D01*
X046187Y033503D01*
X046181Y033498D01*
X046176Y033493D01*
X046174Y033487D01*
X046173Y03348D01*
Y03362D01*
X046174Y033613D01*
D02*
G37*
G36*
X051366Y033317D02*
X051363Y033321D01*
X051359Y033324D01*
X051354Y033326D01*
X051349Y033329D01*
X051343Y033331D01*
X051337Y033332D01*
X051331Y033333D01*
X051324Y033334D01*
X051317Y033335D01*
X051309Y033335D01*
Y033405D01*
X051317Y033405D01*
X051331Y033407D01*
X051337Y033408D01*
X051343Y033409D01*
X051349Y033411D01*
X051354Y033414D01*
X051359Y033416D01*
X051363Y033419D01*
X051366Y033423D01*
Y033317D01*
D02*
G37*
G36*
X043752Y033369D02*
X043772Y033352D01*
X043775Y033349D01*
X043779Y033347D01*
X043781Y033346D01*
X043784Y033345D01*
X043786Y033345D01*
X043726Y033286D01*
X043726Y033288D01*
X043725Y03329D01*
X043724Y033293D01*
X043722Y033296D01*
X04372Y0333D01*
X043712Y033309D01*
X043702Y033319D01*
X043696Y033325D01*
X043746Y033375D01*
X043752Y033369D01*
D02*
G37*
G36*
X039126Y033192D02*
X039115Y033178D01*
X039104Y033157D01*
X039092Y03313D01*
X039079Y033095D01*
X039051Y033005D01*
X038984Y03274D01*
X03868Y033232D01*
X03874Y033219D01*
X038848Y033202D01*
X038895Y033199D01*
X038938Y033199D01*
X038976Y033203D01*
X039011Y03321D01*
X039041Y033221D01*
X039067Y033235D01*
X039088Y033253D01*
X039126Y033192D01*
D02*
G37*
G36*
X043849Y033214D02*
X043846Y03321D01*
X043843Y033206D01*
X043841Y033201D01*
X043839Y033195D01*
X043838Y033189D01*
X043836Y033182D01*
X043836Y033176D01*
X043835Y033168D01*
X043835Y03316D01*
X043765Y03316D01*
X043765Y033168D01*
X043763Y033182D01*
X043762Y033189D01*
X04376Y033195D01*
X043759Y0332D01*
X043756Y033205D01*
X043754Y03321D01*
X043751Y033214D01*
X043747Y033218D01*
X043852Y033218D01*
X043849Y033214D01*
D02*
G37*
G36*
X043501Y03317D02*
X043513Y03316D01*
X043518Y033157D01*
X043523Y033153D01*
X043529Y033151D01*
X043534Y033149D01*
X043539Y033148D01*
X043544Y033147D01*
X043549Y033146D01*
X043475Y033072D01*
X043475Y033077D01*
X043474Y033082D01*
X043472Y033087D01*
X04347Y033093D01*
X043468Y033098D01*
X043465Y033103D01*
X043461Y033109D01*
X043457Y033114D01*
X043452Y03312D01*
X043446Y033125D01*
X043496Y033175D01*
X043501Y03317D01*
D02*
G37*
G36*
X043599Y033014D02*
X043596Y03301D01*
X043593Y033006D01*
X043591Y033001D01*
X043589Y032995D01*
X043588Y032989D01*
X043586Y032982D01*
X043586Y032976D01*
X043585Y032968D01*
X043585Y03296D01*
X043515Y03296D01*
X043515Y032968D01*
X043513Y032982D01*
X043512Y032989D01*
X04351Y032995D01*
X043509Y033D01*
X043506Y033005D01*
X043504Y03301D01*
X043501Y033014D01*
X043497Y033018D01*
X043602Y033018D01*
X043599Y033014D01*
D02*
G37*
G36*
X040807Y033049D02*
X040811Y033046D01*
X040816Y033044D01*
X040821Y033041D01*
X040827Y033039D01*
X040833Y033038D01*
X040839Y033037D01*
X040846Y033036D01*
X040853Y033035D01*
X040861Y033035D01*
Y032965D01*
X040853Y032965D01*
X040839Y032963D01*
X040833Y032962D01*
X040827Y032961D01*
X040821Y032959D01*
X040816Y032956D01*
X040811Y032954D01*
X040807Y032951D01*
X040804Y032947D01*
Y033052D01*
X040807Y033049D01*
D02*
G37*
G36*
X040749Y032925D02*
X040744Y032925D01*
X040739Y032924D01*
X040734Y032923D01*
X040729Y032921D01*
X040724Y032918D01*
X040718Y032915D01*
X040713Y032911D01*
X040707Y032907D01*
X040702Y032902D01*
X040696Y032897D01*
X040647Y032946D01*
X040652Y032952D01*
X040661Y032963D01*
X040665Y032968D01*
X040668Y032974D01*
X040671Y032979D01*
X040673Y032984D01*
X040674Y032989D01*
X040675Y032994D01*
X040675Y032999D01*
X040749Y032925D01*
D02*
G37*
G36*
X040749Y032593D02*
X040746Y032589D01*
X040744Y032584D01*
X040741Y032579D01*
X040739Y032573D01*
X040738Y032567D01*
X040737Y032561D01*
X040736Y032554D01*
X040735Y032547D01*
X040735Y032539D01*
X040665D01*
X040665Y032547D01*
X040663Y032561D01*
X040662Y032567D01*
X040661Y032573D01*
X040659Y032579D01*
X040656Y032584D01*
X040654Y032589D01*
X040651Y032593D01*
X040648Y032596D01*
X040753D01*
X040749Y032593D01*
D02*
G37*
G36*
X040952Y032296D02*
X040949Y032293D01*
X040946Y032288D01*
X040943Y032284D01*
X040941Y032279D01*
X040939Y032273D01*
X040938Y032267D01*
X040936Y032261D01*
X040935Y032254D01*
X040935Y032246D01*
X040935Y032239D01*
X040865Y032239D01*
X040865Y032247D01*
X040863Y032261D01*
X040862Y032268D01*
X04086Y032274D01*
X040858Y032279D01*
X040856Y032284D01*
X040854Y032289D01*
X040851Y032293D01*
X040847Y032297D01*
X040952Y032296D01*
D02*
G37*
G36*
X039072Y032092D02*
X039057Y032073D01*
X039043Y032048D01*
X039031Y032018D01*
X039021Y031983D01*
X039012Y031942D01*
X039005Y031895D01*
X038996Y031786D01*
X038994Y031654D01*
X038585Y032063D01*
X038654Y032064D01*
X038826Y032074D01*
X038873Y032081D01*
X038914Y03209D01*
X038949Y0321D01*
X038979Y032112D01*
X039004Y032126D01*
X039023Y032141D01*
X039072Y032092D01*
D02*
G37*
G36*
X037776Y031465D02*
X037753Y031363D01*
X037748Y031317D01*
X037747Y031276D01*
X037749Y031238D01*
X037755Y031204D01*
X037766Y031175D01*
X03778Y031149D01*
X037798Y031126D01*
X037733Y031093D01*
X037722Y031101D01*
X037704Y03111D01*
X037677Y031122D01*
X037602Y031151D01*
X03728Y031254D01*
X037793Y031522D01*
X037776Y031465D01*
D02*
G37*
G36*
X040885Y030774D02*
X040886Y030769D01*
X040887Y030764D01*
X040889Y030759D01*
X040892Y030754D01*
X040895Y030748D01*
X040899Y030743D01*
X040903Y030737D01*
X040908Y030732D01*
X040913Y030726D01*
X040864Y030677D01*
X040858Y030682D01*
X040847Y030691D01*
X040842Y030695D01*
X040836Y030698D01*
X040831Y030701D01*
X040826Y030703D01*
X040821Y030704D01*
X040816Y030705D01*
X040811Y030705D01*
X040885Y030779D01*
X040885Y030774D01*
D02*
G37*
G36*
X036952Y031391D02*
X037034Y031284D01*
X037141Y031202D01*
X037266Y03115D01*
X037276Y031148D01*
X037568Y031055D01*
X037639Y031028D01*
X037659Y031019D01*
X037665Y031015D01*
X037943Y030738D01*
X037987Y030708D01*
X03804Y030698D01*
X038878D01*
X038911Y030664D01*
X038892Y030618D01*
X037307D01*
X036888Y031037D01*
Y031415D01*
X036938Y031425D01*
X036952Y031391D01*
D02*
G37*
G36*
X044647Y030265D02*
X044651Y030262D01*
X044656Y030259D01*
X044661Y030257D01*
X044667Y030255D01*
X044673Y030253D01*
X044679Y030252D01*
X044686Y030251D01*
X044693Y030251D01*
X044701Y03025D01*
Y03018D01*
X044693Y03018D01*
X044679Y030179D01*
X044673Y030178D01*
X044667Y030176D01*
X044661Y030174D01*
X044656Y030172D01*
X044651Y030169D01*
X044647Y030166D01*
X044644Y030163D01*
Y030268D01*
X044647Y030265D01*
D02*
G37*
G36*
X043835Y030004D02*
X043836Y029989D01*
X043838Y029983D01*
X043839Y029977D01*
X043841Y029971D01*
X043843Y029966D01*
X043846Y029961D01*
X043849Y029957D01*
X043852Y029954D01*
X043747Y029953D01*
X043751Y029957D01*
X043754Y029961D01*
X043756Y029966D01*
X043759Y029971D01*
X043761Y029977D01*
X043762Y029983D01*
X043763Y029989D01*
X043764Y029996D01*
X043765Y030003D01*
X043765Y030011D01*
X043835Y030011D01*
X043835Y030004D01*
D02*
G37*
G36*
X043585D02*
X043586Y029989D01*
X043588Y029983D01*
X043589Y029977D01*
X043591Y029971D01*
X043593Y029966D01*
X043596Y029961D01*
X043599Y029957D01*
X043602Y029954D01*
X043497Y029953D01*
X043501Y029957D01*
X043504Y029961D01*
X043506Y029966D01*
X043509Y029971D01*
X043511Y029977D01*
X043512Y029983D01*
X043513Y029989D01*
X043514Y029996D01*
X043515Y030003D01*
X043515Y030011D01*
X043585Y030011D01*
X043585Y030004D01*
D02*
G37*
G36*
X044867Y029846D02*
X044863Y02985D01*
X044859Y029853D01*
X044855Y029856D01*
X04485Y029858D01*
X044844Y02986D01*
X044838Y029862D01*
X044832Y029863D01*
X044825Y029864D01*
X044818Y029865D01*
X04481Y029865D01*
X044816Y029935D01*
X044823Y029935D01*
X044838Y029936D01*
X044844Y029938D01*
X044851Y029939D01*
X044856Y029941D01*
X044861Y029943D01*
X044866Y029945D01*
X04487Y029948D01*
X044874Y029951D01*
X044867Y029846D01*
D02*
G37*
G36*
X044351Y030097D02*
X044353Y030063D01*
X044356Y030033D01*
X044361Y030007D01*
X044367Y029985D01*
X044375Y029967D01*
X044384Y029953D01*
X044394Y029944D01*
X044394Y029944D01*
X044418Y029941D01*
X044475Y029936D01*
X044544Y029935D01*
Y029865D01*
X044508Y029865D01*
X044394Y029856D01*
X044394Y029856D01*
X044384Y029847D01*
X044375Y029833D01*
X044367Y029815D01*
X044361Y029793D01*
X044356Y029767D01*
X044351Y029703D01*
X04435Y029665D01*
X04415Y0299D01*
X04435Y030135D01*
X044351Y030097D01*
D02*
G37*
G36*
X044667Y029629D02*
X044671Y029626D01*
X044676Y029623D01*
X044681Y029621D01*
X044687Y029619D01*
X044693Y029617D01*
X044699Y029616D01*
X044706Y029615D01*
X044713Y029615D01*
X044721Y029615D01*
Y029545D01*
X044713Y029544D01*
X044699Y029543D01*
X044693Y029542D01*
X044687Y02954D01*
X044681Y029538D01*
X044676Y029536D01*
X044671Y029533D01*
X044667Y02953D01*
X044664Y029527D01*
Y029632D01*
X044667Y029629D01*
D02*
G37*
G36*
X046257Y027902D02*
X046261Y027899D01*
X046266Y027897D01*
X046271Y027894D01*
X046277Y027893D01*
X046283Y027891D01*
X046289Y02789D01*
X046296Y027889D01*
X046303Y027888D01*
X046311Y027888D01*
Y027818D01*
X046303Y027818D01*
X046289Y027817D01*
X046283Y027815D01*
X046277Y027814D01*
X046271Y027812D01*
X046266Y02781D01*
X046261Y027807D01*
X046257Y027804D01*
X046254Y027801D01*
Y027906D01*
X046257Y027902D01*
D02*
G37*
G36*
X054824Y027681D02*
X054798Y027707D01*
X054748Y027751D01*
X054725Y027769D01*
X054703Y027784D01*
X054682Y027796D01*
X054662Y027806D01*
X054643Y027813D01*
X054626Y027817D01*
X054609Y027818D01*
Y027888D01*
X054626Y02789D01*
X054643Y027894D01*
X054662Y027901D01*
X054682Y02791D01*
X054703Y027922D01*
X054725Y027938D01*
X054748Y027955D01*
X054798Y027999D01*
X054824Y028025D01*
Y027681D01*
D02*
G37*
G36*
X050446Y027597D02*
X050443Y027601D01*
X050439Y027604D01*
X050434Y027606D01*
X050429Y027609D01*
X050423Y027611D01*
X050417Y027612D01*
X050411Y027613D01*
X050404Y027614D01*
X050397Y027615D01*
X050389Y027615D01*
Y027685D01*
X050397Y027685D01*
X050411Y027687D01*
X050417Y027688D01*
X050423Y027689D01*
X050429Y027691D01*
X050434Y027694D01*
X050439Y027696D01*
X050443Y027699D01*
X050446Y027703D01*
Y027597D01*
D02*
G37*
G36*
X050666Y027348D02*
X050663Y027351D01*
X050659Y027354D01*
X050654Y027356D01*
X050649Y027359D01*
X050643Y027361D01*
X050637Y027362D01*
X050631Y027363D01*
X050624Y027364D01*
X050617Y027365D01*
X050609Y027365D01*
Y027435D01*
X050617Y027435D01*
X050631Y027437D01*
X050637Y027438D01*
X050643Y027439D01*
X050649Y027441D01*
X050654Y027444D01*
X050659Y027446D01*
X050663Y027449D01*
X050666Y027452D01*
Y027348D01*
D02*
G37*
G36*
X050652Y027235D02*
X05069Y027228D01*
X05072Y027221D01*
X050726Y027173D01*
X050722Y02715D01*
X050726Y027126D01*
X050695Y027088D01*
X044697D01*
X044572Y027212D01*
X044593Y027262D01*
X050611D01*
X050652Y027235D01*
D02*
G37*
G36*
X053246Y026897D02*
X053243Y026901D01*
X053239Y026904D01*
X053234Y026906D01*
X053229Y026909D01*
X053223Y026911D01*
X053217Y026912D01*
X053211Y026913D01*
X053204Y026914D01*
X053197Y026915D01*
X053189Y026915D01*
Y026985D01*
X053197Y026985D01*
X053211Y026987D01*
X053217Y026988D01*
X053223Y026989D01*
X053229Y026991D01*
X053234Y026994D01*
X053239Y026996D01*
X053243Y026999D01*
X053246Y027002D01*
Y026897D01*
D02*
G37*
G36*
X051096Y026525D02*
X051091Y026525D01*
X051086Y026524D01*
X051081Y026523D01*
X051076Y026521D01*
X05107Y026519D01*
X051065Y026516D01*
X051059Y026512D01*
X051054Y026508D01*
X051048Y026503D01*
X051043Y026498D01*
X050996Y02655D01*
X051001Y026555D01*
X05101Y026566D01*
X051014Y026572D01*
X051017Y026577D01*
X05102Y026582D01*
X051022Y026588D01*
X051024Y026593D01*
X051025Y026598D01*
X051025Y026602D01*
X051096Y026525D01*
D02*
G37*
G36*
X050863Y026085D02*
X050859Y026087D01*
X050855Y026088D01*
X05085Y026088D01*
X050846Y026087D01*
X050841Y026086D01*
X050836Y026084D01*
X050831Y026081D01*
X050825Y026077D01*
X05082Y026072D01*
X050814Y026066D01*
X050771Y026123D01*
X050833Y026183D01*
X050863Y026085D01*
D02*
G37*
G36*
X044246Y026047D02*
X044243Y026051D01*
X044239Y026054D01*
X044234Y026056D01*
X044229Y026059D01*
X044223Y026061D01*
X044217Y026062D01*
X044211Y026063D01*
X044204Y026064D01*
X044197Y026065D01*
X044189Y026065D01*
Y026135D01*
X044197Y026135D01*
X044211Y026137D01*
X044217Y026138D01*
X044223Y026139D01*
X044229Y026141D01*
X044234Y026144D01*
X044239Y026146D01*
X044243Y026149D01*
X044246Y026153D01*
Y026047D01*
D02*
G37*
G36*
X049775Y032686D02*
X049776Y032681D01*
X049778Y032677D01*
X049781Y032672D01*
X049784Y032667D01*
X049788Y032662D01*
X049796Y032651D01*
X049801Y032646D01*
X049807Y03264D01*
X049769Y032579D01*
X049763Y032584D01*
X049758Y032589D01*
X049752Y032593D01*
X049747Y032596D01*
X049741Y032599D01*
X049736Y032601D01*
X049731Y032602D01*
X049726Y032603D01*
X049721Y032603D01*
X049716Y032602D01*
X049774Y03269D01*
X049775Y032686D01*
D02*
G37*
G36*
X054824Y032405D02*
X054798Y032431D01*
X054748Y032475D01*
X054725Y032493D01*
X054703Y032508D01*
X054682Y032521D01*
X054662Y03253D01*
X054643Y032537D01*
X054626Y032541D01*
X054609Y032543D01*
Y032613D01*
X054626Y032614D01*
X054643Y032618D01*
X054662Y032625D01*
X054682Y032635D01*
X054703Y032647D01*
X054725Y032662D01*
X054748Y03268D01*
X054798Y032724D01*
X054824Y03275D01*
Y032405D01*
D02*
G37*
G36*
X049725Y032396D02*
X049726Y032391D01*
X049727Y032386D01*
X049729Y03238D01*
X049732Y032375D01*
X049735Y03237D01*
X049739Y032364D01*
X049743Y032359D01*
X049748Y032353D01*
X049753Y032347D01*
X049704Y032298D01*
X049698Y032303D01*
X049687Y032313D01*
X049682Y032316D01*
X049676Y032319D01*
X049671Y032322D01*
X049666Y032324D01*
X049661Y032325D01*
X049656Y032326D01*
X049651Y032326D01*
X049725Y032401D01*
X049725Y032396D01*
D02*
G37*
G36*
X049846Y031748D02*
X049843Y031751D01*
X049839Y031754D01*
X049834Y031756D01*
X049829Y031759D01*
X049823Y031761D01*
X049817Y031762D01*
X049811Y031763D01*
X049804Y031764D01*
X049797Y031765D01*
X049789Y031765D01*
Y031835D01*
X049797Y031835D01*
X049811Y031837D01*
X049817Y031838D01*
X049823Y031839D01*
X049829Y031841D01*
X049834Y031844D01*
X049839Y031846D01*
X049843Y031849D01*
X049846Y031853D01*
Y031748D01*
D02*
G37*
G36*
X054843Y031601D02*
X054812Y031626D01*
X054731Y031684D01*
X054708Y031698D01*
X054686Y03171D01*
X054665Y031719D01*
X054646Y031725D01*
X054629Y031729D01*
X054614Y03173D01*
X054607Y0318D01*
X054624Y031802D01*
X054642Y031806D01*
X054661Y031813D01*
X05468Y031823D01*
X0547Y031836D01*
X054721Y031852D01*
X054742Y031871D01*
X054763Y031892D01*
X054808Y031944D01*
X054843Y031601D01*
D02*
G37*
G36*
X050096Y031497D02*
X050093Y031501D01*
X050089Y031504D01*
X050084Y031506D01*
X050079Y031509D01*
X050073Y031511D01*
X050067Y031512D01*
X050061Y031513D01*
X050054Y031514D01*
X050047Y031515D01*
X050039Y031515D01*
Y031585D01*
X050047Y031585D01*
X050061Y031587D01*
X050067Y031588D01*
X050073Y031589D01*
X050079Y031591D01*
X050084Y031594D01*
X050089Y031596D01*
X050093Y031599D01*
X050096Y031602D01*
Y031497D01*
D02*
G37*
G36*
X049525Y031294D02*
X049526Y031289D01*
X049527Y031284D01*
X049529Y031279D01*
X049532Y031274D01*
X049535Y031268D01*
X049539Y031263D01*
X049543Y031257D01*
X049548Y031252D01*
X049553Y031246D01*
X049504Y031197D01*
X049498Y031202D01*
X049487Y031211D01*
X049482Y031215D01*
X049476Y031218D01*
X049471Y031221D01*
X049466Y031223D01*
X049461Y031224D01*
X049456Y031225D01*
X049451Y031225D01*
X049525Y031299D01*
X049525Y031294D01*
D02*
G37*
G36*
X048223Y031186D02*
X048225Y031183D01*
X048227Y031178D01*
X04823Y031174D01*
X048237Y031165D01*
X048241Y03116D01*
X048257Y031143D01*
X048225Y031076D01*
X048219Y031081D01*
X048213Y031086D01*
X048208Y03109D01*
X048203Y031093D01*
X048197Y031096D01*
X048192Y031097D01*
X048187Y031099D01*
X048182Y031099D01*
X048177Y031098D01*
X048173Y031097D01*
X048222Y03119D01*
X048223Y031186D01*
D02*
G37*
G36*
X054825Y03083D02*
X054799Y030856D01*
X054749Y030899D01*
X054726Y030917D01*
X054703Y030932D01*
X054682Y030944D01*
X054662Y030954D01*
X054643Y030961D01*
X054626Y030965D01*
X054609Y030966D01*
X054609Y031036D01*
X054625Y031038D01*
X054643Y031042D01*
X054662Y031049D01*
X054682Y031058D01*
X054703Y031071D01*
X054725Y031086D01*
X054748Y031104D01*
X054797Y031148D01*
X054823Y031174D01*
X054825Y03083D01*
D02*
G37*
G36*
X053349Y029731D02*
X053346Y029727D01*
X053344Y029722D01*
X053341Y029717D01*
X053339Y029712D01*
X053338Y029706D01*
X053337Y029699D01*
X053336Y029692D01*
X053335Y029685D01*
X053335Y029677D01*
X053265D01*
X053265Y029685D01*
X053263Y029699D01*
X053262Y029706D01*
X053261Y029712D01*
X053259Y029717D01*
X053256Y029722D01*
X053254Y029727D01*
X053251Y029731D01*
X053247Y029735D01*
X053352D01*
X053349Y029731D01*
D02*
G37*
G36*
X045903Y029645D02*
X045898Y029639D01*
X045889Y029628D01*
X045885Y029623D01*
X045882Y029618D01*
X045879Y029612D01*
X045877Y029607D01*
X045876Y029602D01*
X045875Y029597D01*
X045875Y029592D01*
X045801Y029666D01*
X045806Y029666D01*
X045811Y029667D01*
X045816Y029669D01*
X045821Y029671D01*
X045826Y029673D01*
X045832Y029676D01*
X045837Y02968D01*
X045843Y029684D01*
X045848Y029689D01*
X045854Y029695D01*
X045903Y029645D01*
D02*
G37*
G36*
X046053Y029454D02*
X046048Y029448D01*
X046039Y029437D01*
X046035Y029432D01*
X046032Y029426D01*
X046029Y029421D01*
X046027Y029416D01*
X046026Y029411D01*
X046025Y029406D01*
X046025Y029401D01*
X045951Y029475D01*
X045956Y029475D01*
X045961Y029476D01*
X045966Y029477D01*
X045971Y029479D01*
X045976Y029482D01*
X045982Y029485D01*
X045987Y029489D01*
X045993Y029493D01*
X045998Y029498D01*
X046004Y029503D01*
X046053Y029454D01*
D02*
G37*
G36*
X053335Y029103D02*
X053337Y029089D01*
X053338Y029083D01*
X053339Y029077D01*
X053341Y029071D01*
X053344Y029066D01*
X053346Y029061D01*
X053349Y029057D01*
X053352Y029054D01*
X053247D01*
X053251Y029057D01*
X053254Y029061D01*
X053256Y029066D01*
X053259Y029071D01*
X053261Y029077D01*
X053262Y029083D01*
X053263Y029089D01*
X053264Y029096D01*
X053265Y029103D01*
X053265Y029111D01*
X053335D01*
X053335Y029103D01*
D02*
G37*
G36*
X054824Y028468D02*
X054798Y028494D01*
X054748Y028538D01*
X054725Y028556D01*
X054703Y028571D01*
X054682Y028584D01*
X054662Y028593D01*
X054643Y0286D01*
X054626Y028604D01*
X054609Y028606D01*
Y028676D01*
X054626Y028677D01*
X054643Y028681D01*
X054662Y028688D01*
X054682Y028698D01*
X054703Y02871D01*
X054725Y028725D01*
X054748Y028743D01*
X054798Y028787D01*
X054824Y028813D01*
Y028468D01*
D02*
G37*
G36*
X046478Y036251D02*
X046451Y036227D01*
X046405Y036183D01*
X046386Y036162D01*
X046371Y036141D01*
X046358Y036121D01*
X046348Y036102D01*
X046341Y036083D01*
X046336Y036065D01*
X046335Y036047D01*
X046265Y036053D01*
X046264Y036069D01*
X04626Y036086D01*
X046253Y036105D01*
X046244Y036126D01*
X046232Y036148D01*
X046218Y036171D01*
X046181Y036223D01*
X046135Y03628D01*
X046478Y036251D01*
D02*
G37*
G36*
X046999Y032294D02*
X046994Y032294D01*
X046989Y032293D01*
X046984Y032291D01*
X046979Y032289D01*
X046974Y032287D01*
X046968Y032284D01*
X046963Y03228D01*
X046957Y032276D01*
X046952Y032271D01*
X046946Y032265D01*
X046897Y032315D01*
X046902Y032321D01*
X046911Y032332D01*
X046915Y032337D01*
X046918Y032343D01*
X046921Y032348D01*
X046923Y032353D01*
X046924Y032358D01*
X046925Y032363D01*
X046925Y032368D01*
X046999Y032294D01*
D02*
G37*
G36*
X049325Y030944D02*
X049326Y030939D01*
X049327Y030934D01*
X049329Y030929D01*
X049332Y030924D01*
X049335Y030918D01*
X049339Y030913D01*
X049343Y030907D01*
X049348Y030902D01*
X049353Y030896D01*
X049304Y030847D01*
X049298Y030852D01*
X049287Y030861D01*
X049282Y030865D01*
X049276Y030868D01*
X049271Y030871D01*
X049266Y030873D01*
X049261Y030874D01*
X049256Y030875D01*
X049251Y030875D01*
X049325Y030949D01*
X049325Y030944D01*
D02*
G37*
G36*
X054811Y030057D02*
X054788Y030084D01*
X054743Y03013D01*
X054721Y030148D01*
X054701Y030164D01*
X054681Y030177D01*
X054661Y030187D01*
X054642Y030194D01*
X054624Y030198D01*
X054607Y0302D01*
X054612Y03027D01*
X054628Y030271D01*
X054646Y030275D01*
X054664Y030282D01*
X054685Y030291D01*
X054707Y030302D01*
X05473Y030317D01*
X054781Y030354D01*
X054809Y030376D01*
X054838Y030401D01*
X054811Y030057D01*
D02*
G37*
G36*
X054998Y02682D02*
X05496Y026819D01*
X054894Y026816D01*
X054865Y026812D01*
X054839Y026807D01*
X054816Y026801D01*
X054795Y026793D01*
X054776Y026785D01*
X054761Y026775D01*
X054748Y026764D01*
X054699Y026814D01*
X054709Y026827D01*
X054719Y026842D01*
X054728Y02686D01*
X054735Y026881D01*
X054741Y026905D01*
X054746Y026931D01*
X05475Y02696D01*
X054754Y027026D01*
X054754Y027063D01*
X054998Y02682D01*
D02*
G37*
G36*
X051857Y026549D02*
X051861Y026546D01*
X051866Y026544D01*
X051871Y026541D01*
X051877Y026539D01*
X051883Y026538D01*
X051889Y026537D01*
X051896Y026536D01*
X051903Y026535D01*
X051911Y026535D01*
Y026465D01*
X051903Y026465D01*
X051889Y026463D01*
X051883Y026462D01*
X051877Y026461D01*
X051871Y026459D01*
X051866Y026456D01*
X051861Y026454D01*
X051857Y026451D01*
X051854Y026448D01*
Y026553D01*
X051857Y026549D01*
D02*
G37*
G36*
X035486Y0286D02*
X035473Y028595D01*
X035462Y028588D01*
X035452Y028577D01*
X035444Y028564D01*
X035437Y028547D01*
X035432Y028528D01*
X035428Y028505D01*
X035426Y02848D01*
X035425Y028451D01*
X035275D01*
X035274Y02848D01*
X035272Y028505D01*
X035268Y028528D01*
X035263Y028547D01*
X035256Y028564D01*
X035248Y028577D01*
X035238Y028588D01*
X035227Y028595D01*
X035214Y0286D01*
X0352Y028601D01*
X0355D01*
X035486Y0286D01*
D02*
G37*
G36*
X043523Y024175D02*
X043516Y024181D01*
X043509Y024186D01*
X0435Y02419D01*
X043491Y024194D01*
X04348Y024197D01*
X043468Y0242D01*
X043455Y024202D01*
X043441Y024204D01*
X04341Y024205D01*
Y024355D01*
X043426Y024355D01*
X043455Y024358D01*
X043468Y02436D01*
X04348Y024362D01*
X043491Y024366D01*
X0435Y02437D01*
X043509Y024374D01*
X043516Y024379D01*
X043523Y024385D01*
Y024175D01*
D02*
G37*
D15*
X038065Y02814D02*
X03807Y028135D01*
X036845Y02814D02*
X038065D01*
X03684Y028145D02*
X036845Y02814D01*
X038935Y030835D02*
X03999Y02978D01*
X03804Y030835D02*
X038935D01*
X0374Y031475D02*
X03804Y030835D01*
X0374Y031475D02*
Y03165D01*
X039235Y03335D02*
X043721D01*
X038716Y032831D02*
X039235Y03335D01*
X038581Y032831D02*
X038716D01*
X040375Y029445D02*
Y032625D01*
Y029445D02*
X04039Y02943D01*
X03594Y0343D02*
X03655Y03369D01*
X03594Y03426D02*
Y0343D01*
X04464Y02695D02*
X0533D01*
X04081Y03078D02*
X04464Y02695D01*
X04895Y03362D02*
X05124D01*
X045545Y030215D02*
X04895Y03362D01*
X04459Y030215D02*
X045545D01*
X04901Y03337D02*
X05142D01*
X04522Y02958D02*
X04901Y03337D01*
X0497Y032675D02*
X049722D01*
X04982Y032578D02*
X055D01*
X049722Y032675D02*
X04982Y032578D01*
X04965Y032401D02*
X050286Y031765D01*
X04461Y02958D02*
X04522D01*
X04097Y0261D02*
X0443D01*
X03999Y02708D02*
X04097Y0261D01*
X03999Y02708D02*
Y02978D01*
X04069Y02576D02*
X050458D01*
X03957Y02688D02*
X04069Y02576D01*
X03957Y02688D02*
Y02959D01*
X03899Y03048D02*
X03977Y0297D01*
Y027012D02*
Y0297D01*
Y027012D02*
X04087Y025912D01*
X038945Y030215D02*
X03957Y02959D01*
X037075Y030215D02*
X038945D01*
X03725Y03048D02*
X03899D01*
X03675Y03098D02*
X03725Y03048D01*
X03675Y03098D02*
Y0337D01*
X03655Y03074D02*
Y03369D01*
Y03074D02*
X037075Y030215D01*
X04087Y0259D02*
X0504D01*
X04087D02*
Y025912D01*
X043441Y03318D02*
X04355Y033071D01*
X038581Y03165D02*
X040111Y03318D01*
X043441D01*
X046245Y026645D02*
X04625Y02664D01*
X042305Y026645D02*
X046245D01*
X0423Y02665D02*
X042305Y026645D01*
X04425Y0299D02*
X044918D01*
X044924Y029895D01*
X040375Y032625D02*
X04075Y033D01*
X04155D02*
X04305Y0315D01*
X04075Y033D02*
X04155D01*
X043721Y03335D02*
X0438Y033271D01*
X047226Y033226D02*
X04775D01*
X04655Y03255D02*
X047226Y033226D01*
X046Y03255D02*
X04655D01*
X051839Y028261D02*
X05185Y02825D01*
X04675Y028261D02*
X051839D01*
X0407Y031257D02*
X044557Y0274D01*
X0407Y031257D02*
Y03265D01*
X044557Y0274D02*
X05072D01*
X054434Y0265D02*
X055Y027066D01*
X0518Y0265D02*
X054434D01*
X0533Y029D02*
Y029788D01*
X04815Y031169D02*
X048181D01*
X050709Y028641D01*
X04805Y03355D02*
X04835Y03385D01*
X05075D01*
X046Y03355D02*
X04805D01*
X051Y03415D02*
Y0343D01*
X051226Y034526D02*
X05249D01*
X051Y0343D02*
X051226Y034526D01*
X05075Y03385D02*
Y0345D01*
X0454Y0317D02*
X046331D01*
X04515Y03195D02*
X0454Y0317D01*
X04515Y03195D02*
Y0345D01*
X0463Y03565D02*
Y036419D01*
X04515Y0345D02*
X0463Y03565D01*
Y036419D02*
X046321Y036441D01*
X046331Y0317D02*
X047Y032369D01*
X0446Y02765D02*
X0505D01*
X0409Y03135D02*
X0446Y02765D01*
X0409Y03135D02*
Y03235D01*
X0462Y027853D02*
X055D01*
X050458Y02576D02*
X050848Y02615D01*
X05072Y026225D02*
X051095Y0266D01*
X0511D01*
X05072Y02622D02*
Y026225D01*
X0504Y0259D02*
X05072Y02622D01*
X050848Y02615D02*
X0509D01*
X03735Y0343D02*
X03837D01*
X03675Y0337D02*
X03735Y0343D01*
X0515Y03525D02*
X05249D01*
X05075Y0345D02*
X0515Y03525D01*
X046Y03405D02*
X0475D01*
X046Y03405D02*
X046Y03405D01*
X0438Y0299D02*
Y033271D01*
X04355Y0299D02*
Y033071D01*
X0409Y03235D02*
X0409Y03235D01*
X0481Y03155D02*
X05015D01*
X04595Y0294D02*
X0481Y03155D01*
X049749Y031001D02*
X054999D01*
X04945Y0313D02*
X049749Y031001D01*
X048009Y0318D02*
X0499D01*
X0458Y029591D02*
X048009Y0318D01*
X050286Y031765D02*
X054975D01*
X050709Y028641D02*
X055D01*
X049965Y030235D02*
X054981D01*
X04925Y03095D02*
X049965Y030235D01*
X054981D02*
X055Y030215D01*
X054999Y031001D02*
X055Y031003D01*
X054975Y031765D02*
X055Y03179D01*
D16*
X03535Y0256D02*
X03667Y02428D01*
X04363D01*
X03535Y02895D02*
X0354Y029D01*
X03535Y0256D02*
Y02895D01*
D17*
X0438Y033271D02*
X0438Y033271D01*
Y0299D02*
X0438Y0299D01*
X04355Y0299D02*
X04355Y0299D01*
X04355Y033071D02*
X04355Y033071D01*
D76*
X037554Y03675D02*
X039981D01*
X034845Y034041D02*
X037554Y03675D01*
X034845Y03145D02*
Y034041D01*
X03641Y029D02*
Y029885D01*
X034845Y03145D02*
X03641Y029885D01*
X04425Y0299D02*
Y03355D01*
Y02955D02*
Y0299D01*
X04395Y02925D02*
X04425Y02955D01*
X04345Y02925D02*
X04395D01*
D77*
X03641Y02599D02*
Y029D01*
Y02599D02*
X03735Y02505D01*
X04128D01*
D79*
X044763Y024841D02*
D03*
X044747Y036441D02*
D03*
D80*
X04555Y024841D02*
D03*
X046338D02*
D03*
X047125D02*
D03*
X047913D02*
D03*
X0487D02*
D03*
X049487D02*
D03*
X050275D02*
D03*
X051062D02*
D03*
X05185D02*
D03*
X052637D02*
D03*
X053424D02*
D03*
X045534Y036441D02*
D03*
X046321D02*
D03*
X047109D02*
D03*
X047896D02*
D03*
X048684D02*
D03*
X049471D02*
D03*
X050258D02*
D03*
X051046D02*
D03*
X051833D02*
D03*
X052621D02*
D03*
X053408D02*
D03*
X055Y027066D02*
D03*
Y027853D02*
D03*
Y028641D02*
D03*
Y029428D02*
D03*
Y030215D02*
D03*
Y031003D02*
D03*
Y03179D02*
D03*
Y032578D02*
D03*
Y033365D02*
D03*
Y034152D02*
D03*
Y03494D02*
D03*
D81*
Y026278D02*
D03*
D82*
X046Y03205D02*
D03*
Y03255D02*
D03*
Y03305D02*
D03*
Y03355D02*
D03*
D83*
Y03405D02*
D03*
D84*
X0424Y035888D02*
D03*
D85*
Y036888D02*
D03*
D86*
X035668Y032241D02*
D03*
D87*
X038581Y03165D02*
D03*
X0374D02*
D03*
X038581Y032831D02*
D03*
X0374D02*
D03*
D88*
X03641Y029D02*
D03*
D89*
X0354D02*
D03*
D90*
X053235Y037294D02*
D03*
X05259D02*
D03*
X052025Y037314D02*
D03*
X039335Y023825D02*
D03*
X03869D02*
D03*
X038125Y023845D02*
D03*
X053335Y023795D02*
D03*
X05269D02*
D03*
X052125Y023815D02*
D03*
X043219Y03508D02*
D03*
X042574D02*
D03*
X042009Y0351D02*
D03*
X040373Y028345D02*
D03*
X040393Y02891D02*
D03*
X03928Y026335D02*
D03*
X038715Y026355D02*
D03*
X03807D02*
D03*
Y028135D02*
D03*
X03684Y028145D02*
D03*
X04039Y02943D02*
D03*
X03594Y03426D02*
D03*
X04081Y03078D02*
D03*
X0497Y032675D02*
D03*
X04965Y032401D02*
D03*
X05124Y03362D02*
D03*
X05142Y03337D02*
D03*
X0423Y02665D02*
D03*
X04625Y02664D02*
D03*
X044924Y029895D02*
D03*
X04075Y033D02*
D03*
X0438Y033271D02*
D03*
X04305Y0315D02*
D03*
X04775Y033226D02*
D03*
X05185Y02825D02*
D03*
X04675Y028261D02*
D03*
X0533Y02695D02*
D03*
X0518Y0265D02*
D03*
X0533Y029D02*
D03*
Y029788D02*
D03*
X04815Y031169D02*
D03*
X051Y03415D02*
D03*
X05075Y03385D02*
D03*
X0462Y027853D02*
D03*
X0509Y02615D02*
D03*
X03837Y0343D02*
D03*
X04459Y030215D02*
D03*
X04461Y02958D02*
D03*
X0443Y0261D02*
D03*
X05249Y03525D02*
D03*
Y034526D02*
D03*
X0475Y03405D02*
D03*
X0407Y03265D02*
D03*
X0409Y03235D02*
D03*
X04945Y0313D02*
D03*
X05015Y03155D02*
D03*
X0499Y0318D02*
D03*
X04595Y0294D02*
D03*
X0458Y029591D02*
D03*
X0511Y0266D02*
D03*
X04355Y033071D02*
D03*
X04355Y0299D02*
D03*
X0509Y02715D02*
D03*
X05072Y0274D02*
D03*
X0505Y02765D02*
D03*
X0438Y0299D02*
D03*
X04925Y03095D02*
D03*
X047Y032369D02*
D03*
D91*
X05512Y03679D02*
D03*
Y0244D02*
D03*
D92*
X04128Y02505D02*
D03*
D93*
X04363Y02428D02*
D03*
X039981Y03675D02*
D03*
D94*
X04425Y03355D02*
D03*
X04345Y02925D02*
D03*
M02*
